<?xml version="1.0" encoding="utf-8" standalone="no"?>
<!DOCTYPE svg PUBLIC "-//W3C//DTD SVG 1.1//EN"
  "http://www.w3.org/Graphics/SVG/1.1/DTD/svg11.dtd">
<svg height="576pt" version="1.1" viewBox="0 0 720 576" width="720pt" xmlns="http://www.w3.org/2000/svg" xmlns:xlink="http://www.w3.org/1999/xlink">
 <metadata>
  <rdf:RDF xmlns:cc="http://creativecommons.org/ns#" xmlns:dc="http://purl.org/dc/elements/1.1/" xmlns:rdf="http://www.w3.org/1999/02/22-rdf-syntax-ns#">
   <cc:Work>
    <dc:type rdf:resource="http://purl.org/dc/dcmitype/StillImage"/>
    <dc:date>2022-03-15T23:02:28.144482</dc:date>
    <dc:format>image/svg+xml</dc:format>
    <dc:creator>
     <cc:Agent>
      <dc:title>Matplotlib v3.4.3, https://matplotlib.org/</dc:title>
     </cc:Agent>
    </dc:creator>
   </cc:Work>
  </rdf:RDF>
 </metadata>
 <defs>
  <style type="text/css">*{stroke-linecap:butt;stroke-linejoin:round;}</style>
 </defs>
 <g id="figure_1">
  <g id="patch_1">
   <path d="M 0 576 
L 720 576 
L 720 0 
L 0 0 
z
" style="fill:none;"/>
  </g>
  <g id="axes_1">
   <g id="patch_2">
    <path d="M 90 504 
L 648 504 
L 648 69.12 
L 90 69.12 
z
" style="fill:#ffffff;"/>
   </g>
   <g id="matplotlib.axis_1">
    <g id="xtick_1">
     <g id="line2d_1">
      <defs>
       <path d="M 0 0 
L 0 3.5 
" id="ma19e744ae4" style="stroke:#000000;stroke-width:0.8;"/>
      </defs>
      <g>
       <use style="stroke:#000000;stroke-width:0.8;" x="115.363636" xlink:href="#ma19e744ae4" y="504"/>
      </g>
     </g>
     <g id="text_1">
      <!-- 0 -->
      <g transform="translate(107.728636 529.23625)scale(0.24 -0.24)">
       <defs>
        <path d="M 2034 219 
Q 2513 219 2750 744 
Q 2988 1269 2988 2328 
Q 2988 3391 2750 3916 
Q 2513 4441 2034 4441 
Q 1556 4441 1318 3916 
Q 1081 3391 1081 2328 
Q 1081 1269 1318 744 
Q 1556 219 2034 219 
z
M 2034 -91 
Q 1275 -91 848 546 
Q 422 1184 422 2328 
Q 422 3475 848 4112 
Q 1275 4750 2034 4750 
Q 2797 4750 3222 4112 
Q 3647 3475 3647 2328 
Q 3647 1184 3222 546 
Q 2797 -91 2034 -91 
z
" id="DejaVuSerif-30" transform="scale(0.015625)"/>
       </defs>
       <use xlink:href="#DejaVuSerif-30"/>
      </g>
     </g>
    </g>
    <g id="xtick_2">
     <g id="line2d_2">
      <g>
       <use style="stroke:#000000;stroke-width:0.8;" x="216.919738" xlink:href="#ma19e744ae4" y="504"/>
      </g>
     </g>
     <g id="text_2">
      <!-- 200 -->
      <g transform="translate(194.014738 529.23625)scale(0.24 -0.24)">
       <defs>
        <path d="M 819 3553 
L 469 3553 
L 469 4384 
Q 803 4563 1142 4656 
Q 1481 4750 1806 4750 
Q 2534 4750 2956 4397 
Q 3378 4044 3378 3438 
Q 3378 2753 2422 1800 
Q 2347 1728 2309 1691 
L 1131 513 
L 3078 513 
L 3078 1088 
L 3444 1088 
L 3444 0 
L 434 0 
L 434 341 
L 1850 1753 
Q 2319 2222 2519 2614 
Q 2719 3006 2719 3438 
Q 2719 3909 2473 4175 
Q 2228 4441 1797 4441 
Q 1350 4441 1106 4219 
Q 863 3997 819 3553 
z
" id="DejaVuSerif-32" transform="scale(0.015625)"/>
       </defs>
       <use xlink:href="#DejaVuSerif-32"/>
       <use x="63.623047" xlink:href="#DejaVuSerif-30"/>
       <use x="127.246094" xlink:href="#DejaVuSerif-30"/>
      </g>
     </g>
    </g>
    <g id="xtick_3">
     <g id="line2d_3">
      <g>
       <use style="stroke:#000000;stroke-width:0.8;" x="318.475839" xlink:href="#ma19e744ae4" y="504"/>
      </g>
     </g>
     <g id="text_3">
      <!-- 400 -->
      <g transform="translate(295.570839 529.23625)scale(0.24 -0.24)">
       <defs>
        <path d="M 2234 1581 
L 2234 4063 
L 641 1581 
L 2234 1581 
z
M 3609 0 
L 1484 0 
L 1484 331 
L 2234 331 
L 2234 1247 
L 197 1247 
L 197 1588 
L 2241 4750 
L 2859 4750 
L 2859 1581 
L 3750 1581 
L 3750 1247 
L 2859 1247 
L 2859 331 
L 3609 331 
L 3609 0 
z
" id="DejaVuSerif-34" transform="scale(0.015625)"/>
       </defs>
       <use xlink:href="#DejaVuSerif-34"/>
       <use x="63.623047" xlink:href="#DejaVuSerif-30"/>
       <use x="127.246094" xlink:href="#DejaVuSerif-30"/>
      </g>
     </g>
    </g>
    <g id="xtick_4">
     <g id="line2d_4">
      <g>
       <use style="stroke:#000000;stroke-width:0.8;" x="420.031941" xlink:href="#ma19e744ae4" y="504"/>
      </g>
     </g>
     <g id="text_4">
      <!-- 600 -->
      <g transform="translate(397.126941 529.23625)scale(0.24 -0.24)">
       <defs>
        <path d="M 2094 219 
Q 2534 219 2771 542 
Q 3009 866 3009 1472 
Q 3009 2078 2771 2401 
Q 2534 2725 2094 2725 
Q 1647 2725 1412 2412 
Q 1178 2100 1178 1509 
Q 1178 888 1415 553 
Q 1653 219 2094 219 
z
M 1075 2569 
Q 1288 2803 1556 2918 
Q 1825 3034 2163 3034 
Q 2859 3034 3264 2615 
Q 3669 2197 3669 1472 
Q 3669 763 3233 336 
Q 2797 -91 2069 -91 
Q 1278 -91 853 498 
Q 428 1088 428 2181 
Q 428 3406 931 4078 
Q 1434 4750 2350 4750 
Q 2597 4750 2869 4703 
Q 3141 4656 3425 4563 
L 3425 3794 
L 3072 3794 
Q 3034 4109 2831 4275 
Q 2628 4441 2284 4441 
Q 1678 4441 1381 3981 
Q 1084 3522 1075 2569 
z
" id="DejaVuSerif-36" transform="scale(0.015625)"/>
       </defs>
       <use xlink:href="#DejaVuSerif-36"/>
       <use x="63.623047" xlink:href="#DejaVuSerif-30"/>
       <use x="127.246094" xlink:href="#DejaVuSerif-30"/>
      </g>
     </g>
    </g>
    <g id="xtick_5">
     <g id="line2d_5">
      <g>
       <use style="stroke:#000000;stroke-width:0.8;" x="521.588043" xlink:href="#ma19e744ae4" y="504"/>
      </g>
     </g>
     <g id="text_5">
      <!-- 800 -->
      <g transform="translate(498.683043 529.23625)scale(0.24 -0.24)">
       <defs>
        <path d="M 2981 1275 
Q 2981 1775 2732 2051 
Q 2484 2328 2034 2328 
Q 1584 2328 1336 2051 
Q 1088 1775 1088 1275 
Q 1088 772 1336 495 
Q 1584 219 2034 219 
Q 2484 219 2732 495 
Q 2981 772 2981 1275 
z
M 2853 3541 
Q 2853 3966 2637 4203 
Q 2422 4441 2034 4441 
Q 1650 4441 1433 4203 
Q 1216 3966 1216 3541 
Q 1216 3113 1433 2875 
Q 1650 2638 2034 2638 
Q 2422 2638 2637 2875 
Q 2853 3113 2853 3541 
z
M 2516 2484 
Q 3047 2413 3344 2092 
Q 3641 1772 3641 1275 
Q 3641 619 3225 264 
Q 2809 -91 2034 -91 
Q 1263 -91 845 264 
Q 428 619 428 1275 
Q 428 1772 725 2092 
Q 1022 2413 1556 2484 
Q 1084 2569 832 2842 
Q 581 3116 581 3541 
Q 581 4103 968 4426 
Q 1356 4750 2034 4750 
Q 2713 4750 3100 4426 
Q 3488 4103 3488 3541 
Q 3488 3116 3236 2842 
Q 2984 2569 2516 2484 
z
" id="DejaVuSerif-38" transform="scale(0.015625)"/>
       </defs>
       <use xlink:href="#DejaVuSerif-38"/>
       <use x="63.623047" xlink:href="#DejaVuSerif-30"/>
       <use x="127.246094" xlink:href="#DejaVuSerif-30"/>
      </g>
     </g>
    </g>
    <g id="xtick_6">
     <g id="line2d_6">
      <g>
       <use style="stroke:#000000;stroke-width:0.8;" x="623.144144" xlink:href="#ma19e744ae4" y="504"/>
      </g>
     </g>
     <g id="text_6">
      <!-- 1000 -->
      <g transform="translate(592.604144 529.23625)scale(0.24 -0.24)">
       <defs>
        <path d="M 909 0 
L 909 331 
L 1722 331 
L 1722 4213 
L 781 3603 
L 781 4013 
L 1919 4750 
L 2350 4750 
L 2350 331 
L 3163 331 
L 3163 0 
L 909 0 
z
" id="DejaVuSerif-31" transform="scale(0.015625)"/>
       </defs>
       <use xlink:href="#DejaVuSerif-31"/>
       <use x="63.623047" xlink:href="#DejaVuSerif-30"/>
       <use x="127.246094" xlink:href="#DejaVuSerif-30"/>
       <use x="190.869141" xlink:href="#DejaVuSerif-30"/>
      </g>
     </g>
    </g>
    <g id="text_7">
     <!-- Индекс объекта -->
     <g transform="translate(267.530625 556.46375)scale(0.24 -0.24)">
      <defs>
       <path d="M 353 0 
L 353 331 
L 947 331 
L 947 4331 
L 353 4331 
L 353 4666 
L 2175 4666 
L 2175 4331 
L 1581 4331 
L 1581 1447 
L 4000 3803 
L 4000 4331 
L 3406 4331 
L 3406 4666 
L 5228 4666 
L 5228 4331 
L 4634 4331 
L 4634 331 
L 5228 331 
L 5228 0 
L 3406 0 
L 3406 331 
L 4000 331 
L 4000 3216 
L 1581 859 
L 1581 331 
L 2175 331 
L 2175 0 
L 353 0 
z
" id="DejaVuSerif-418" transform="scale(0.015625)"/>
       <path d="M 3409 2991 
L 3409 331 
L 3928 331 
L 3928 0 
L 2316 0 
L 2316 331 
L 2834 331 
L 2834 1613 
L 1313 1613 
L 1313 331 
L 1831 331 
L 1831 0 
L 219 0 
L 219 331 
L 738 331 
L 738 2991 
L 219 2991 
L 219 3322 
L 1831 3322 
L 1831 2991 
L 1313 2991 
L 1313 2000 
L 2834 2000 
L 2834 2991 
L 2316 2991 
L 2316 3322 
L 3928 3322 
L 3928 2991 
L 3409 2991 
z
" id="DejaVuSerif-43d" transform="scale(0.015625)"/>
       <path d="M 1391 2944 
L 1391 2400 
Q 1391 1663 1306 1197 
Q 1222 731 1147 428 
Q 1141 403 1156 393 
Q 1172 384 1250 384 
L 2588 384 
L 2588 2944 
L 1391 2944 
z
M 1006 2991 
L 488 2991 
L 488 3322 
L 3678 3322 
L 3678 2991 
L 3163 2991 
L 3163 331 
L 3678 331 
L 3678 -884 
L 3353 -884 
L 3303 -444 
Q 3253 0 2941 0 
L 969 0 
Q 656 0 606 -444 
L 556 -884 
L 231 -884 
L 231 331 
L 406 331 
Q 638 331 784 706 
Q 931 1081 968 1476 
Q 1006 1872 1006 2403 
L 1006 2991 
z
" id="DejaVuSerif-434" transform="scale(0.015625)"/>
       <path d="M 3469 1600 
L 991 1600 
L 991 1575 
Q 991 903 1244 561 
Q 1497 219 1991 219 
Q 2369 219 2611 417 
Q 2853 616 2950 1006 
L 3413 1006 
Q 3275 459 2904 184 
Q 2534 -91 1931 -91 
Q 1203 -91 761 389 
Q 319 869 319 1663 
Q 319 2450 753 2931 
Q 1188 3413 1894 3413 
Q 2647 3413 3050 2948 
Q 3453 2484 3469 1600 
z
M 2791 1931 
Q 2772 2513 2545 2808 
Q 2319 3103 1894 3103 
Q 1497 3103 1269 2806 
Q 1041 2509 991 1931 
L 2791 1931 
z
" id="DejaVuSerif-435" transform="scale(0.015625)"/>
       <path d="M 1831 3322 
L 1831 2991 
L 1313 2991 
L 1313 1697 
L 2713 2991 
L 2234 2991 
L 2234 3322 
L 3738 3322 
L 3738 2991 
L 3169 2991 
L 2181 2075 
L 3444 331 
L 3922 331 
L 3922 0 
L 2284 0 
L 2284 331 
L 2759 331 
L 1766 1697 
L 1313 1275 
L 1313 331 
L 1831 331 
L 1831 0 
L 219 0 
L 219 331 
L 738 331 
L 738 2991 
L 219 2991 
L 219 3322 
L 1831 3322 
z
" id="DejaVuSerif-43a" transform="scale(0.015625)"/>
       <path d="M 3291 997 
Q 3169 466 2822 187 
Q 2475 -91 1925 -91 
Q 1200 -91 759 389 
Q 319 869 319 1663 
Q 319 2459 759 2936 
Q 1200 3413 1925 3413 
Q 2241 3413 2553 3339 
Q 2866 3266 3181 3116 
L 3181 2266 
L 2847 2266 
Q 2781 2703 2561 2903 
Q 2341 3103 1931 3103 
Q 1466 3103 1228 2742 
Q 991 2381 991 1663 
Q 991 944 1227 581 
Q 1463 219 1931 219 
Q 2303 219 2525 412 
Q 2747 606 2828 997 
L 3291 997 
z
" id="DejaVuSerif-441" transform="scale(0.015625)"/>
       <path id="DejaVuSerif-20" transform="scale(0.015625)"/>
       <path d="M 1925 219 
Q 2388 219 2623 584 
Q 2859 950 2859 1663 
Q 2859 2375 2623 2739 
Q 2388 3103 1925 3103 
Q 1463 3103 1227 2739 
Q 991 2375 991 1663 
Q 991 950 1228 584 
Q 1466 219 1925 219 
z
M 1925 -91 
Q 1200 -91 759 389 
Q 319 869 319 1663 
Q 319 2456 758 2934 
Q 1197 3413 1925 3413 
Q 2653 3413 3092 2934 
Q 3531 2456 3531 1663 
Q 3531 869 3092 389 
Q 2653 -91 1925 -91 
z
" id="DejaVuSerif-43e" transform="scale(0.015625)"/>
       <path d="M 316 1663 
L 288 2213 
Q 272 2547 272 2694 
Q 272 2841 309 3103 
Q 347 3366 453 3581 
Q 731 4141 1259 4394 
Q 1553 4534 1984 4578 
Q 2416 4622 2545 4665 
Q 2675 4709 2815 4812 
Q 2956 4916 2978 4969 
L 3309 4969 
Q 3263 4672 3020 4375 
Q 2778 4078 2553 4044 
Q 1494 3881 1294 3803 
Q 1094 3725 781 3388 
Q 575 3166 578 2581 
Q 747 2913 1031 3166 
Q 1313 3413 1922 3413 
Q 2650 3413 3089 2934 
Q 3528 2456 3528 1663 
Q 3528 869 3089 389 
Q 2650 -91 1925 -91 
Q 1197 -91 778 366 
Q 359 822 316 1663 
z
M 1922 3103 
Q 988 3103 988 1663 
Q 988 950 1225 584 
Q 1463 219 1922 219 
Q 2856 219 2856 1663 
Q 2856 3103 1922 3103 
z
" id="DejaVuSerif-431" transform="scale(0.015625)"/>
       <path d="M 1900 331 
L 2609 331 
Q 2925 331 3109 506 
Q 3294 681 3294 969 
Q 3294 1256 3108 1429 
Q 2922 1603 2609 1603 
L 1900 1603 
L 1900 331 
z
M 1325 2991 
L 563 2991 
L 563 2484 
L 188 2484 
L 188 3322 
L 2419 3322 
L 2419 2991 
L 1900 2991 
L 1900 1947 
L 2509 1947 
Q 3803 1947 3803 963 
Q 3803 0 2606 0 
L 775 0 
L 775 331 
L 1325 331 
L 1325 2991 
z
" id="DejaVuSerif-44a" transform="scale(0.015625)"/>
       <path d="M 3297 3322 
L 3297 2419 
L 2969 2419 
L 2969 2938 
L 2066 2938 
L 2066 331 
L 2584 331 
L 2584 0 
L 972 0 
L 972 331 
L 1491 331 
L 1491 2938 
L 588 2938 
L 588 2419 
L 259 2419 
L 259 3322 
L 3297 3322 
z
" id="DejaVuSerif-442" transform="scale(0.015625)"/>
       <path d="M 2547 1044 
L 2547 1747 
L 1806 1747 
Q 1378 1747 1168 1562 
Q 959 1378 959 997 
Q 959 650 1171 447 
Q 1384 244 1747 244 
Q 2106 244 2326 466 
Q 2547 688 2547 1044 
z
M 3122 2075 
L 3122 331 
L 3634 331 
L 3634 0 
L 2547 0 
L 2547 359 
Q 2356 128 2106 18 
Q 1856 -91 1522 -91 
Q 969 -91 644 203 
Q 319 497 319 997 
Q 319 1513 691 1797 
Q 1063 2081 1741 2081 
L 2547 2081 
L 2547 2309 
Q 2547 2688 2317 2895 
Q 2088 3103 1672 3103 
Q 1328 3103 1125 2947 
Q 922 2791 872 2484 
L 575 2484 
L 575 3156 
Q 875 3284 1158 3348 
Q 1441 3413 1709 3413 
Q 2400 3413 2761 3070 
Q 3122 2728 3122 2075 
z
" id="DejaVuSerif-430" transform="scale(0.015625)"/>
      </defs>
      <use xlink:href="#DejaVuSerif-418"/>
      <use x="87.207031" xlink:href="#DejaVuSerif-43d"/>
      <use x="153.857422" xlink:href="#DejaVuSerif-434"/>
      <use x="215.429688" xlink:href="#DejaVuSerif-435"/>
      <use x="274.609375" xlink:href="#DejaVuSerif-43a"/>
      <use x="337.109375" xlink:href="#DejaVuSerif-441"/>
      <use x="393.115234" xlink:href="#DejaVuSerif-20"/>
      <use x="424.902344" xlink:href="#DejaVuSerif-43e"/>
      <use x="485.107422" xlink:href="#DejaVuSerif-431"/>
      <use x="545.3125" xlink:href="#DejaVuSerif-44a"/>
      <use x="608.935547" xlink:href="#DejaVuSerif-435"/>
      <use x="668.115234" xlink:href="#DejaVuSerif-43a"/>
      <use x="730.615234" xlink:href="#DejaVuSerif-442"/>
      <use x="785.9375" xlink:href="#DejaVuSerif-430"/>
     </g>
    </g>
   </g>
   <g id="matplotlib.axis_2">
    <g id="ytick_1">
     <g id="line2d_7">
      <defs>
       <path d="M 0 0 
L -3.5 0 
" id="m5cebf93e7f" style="stroke:#000000;stroke-width:0.8;"/>
      </defs>
      <g>
       <use style="stroke:#000000;stroke-width:0.8;" x="90" xlink:href="#m5cebf93e7f" y="486.572956"/>
      </g>
     </g>
     <g id="text_8">
      <!-- 0.1 -->
      <g transform="translate(44.8325 495.691081)scale(0.24 -0.24)">
       <defs>
        <path d="M 603 325 
Q 603 500 722 622 
Q 841 744 1019 744 
Q 1191 744 1312 622 
Q 1434 500 1434 325 
Q 1434 153 1312 31 
Q 1191 -91 1019 -91 
Q 841 -91 722 29 
Q 603 150 603 325 
z
" id="DejaVuSerif-2e" transform="scale(0.015625)"/>
       </defs>
       <use xlink:href="#DejaVuSerif-30"/>
       <use x="63.623047" xlink:href="#DejaVuSerif-2e"/>
       <use x="95.410156" xlink:href="#DejaVuSerif-31"/>
      </g>
     </g>
    </g>
    <g id="ytick_2">
     <g id="line2d_8">
      <g>
       <use style="stroke:#000000;stroke-width:0.8;" x="90" xlink:href="#m5cebf93e7f" y="436.847529"/>
      </g>
     </g>
     <g id="text_9">
      <!-- 0.2 -->
      <g transform="translate(44.8325 445.965654)scale(0.24 -0.24)">
       <use xlink:href="#DejaVuSerif-30"/>
       <use x="63.623047" xlink:href="#DejaVuSerif-2e"/>
       <use x="95.410156" xlink:href="#DejaVuSerif-32"/>
      </g>
     </g>
    </g>
    <g id="ytick_3">
     <g id="line2d_9">
      <g>
       <use style="stroke:#000000;stroke-width:0.8;" x="90" xlink:href="#m5cebf93e7f" y="387.122101"/>
      </g>
     </g>
     <g id="text_10">
      <!-- 0.3 -->
      <g transform="translate(44.8325 396.240226)scale(0.24 -0.24)">
       <defs>
        <path d="M 622 4469 
Q 988 4606 1323 4678 
Q 1659 4750 1953 4750 
Q 2638 4750 3022 4454 
Q 3406 4159 3406 3634 
Q 3406 3213 3140 2930 
Q 2875 2647 2388 2547 
Q 2963 2466 3280 2130 
Q 3597 1794 3597 1259 
Q 3597 606 3158 257 
Q 2719 -91 1894 -91 
Q 1528 -91 1179 -12 
Q 831 66 488 225 
L 488 1131 
L 838 1131 
Q 869 681 1141 450 
Q 1413 219 1906 219 
Q 2384 219 2661 495 
Q 2938 772 2938 1253 
Q 2938 1803 2653 2086 
Q 2369 2369 1819 2369 
L 1522 2369 
L 1522 2688 
L 1678 2688 
Q 2225 2688 2498 2914 
Q 2772 3141 2772 3597 
Q 2772 4006 2547 4223 
Q 2322 4441 1900 4441 
Q 1478 4441 1245 4241 
Q 1013 4041 972 3647 
L 622 3647 
L 622 4469 
z
" id="DejaVuSerif-33" transform="scale(0.015625)"/>
       </defs>
       <use xlink:href="#DejaVuSerif-30"/>
       <use x="63.623047" xlink:href="#DejaVuSerif-2e"/>
       <use x="95.410156" xlink:href="#DejaVuSerif-33"/>
      </g>
     </g>
    </g>
    <g id="ytick_4">
     <g id="line2d_10">
      <g>
       <use style="stroke:#000000;stroke-width:0.8;" x="90" xlink:href="#m5cebf93e7f" y="337.396674"/>
      </g>
     </g>
     <g id="text_11">
      <!-- 0.4 -->
      <g transform="translate(44.8325 346.514799)scale(0.24 -0.24)">
       <use xlink:href="#DejaVuSerif-30"/>
       <use x="63.623047" xlink:href="#DejaVuSerif-2e"/>
       <use x="95.410156" xlink:href="#DejaVuSerif-34"/>
      </g>
     </g>
    </g>
    <g id="ytick_5">
     <g id="line2d_11">
      <g>
       <use style="stroke:#000000;stroke-width:0.8;" x="90" xlink:href="#m5cebf93e7f" y="287.671246"/>
      </g>
     </g>
     <g id="text_12">
      <!-- 0.5 -->
      <g transform="translate(44.8325 296.789371)scale(0.24 -0.24)">
       <defs>
        <path d="M 3219 4666 
L 3219 4153 
L 1081 4153 
L 1081 2816 
Q 1244 2928 1461 2984 
Q 1678 3041 1947 3041 
Q 2703 3041 3140 2622 
Q 3578 2203 3578 1478 
Q 3578 738 3136 323 
Q 2694 -91 1894 -91 
Q 1572 -91 1234 -12 
Q 897 66 544 225 
L 544 1131 
L 897 1131 
Q 925 688 1179 453 
Q 1434 219 1894 219 
Q 2388 219 2653 544 
Q 2919 869 2919 1478 
Q 2919 2084 2655 2407 
Q 2391 2731 1894 2731 
Q 1613 2731 1398 2631 
Q 1184 2531 1019 2322 
L 750 2322 
L 750 4666 
L 3219 4666 
z
" id="DejaVuSerif-35" transform="scale(0.015625)"/>
       </defs>
       <use xlink:href="#DejaVuSerif-30"/>
       <use x="63.623047" xlink:href="#DejaVuSerif-2e"/>
       <use x="95.410156" xlink:href="#DejaVuSerif-35"/>
      </g>
     </g>
    </g>
    <g id="ytick_6">
     <g id="line2d_12">
      <g>
       <use style="stroke:#000000;stroke-width:0.8;" x="90" xlink:href="#m5cebf93e7f" y="237.945819"/>
      </g>
     </g>
     <g id="text_13">
      <!-- 0.6 -->
      <g transform="translate(44.8325 247.063944)scale(0.24 -0.24)">
       <use xlink:href="#DejaVuSerif-30"/>
       <use x="63.623047" xlink:href="#DejaVuSerif-2e"/>
       <use x="95.410156" xlink:href="#DejaVuSerif-36"/>
      </g>
     </g>
    </g>
    <g id="ytick_7">
     <g id="line2d_13">
      <g>
       <use style="stroke:#000000;stroke-width:0.8;" x="90" xlink:href="#m5cebf93e7f" y="188.220391"/>
      </g>
     </g>
     <g id="text_14">
      <!-- 0.7 -->
      <g transform="translate(44.8325 197.338516)scale(0.24 -0.24)">
       <defs>
        <path d="M 3609 4347 
L 1784 0 
L 1319 0 
L 3059 4153 
L 903 4153 
L 903 3578 
L 538 3578 
L 538 4666 
L 3609 4666 
L 3609 4347 
z
" id="DejaVuSerif-37" transform="scale(0.015625)"/>
       </defs>
       <use xlink:href="#DejaVuSerif-30"/>
       <use x="63.623047" xlink:href="#DejaVuSerif-2e"/>
       <use x="95.410156" xlink:href="#DejaVuSerif-37"/>
      </g>
     </g>
    </g>
    <g id="ytick_8">
     <g id="line2d_14">
      <g>
       <use style="stroke:#000000;stroke-width:0.8;" x="90" xlink:href="#m5cebf93e7f" y="138.494964"/>
      </g>
     </g>
     <g id="text_15">
      <!-- 0.8 -->
      <g transform="translate(44.8325 147.613089)scale(0.24 -0.24)">
       <use xlink:href="#DejaVuSerif-30"/>
       <use x="63.623047" xlink:href="#DejaVuSerif-2e"/>
       <use x="95.410156" xlink:href="#DejaVuSerif-38"/>
      </g>
     </g>
    </g>
    <g id="ytick_9">
     <g id="line2d_15">
      <g>
       <use style="stroke:#000000;stroke-width:0.8;" x="90" xlink:href="#m5cebf93e7f" y="88.769536"/>
      </g>
     </g>
     <g id="text_16">
      <!-- 0.9 -->
      <g transform="translate(44.8325 97.887661)scale(0.24 -0.24)">
       <defs>
        <path d="M 2994 2091 
Q 2784 1856 2512 1740 
Q 2241 1625 1900 1625 
Q 1206 1625 804 2044 
Q 403 2463 403 3188 
Q 403 3897 839 4323 
Q 1275 4750 2003 4750 
Q 2794 4750 3217 4161 
Q 3641 3572 3641 2478 
Q 3641 1253 3137 581 
Q 2634 -91 1722 -91 
Q 1475 -91 1203 -44 
Q 931 3 647 97 
L 647 872 
L 997 872 
Q 1038 556 1241 387 
Q 1444 219 1784 219 
Q 2391 219 2687 676 
Q 2984 1134 2994 2091 
z
M 1978 4441 
Q 1534 4441 1298 4117 
Q 1063 3794 1063 3188 
Q 1063 2581 1298 2256 
Q 1534 1931 1978 1931 
Q 2422 1931 2658 2245 
Q 2894 2559 2894 3150 
Q 2894 3772 2656 4106 
Q 2419 4441 1978 4441 
z
" id="DejaVuSerif-39" transform="scale(0.015625)"/>
       </defs>
       <use xlink:href="#DejaVuSerif-30"/>
       <use x="63.623047" xlink:href="#DejaVuSerif-2e"/>
       <use x="95.410156" xlink:href="#DejaVuSerif-39"/>
      </g>
     </g>
    </g>
    <g id="text_17">
     <!-- Предсказание вероятности -->
     <g transform="translate(35.84125 460.74375)rotate(-90)scale(0.24 -0.24)">
      <defs>
       <path d="M 5228 4666 
L 5228 4331 
L 4634 4331 
L 4634 331 
L 5228 331 
L 5228 0 
L 3406 0 
L 3406 331 
L 4000 331 
L 4000 4281 
L 1581 4281 
L 1581 331 
L 2175 331 
L 2175 0 
L 353 0 
L 353 331 
L 947 331 
L 947 4331 
L 353 4331 
L 353 4666 
L 5228 4666 
z
" id="DejaVuSerif-41f" transform="scale(0.015625)"/>
       <path d="M 1313 1825 
L 1313 1497 
Q 1313 897 1542 583 
Q 1772 269 2209 269 
Q 2650 269 2876 622 
Q 3103 975 3103 1663 
Q 3103 2353 2876 2703 
Q 2650 3053 2209 3053 
Q 1772 3053 1542 2737 
Q 1313 2422 1313 1825 
z
M 738 2988 
L 184 2988 
L 184 3322 
L 1313 3322 
L 1313 2803 
Q 1481 3116 1742 3264 
Q 2003 3413 2388 3413 
Q 3000 3413 3387 2928 
Q 3775 2444 3775 1663 
Q 3775 881 3387 395 
Q 3000 -91 2388 -91 
Q 2003 -91 1742 57 
Q 1481 206 1313 519 
L 1313 -997 
L 1856 -997 
L 1856 -1331 
L 184 -1331 
L 184 -997 
L 738 -997 
L 738 2988 
z
" id="DejaVuSerif-440" transform="scale(0.015625)"/>
       <path d="M 409 3181 
Q 956 3413 1672 3413 
Q 2991 3413 2991 2531 
Q 2991 2038 2658 1900 
Q 2325 1763 2247 1756 
Q 2709 1694 2940 1517 
Q 3172 1341 3172 869 
Q 3172 400 2748 154 
Q 2325 -91 1694 -91 
Q 1119 -91 742 170 
Q 366 431 281 809 
L 744 809 
Q 950 219 1713 219 
Q 2097 219 2350 417 
Q 2603 616 2603 894 
Q 2603 1175 2329 1376 
Q 2056 1578 1513 1578 
L 1225 1578 
L 1225 1909 
L 1375 1909 
Q 1922 1909 2183 2068 
Q 2444 2228 2444 2478 
Q 2444 2763 2222 2922 
Q 2000 3081 1622 3081 
Q 816 3081 747 2547 
L 409 2547 
L 409 3181 
z
" id="DejaVuSerif-437" transform="scale(0.015625)"/>
       <path d="M 219 0 
L 219 331 
L 738 331 
L 738 2991 
L 219 2991 
L 219 3322 
L 1831 3322 
L 1831 2991 
L 1313 2991 
L 1313 1084 
L 2834 2694 
L 2834 2991 
L 2316 2991 
L 2316 3322 
L 3928 3322 
L 3928 2991 
L 3409 2991 
L 3409 331 
L 3928 331 
L 3928 0 
L 2316 0 
L 2316 331 
L 2834 331 
L 2834 2188 
L 1313 578 
L 1313 331 
L 1831 331 
L 1831 0 
L 219 0 
z
" id="DejaVuSerif-438" transform="scale(0.015625)"/>
       <path d="M 2069 3322 
Q 3156 3322 3156 2500 
Q 3156 2206 2965 2029 
Q 2775 1853 2409 1813 
Q 3334 1703 3334 963 
Q 3334 469 3000 234 
Q 2666 0 1956 0 
L 228 0 
L 228 331 
L 750 331 
L 750 2991 
L 228 2991 
L 228 3322 
L 2069 3322 
z
M 1325 2006 
L 1853 2006 
Q 2184 2006 2364 2145 
Q 2544 2284 2544 2497 
Q 2544 2709 2362 2850 
Q 2181 2991 1853 2991 
L 1325 2991 
L 1325 2006 
z
M 1325 331 
L 1963 331 
Q 2328 331 2526 506 
Q 2725 681 2725 966 
Q 2725 1250 2528 1422 
Q 2331 1594 1963 1594 
L 1325 1594 
L 1325 331 
z
" id="DejaVuSerif-432" transform="scale(0.015625)"/>
       <path d="M 2572 1866 
L 2572 2991 
L 1844 2991 
Q 1506 2991 1347 2834 
Q 1188 2678 1188 2431 
Q 1188 2184 1345 2025 
Q 1503 1866 1844 1866 
L 2572 1866 
z
M 3700 3322 
L 3700 2991 
L 3147 2991 
L 3147 331 
L 3666 331 
L 3666 0 
L 2072 0 
L 2072 331 
L 2572 331 
L 2572 1544 
L 2059 1544 
L 1100 0 
L 203 0 
L 203 331 
L 663 331 
L 1441 1584 
Q 1219 1644 894 1844 
Q 569 2044 569 2488 
Q 569 2859 833 3090 
Q 1097 3322 1581 3322 
L 3700 3322 
z
" id="DejaVuSerif-44f" transform="scale(0.015625)"/>
      </defs>
      <use xlink:href="#DejaVuSerif-41f"/>
      <use x="87.207031" xlink:href="#DejaVuSerif-440"/>
      <use x="151.220703" xlink:href="#DejaVuSerif-435"/>
      <use x="210.400391" xlink:href="#DejaVuSerif-434"/>
      <use x="271.972656" xlink:href="#DejaVuSerif-441"/>
      <use x="327.978516" xlink:href="#DejaVuSerif-43a"/>
      <use x="390.478516" xlink:href="#DejaVuSerif-430"/>
      <use x="450.097656" xlink:href="#DejaVuSerif-437"/>
      <use x="504.638672" xlink:href="#DejaVuSerif-430"/>
      <use x="564.257812" xlink:href="#DejaVuSerif-43d"/>
      <use x="630.908203" xlink:href="#DejaVuSerif-438"/>
      <use x="697.558594" xlink:href="#DejaVuSerif-435"/>
      <use x="756.738281" xlink:href="#DejaVuSerif-20"/>
      <use x="788.525391" xlink:href="#DejaVuSerif-432"/>
      <use x="844.824219" xlink:href="#DejaVuSerif-435"/>
      <use x="904.003906" xlink:href="#DejaVuSerif-440"/>
      <use x="968.017578" xlink:href="#DejaVuSerif-43e"/>
      <use x="1028.222656" xlink:href="#DejaVuSerif-44f"/>
      <use x="1091.308594" xlink:href="#DejaVuSerif-442"/>
      <use x="1146.630859" xlink:href="#DejaVuSerif-43d"/>
      <use x="1213.28125" xlink:href="#DejaVuSerif-43e"/>
      <use x="1273.486328" xlink:href="#DejaVuSerif-441"/>
      <use x="1329.492188" xlink:href="#DejaVuSerif-442"/>
      <use x="1384.814453" xlink:href="#DejaVuSerif-438"/>
     </g>
    </g>
   </g>
   <g id="line2d_16">
    <path clip-path="url(#pd806ee2e2c)" d="M 115.363636 88.887273 
L 115.871417 89.99647 
L 116.379197 91.865247 
L 116.886978 93.171423 
L 117.394758 93.171423 
L 117.902539 97.627833 
L 118.410319 98.435517 
L 119.42588 101.612159 
L 119.933661 101.659581 
L 120.441441 101.867407 
L 120.949222 101.901284 
L 121.457002 102.126538 
L 121.964783 103.230074 
L 122.472563 103.315967 
L 122.980344 104.138262 
L 123.488124 104.501425 
L 123.995905 105.757452 
L 124.503686 106.40971 
L 125.519247 106.713744 
L 126.027027 107.066533 
L 126.534808 107.08073 
L 127.042588 108.438032 
L 128.058149 110.069256 
L 128.56593 110.130371 
L 131.612613 113.200343 
L 132.120393 113.513476 
L 133.135954 115.086014 
L 133.643735 115.30125 
L 134.659296 115.370279 
L 135.167076 115.690554 
L 135.674857 116.894418 
L 136.182637 116.981348 
L 136.690418 117.268843 
L 137.198198 118.429967 
L 138.213759 118.87265 
L 138.72154 118.932461 
L 139.22932 119.600161 
L 139.737101 119.869191 
L 140.244881 120.751267 
L 140.752662 121.015585 
L 141.768223 121.12424 
L 142.276003 122.142506 
L 143.291564 122.665095 
L 144.307125 124.511614 
L 145.322686 124.648604 
L 145.830467 125.539186 
L 146.338247 125.906943 
L 146.846028 125.990731 
L 147.353808 126.453272 
L 148.369369 126.536498 
L 148.87715 127.047794 
L 149.892711 127.29504 
L 150.400491 128.360965 
L 150.908272 128.457202 
L 151.416052 129.159401 
L 151.923833 129.161357 
L 152.939394 131.283189 
L 153.954955 131.47258 
L 154.462735 132.223535 
L 154.970516 132.344964 
L 155.478296 132.91127 
L 155.986077 133.277515 
L 156.493857 133.366935 
L 157.001638 135.207644 
L 157.509419 136.225762 
L 158.017199 136.447726 
L 158.52498 136.80748 
L 159.03276 136.853687 
L 159.540541 137.320466 
L 160.556102 137.455945 
L 161.063882 137.556509 
L 161.571663 137.773197 
L 162.079443 138.451063 
L 164.618346 138.882454 
L 165.126126 139.021074 
L 165.633907 139.510349 
L 167.157248 139.525168 
L 168.68059 139.818502 
L 169.18837 140.115215 
L 171.219492 140.576659 
L 171.727273 140.82589 
L 174.266175 141.276902 
L 174.773956 141.608707 
L 176.297297 142.125072 
L 176.805078 143.1645 
L 177.312858 143.368295 
L 177.820639 143.722181 
L 178.8362 143.804754 
L 179.34398 144.701235 
L 179.851761 145.351774 
L 180.359541 145.502457 
L 181.375102 145.572997 
L 181.882883 145.72608 
L 182.390663 145.758505 
L 182.898444 146.048016 
L 183.406224 146.181597 
L 183.914005 146.186369 
L 184.929566 146.526354 
L 185.437346 147.261008 
L 186.960688 147.732766 
L 187.976249 147.864066 
L 188.484029 148.33538 
L 188.99181 148.598126 
L 189.49959 148.641399 
L 190.515152 150.042063 
L 191.530713 150.234507 
L 193.054054 150.991063 
L 193.561835 151.031965 
L 194.069615 151.195066 
L 194.577396 151.712972 
L 195.085176 151.881972 
L 196.608518 151.914189 
L 197.116298 152.793865 
L 197.624079 153.082456 
L 198.131859 153.218764 
L 199.655201 154.809916 
L 201.178542 155.288195 
L 202.194103 155.42071 
L 202.701884 155.801922 
L 203.209664 156.040336 
L 203.717445 157.465718 
L 204.225225 157.468475 
L 204.733006 158.002 
L 205.240786 158.04711 
L 206.256347 158.665136 
L 208.287469 159.17338 
L 208.79525 159.865798 
L 209.30303 160.062065 
L 209.810811 160.4661 
L 210.318591 160.521465 
L 210.826372 161.41021 
L 211.334152 161.493642 
L 211.841933 161.822839 
L 212.857494 162.068307 
L 213.873055 162.913216 
L 214.380835 163.082156 
L 214.888616 163.437109 
L 215.904177 163.648107 
L 216.411957 163.948346 
L 216.919738 164.451107 
L 217.427518 164.477722 
L 218.95086 165.021622 
L 219.966421 166.380792 
L 220.981982 166.718406 
L 221.997543 167.550126 
L 222.505324 167.820638 
L 223.520885 168.823729 
L 224.028665 169.198688 
L 224.536446 169.741846 
L 225.044226 169.799997 
L 225.552007 170.042678 
L 226.059787 170.110491 
L 226.567568 171.971711 
L 227.075348 172.403635 
L 227.583129 174.100893 
L 228.59869 174.337795 
L 229.10647 174.682492 
L 230.122031 175.772721 
L 231.137592 176.449816 
L 231.645373 176.82024 
L 232.153153 176.842143 
L 232.660934 177.221637 
L 234.184275 178.683564 
L 236.215397 179.698688 
L 236.723178 181.426741 
L 237.230958 181.523067 
L 237.738739 182.893321 
L 238.246519 183.197859 
L 238.7543 183.28384 
L 239.26208 183.537577 
L 239.769861 183.922287 
L 240.277641 184.693426 
L 240.785422 184.878608 
L 241.800983 185.057418 
L 242.308763 185.693167 
L 242.816544 185.89554 
L 243.324324 186.398686 
L 243.832105 186.486832 
L 244.339885 188.409018 
L 245.355446 188.561182 
L 246.371007 189.805473 
L 246.878788 190.038225 
L 247.386568 191.587438 
L 248.402129 192.114147 
L 248.90991 192.830958 
L 249.41769 193.301531 
L 249.925471 193.478504 
L 250.433251 193.868015 
L 250.941032 194.03165 
L 251.448812 194.679996 
L 251.956593 196.668928 
L 252.972154 197.85729 
L 253.987715 197.940871 
L 254.495495 197.969591 
L 255.003276 198.443839 
L 255.511057 199.180034 
L 257.034398 199.788575 
L 258.049959 200.889741 
L 258.55774 200.909006 
L 259.06552 201.241878 
L 259.573301 201.247716 
L 260.081081 201.36885 
L 260.588862 202.054125 
L 261.604423 202.168204 
L 262.619984 202.702412 
L 263.127764 204.263776 
L 263.635545 204.685712 
L 264.143325 204.786958 
L 264.651106 205.21171 
L 265.158886 205.898112 
L 265.666667 205.904603 
L 266.682228 207.049603 
L 267.190008 207.687576 
L 267.697789 207.790778 
L 269.22113 209.175229 
L 269.728911 209.185751 
L 270.236691 209.442214 
L 270.744472 210.91742 
L 271.252252 211.092169 
L 271.760033 211.799585 
L 272.267813 211.882899 
L 272.775594 212.794258 
L 273.283374 212.832433 
L 274.298935 213.983124 
L 274.806716 213.983124 
L 275.314496 214.483395 
L 275.822277 214.653373 
L 276.330057 216.342688 
L 276.837838 216.487443 
L 277.345618 216.490318 
L 277.853399 216.87897 
L 279.37674 217.18579 
L 279.884521 217.552746 
L 280.392301 219.286489 
L 280.900082 219.329465 
L 281.915643 220.434513 
L 282.423423 220.991216 
L 282.931204 221.207608 
L 283.438984 221.265344 
L 283.946765 221.904295 
L 284.454545 223.551197 
L 284.962326 224.034099 
L 285.470106 224.170763 
L 286.993448 225.324359 
L 288.009009 228.894603 
L 288.51679 229.227594 
L 289.02457 230.036492 
L 289.532351 230.618536 
L 290.040131 230.889019 
L 290.547912 232.261852 
L 291.563473 233.793104 
L 292.579034 233.855582 
L 293.594595 234.085697 
L 294.102375 234.653692 
L 295.625717 237.136167 
L 296.133497 237.411066 
L 296.641278 238.25728 
L 297.656839 239.400739 
L 298.164619 242.368874 
L 299.18018 243.143036 
L 300.703522 243.592802 
L 301.211302 243.674279 
L 301.719083 244.46572 
L 302.226863 244.928973 
L 302.734644 246.432838 
L 304.257985 246.882842 
L 304.765766 246.886073 
L 305.273546 247.337944 
L 305.781327 247.465153 
L 306.289107 248.244146 
L 306.796888 250.656822 
L 307.304668 251.817917 
L 307.812449 253.56565 
L 308.320229 254.557537 
L 310.351351 257.639958 
L 310.859132 258.85464 
L 311.366912 259.180546 
L 311.874693 259.737902 
L 312.382473 259.993416 
L 312.890254 260.092084 
L 313.398034 261.821589 
L 314.413595 263.734172 
L 314.921376 263.789566 
L 315.429156 264.646213 
L 315.936937 264.921141 
L 316.444717 265.733122 
L 317.968059 266.657463 
L 319.4914 266.826818 
L 319.999181 267.230734 
L 321.522523 267.297865 
L 322.030303 268.556708 
L 322.538084 268.556708 
L 323.553645 268.799894 
L 324.061425 269.289821 
L 324.569206 270.697539 
L 325.584767 271.409015 
L 326.092547 271.470604 
L 326.600328 272.108072 
L 327.108108 272.214712 
L 327.615889 272.700579 
L 328.123669 273.582952 
L 328.63145 273.929339 
L 329.13923 274.459248 
L 329.647011 276.031461 
L 330.154791 276.418423 
L 330.662572 276.419965 
L 331.678133 277.020829 
L 332.185913 278.566871 
L 332.693694 278.648466 
L 334.217035 279.486944 
L 334.724816 279.592013 
L 335.232596 280.327793 
L 335.740377 281.391762 
L 336.248157 281.621995 
L 336.755938 282.243103 
L 337.263718 284.712922 
L 337.771499 284.772555 
L 338.279279 285.01737 
L 339.29484 285.804218 
L 339.802621 286.94907 
L 340.310401 287.066499 
L 340.818182 287.581441 
L 341.833743 288.025932 
L 342.341523 289.036329 
L 342.849304 291.030048 
L 343.357084 291.515707 
L 344.372645 292.769793 
L 344.880426 294.106675 
L 345.388206 294.244465 
L 345.895987 294.259684 
L 346.911548 295.362435 
L 347.419328 295.399217 
L 348.434889 295.654598 
L 348.94267 296.397402 
L 349.45045 296.674376 
L 351.989353 297.396596 
L 353.004914 298.583358 
L 353.512695 298.886146 
L 354.020475 299.897595 
L 354.528256 300.252548 
L 355.036036 301.008719 
L 356.051597 301.952088 
L 356.559378 302.135907 
L 357.067158 302.945828 
L 357.574939 303.33737 
L 358.082719 304.296299 
L 358.5905 304.349604 
L 359.09828 305.015748 
L 359.606061 305.227709 
L 360.113841 305.298368 
L 360.621622 306.992706 
L 361.129402 307.036512 
L 361.637183 307.654019 
L 362.144963 307.769936 
L 364.176085 309.62788 
L 364.683866 310.010367 
L 366.207207 310.859648 
L 367.730549 311.51238 
L 368.238329 312.132095 
L 369.25389 312.611412 
L 369.761671 313.519689 
L 371.792793 314.003732 
L 372.300573 314.169976 
L 372.808354 315.034269 
L 373.316134 315.272075 
L 373.823915 316.070214 
L 374.331695 316.404257 
L 374.839476 317.064636 
L 377.378378 317.551406 
L 377.886159 318.007664 
L 378.90172 318.160496 
L 379.4095 318.160496 
L 379.917281 318.696155 
L 380.425061 318.758767 
L 380.932842 319.169292 
L 381.948403 321.601278 
L 382.456183 323.125639 
L 382.963964 323.532089 
L 383.471744 323.581674 
L 383.979525 324.193313 
L 384.487305 325.06792 
L 384.995086 325.119773 
L 385.502867 325.96237 
L 386.010647 327.156008 
L 387.533989 327.294287 
L 388.041769 329.644663 
L 389.05733 330.313311 
L 389.565111 330.689322 
L 390.072891 332.662413 
L 390.580672 332.847269 
L 391.088452 333.3968 
L 391.596233 333.448964 
L 392.104013 334.601878 
L 392.611794 335.042042 
L 393.627355 336.240214 
L 394.642916 337.096179 
L 395.150696 337.344284 
L 395.658477 338.021898 
L 396.166257 338.176108 
L 396.674038 339.953154 
L 397.181818 340.264982 
L 398.197379 340.65845 
L 398.70516 340.991441 
L 399.720721 341.157847 
L 400.736282 341.764787 
L 401.244062 341.895864 
L 401.751843 343.074416 
L 402.767404 343.713396 
L 403.275184 344.149248 
L 403.782965 345.219441 
L 404.290745 346.680123 
L 404.798526 347.573951 
L 405.306306 347.667387 
L 405.814087 348.349491 
L 406.829648 348.51978 
L 407.845209 348.848843 
L 408.352989 349.263073 
L 408.86077 349.93101 
L 409.876331 350.517604 
L 410.384111 351.19667 
L 410.891892 351.680862 
L 411.907453 352.056784 
L 412.415233 352.081488 
L 413.430794 352.968336 
L 414.446355 353.813349 
L 414.954136 353.962743 
L 415.969697 355.258027 
L 416.477477 355.542617 
L 416.985258 356.519389 
L 417.493038 356.935871 
L 418.000819 357.207984 
L 418.5086 357.824557 
L 419.01638 358.001781 
L 419.524161 358.454142 
L 420.031941 358.732019 
L 420.539722 359.139136 
L 421.047502 359.339982 
L 421.555283 359.740015 
L 422.063063 360.760652 
L 422.570844 360.936009 
L 423.586405 362.901912 
L 424.094185 363.134561 
L 424.601966 365.596556 
L 425.109746 365.864726 
L 425.617527 366.428528 
L 428.156429 367.546083 
L 428.66421 367.673248 
L 429.17199 368.070717 
L 430.187551 368.511667 
L 430.695332 368.998585 
L 431.710893 369.625339 
L 432.218673 370.047602 
L 432.726454 370.10101 
L 433.234234 370.365861 
L 433.742015 370.449946 
L 434.249795 370.686063 
L 435.265356 370.877099 
L 435.773137 371.074818 
L 436.280917 372.575187 
L 437.296478 374.117361 
L 437.804259 374.117361 
L 438.312039 374.408146 
L 438.81982 375.207782 
L 439.3276 375.298639 
L 439.835381 375.861329 
L 440.343161 376.642382 
L 440.850942 376.972587 
L 441.866503 377.095113 
L 442.374283 377.121817 
L 442.882064 377.492656 
L 443.389844 378.293241 
L 443.897625 378.632515 
L 444.405405 378.641317 
L 445.928747 379.132578 
L 446.436527 379.320606 
L 447.452088 379.354527 
L 448.97543 380.348994 
L 449.48321 380.372052 
L 449.990991 381.058765 
L 451.006552 381.334864 
L 451.514333 381.684867 
L 452.022113 381.869116 
L 452.529894 382.274499 
L 453.037674 382.478872 
L 453.545455 382.896348 
L 454.053235 382.896348 
L 454.561016 383.505571 
L 455.068796 383.557008 
L 455.576577 383.851439 
L 456.084357 384.38901 
L 456.592138 384.395427 
L 457.099918 384.856679 
L 457.607699 384.856679 
L 458.115479 385.363292 
L 458.62326 386.457596 
L 460.146601 387.4912 
L 460.654382 387.49369 
L 461.162162 388.386214 
L 462.685504 388.981818 
L 463.193284 389.124676 
L 464.208845 389.661847 
L 464.716626 389.66862 
L 465.224406 389.845029 
L 466.239967 389.986287 
L 466.747748 390.11483 
L 467.255528 390.652386 
L 467.763309 390.827136 
L 468.271089 391.252777 
L 468.77887 391.459077 
L 469.28665 392.063631 
L 470.302211 392.234335 
L 470.809992 392.843054 
L 471.317772 392.850034 
L 471.825553 393.007 
L 472.333333 393.896857 
L 472.841114 394.080868 
L 473.348894 396.499472 
L 474.364455 396.600096 
L 476.395577 397.337431 
L 476.903358 398.372873 
L 477.411138 398.408232 
L 477.918919 398.584078 
L 478.426699 398.590376 
L 478.93448 399.406981 
L 480.457821 399.617104 
L 480.965602 399.648743 
L 481.473382 400.05875 
L 481.981163 401.261472 
L 482.488943 401.282664 
L 484.012285 401.942702 
L 485.027846 401.982447 
L 486.043407 402.51987 
L 486.551188 402.574539 
L 487.566749 402.862064 
L 488.58231 402.974957 
L 489.09009 403.010761 
L 490.105651 404.092928 
L 490.613432 404.43109 
L 492.136773 404.637849 
L 492.644554 405.309358 
L 493.660115 405.585412 
L 494.167895 405.991314 
L 494.675676 406.18478 
L 495.691237 406.200415 
L 496.199017 406.353291 
L 497.214578 406.469356 
L 498.230139 407.181247 
L 498.73792 407.216235 
L 499.2457 407.42255 
L 500.261261 407.467942 
L 500.769042 407.634052 
L 501.276822 408.092147 
L 501.784603 408.339289 
L 502.292383 408.423196 
L 502.800164 408.645708 
L 503.307944 408.662543 
L 504.323505 408.876356 
L 504.831286 409.446249 
L 505.339066 409.44736 
L 505.846847 409.568375 
L 506.354627 409.568375 
L 506.862408 409.770881 
L 507.877969 409.893881 
L 509.40131 410.217876 
L 509.909091 410.617391 
L 511.940213 410.896928 
L 512.447993 411.388278 
L 514.479115 412.234254 
L 516.002457 412.616696 
L 516.510238 412.898301 
L 519.04914 413.343607 
L 519.556921 413.906408 
L 520.572482 413.985966 
L 521.080262 414.268274 
L 522.095823 414.364829 
L 522.603604 414.529398 
L 523.111384 414.54647 
L 523.619165 414.888115 
L 525.142506 415.166955 
L 525.650287 416.406089 
L 526.665848 416.569827 
L 527.173628 417.050685 
L 527.681409 417.050685 
L 529.20475 418.098108 
L 531.235872 418.235328 
L 532.251433 418.380779 
L 532.759214 418.448563 
L 533.266994 418.897848 
L 533.774775 419.182468 
L 534.282555 419.240034 
L 535.805897 419.925147 
L 536.313677 421.021777 
L 536.821458 421.282508 
L 538.344799 421.700377 
L 538.85258 421.840738 
L 539.36036 421.844917 
L 540.375921 422.31323 
L 541.391482 422.436045 
L 544.438165 423.051003 
L 544.945946 423.296915 
L 545.453726 423.36887 
L 545.961507 423.947595 
L 547.484848 424.120455 
L 547.992629 424.470265 
L 549.00819 424.750558 
L 549.515971 425.043744 
L 550.531532 425.267079 
L 551.547093 425.397511 
L 552.562654 425.746202 
L 554.085995 426.374661 
L 554.593776 426.889218 
L 555.101556 426.963292 
L 555.609337 427.160997 
L 556.117117 427.852637 
L 557.132678 428.070415 
L 557.640459 428.750948 
L 558.148239 428.867547 
L 559.1638 429.514225 
L 559.671581 430.059213 
L 560.179361 430.259712 
L 560.687142 431.106777 
L 561.702703 431.422933 
L 562.210483 431.751937 
L 563.226044 431.866913 
L 564.241605 432.510761 
L 564.749386 433.061692 
L 565.764947 433.825273 
L 566.272727 433.879763 
L 567.288288 434.805668 
L 567.796069 434.87134 
L 568.303849 435.09606 
L 568.81163 435.882322 
L 569.827191 436.137903 
L 571.350532 438.312529 
L 572.366093 438.407618 
L 572.873874 439.35175 
L 573.889435 439.496987 
L 574.397215 439.786838 
L 575.920557 439.912773 
L 576.428337 440.347557 
L 576.936118 440.445328 
L 578.459459 441.041435 
L 578.96724 441.080366 
L 579.47502 441.756053 
L 579.982801 441.898808 
L 580.490581 442.209013 
L 580.998362 442.251567 
L 581.506143 442.539914 
L 582.521704 442.720569 
L 583.537265 443.820616 
L 584.045045 443.889941 
L 584.552826 444.399711 
L 585.060606 444.699869 
L 585.568387 444.843817 
L 586.076167 445.154422 
L 587.091728 445.281068 
L 587.599509 445.639089 
L 588.107289 445.854947 
L 588.61507 446.228965 
L 589.12285 446.291376 
L 589.630631 446.576137 
L 590.646192 446.892908 
L 593.692875 447.128632 
L 594.200655 447.205359 
L 594.708436 448.171083 
L 595.216216 448.29375 
L 596.739558 449.544864 
L 597.247338 449.606676 
L 598.77068 450.398221 
L 599.786241 450.529001 
L 600.294021 450.84329 
L 601.817363 450.939356 
L 603.340704 451.436767 
L 607.910729 451.913927 
L 608.418509 452.201385 
L 609.941851 452.323993 
L 611.465192 452.46551 
L 611.972973 453.055772 
L 612.480753 453.240065 
L 612.988534 454.619737 
L 613.496314 455.290675 
L 614.004095 455.429103 
L 614.511876 456.485995 
L 615.019656 456.485995 
L 616.035217 457.017839 
L 616.542998 457.313336 
L 617.050778 459.836972 
L 618.57412 460.361295 
L 619.589681 464.233735 
L 620.097461 468.216171 
L 620.605242 468.521175 
L 621.113022 469.241335 
L 621.620803 469.750624 
L 622.128583 480.259738 
L 622.636364 484.232727 
L 622.636364 484.232727 
" style="fill:none;stroke:#1f77b4;stroke-linecap:square;stroke-width:2;"/>
   </g>
   <g id="patch_3">
    <path d="M 90 504 
L 90 69.12 
" style="fill:none;stroke:#000000;stroke-linecap:square;stroke-linejoin:miter;stroke-width:0.8;"/>
   </g>
   <g id="patch_4">
    <path d="M 648 504 
L 648 69.12 
" style="fill:none;stroke:#000000;stroke-linecap:square;stroke-linejoin:miter;stroke-width:0.8;"/>
   </g>
   <g id="patch_5">
    <path d="M 90 504 
L 648 504 
" style="fill:none;stroke:#000000;stroke-linecap:square;stroke-linejoin:miter;stroke-width:0.8;"/>
   </g>
   <g id="patch_6">
    <path d="M 90 69.12 
L 648 69.12 
" style="fill:none;stroke:#000000;stroke-linecap:square;stroke-linejoin:miter;stroke-width:0.8;"/>
   </g>
   <g id="legend_1">
    <g id="patch_7">
     <path d="M 106.8 492 
L 251.11125 492 
Q 255.91125 492 255.91125 487.2 
L 255.91125 454.3725 
Q 255.91125 449.5725 251.11125 449.5725 
L 106.8 449.5725 
Q 102 449.5725 102 454.3725 
L 102 487.2 
Q 102 492 106.8 492 
z
" style="fill:#ffffff;opacity:0.8;stroke:#cccccc;stroke-linejoin:miter;"/>
    </g>
    <g id="line2d_17">
     <path d="M 111.6 469.00875 
L 159.6 469.00875 
" style="fill:none;stroke:#1f77b4;stroke-linecap:square;stroke-width:2;"/>
    </g>
    <g id="line2d_18"/>
    <g id="text_18">
     <!-- LIME -->
     <g transform="translate(178.8 477.40875)scale(0.24 -0.24)">
      <defs>
       <path d="M 353 0 
L 353 331 
L 947 331 
L 947 4331 
L 353 4331 
L 353 4666 
L 2175 4666 
L 2175 4331 
L 1581 4331 
L 1581 384 
L 3713 384 
L 3713 1166 
L 4097 1166 
L 4097 0 
L 353 0 
z
" id="DejaVuSerif-4c" transform="scale(0.015625)"/>
       <path d="M 1581 331 
L 2175 331 
L 2175 0 
L 353 0 
L 353 331 
L 947 331 
L 947 4331 
L 353 4331 
L 353 4666 
L 2175 4666 
L 2175 4331 
L 1581 4331 
L 1581 331 
z
" id="DejaVuSerif-49" transform="scale(0.015625)"/>
       <path d="M 353 0 
L 353 331 
L 947 331 
L 947 4331 
L 319 4331 
L 319 4666 
L 1678 4666 
L 3316 1344 
L 4953 4666 
L 6228 4666 
L 6228 4331 
L 5606 4331 
L 5606 331 
L 6203 331 
L 6203 0 
L 4378 0 
L 4378 331 
L 4972 331 
L 4972 3938 
L 3372 684 
L 2931 684 
L 1331 3938 
L 1331 331 
L 1925 331 
L 1925 0 
L 353 0 
z
" id="DejaVuSerif-4d" transform="scale(0.015625)"/>
       <path d="M 353 0 
L 353 331 
L 947 331 
L 947 4331 
L 353 4331 
L 353 4666 
L 4109 4666 
L 4109 3628 
L 3725 3628 
L 3725 4281 
L 1581 4281 
L 1581 2719 
L 3109 2719 
L 3109 3303 
L 3494 3303 
L 3494 1753 
L 3109 1753 
L 3109 2338 
L 1581 2338 
L 1581 384 
L 3775 384 
L 3775 1038 
L 4159 1038 
L 4159 0 
L 353 0 
z
" id="DejaVuSerif-45" transform="scale(0.015625)"/>
      </defs>
      <use xlink:href="#DejaVuSerif-4c"/>
      <use x="66.40625" xlink:href="#DejaVuSerif-49"/>
      <use x="105.908203" xlink:href="#DejaVuSerif-4d"/>
      <use x="208.300781" xlink:href="#DejaVuSerif-45"/>
     </g>
    </g>
   </g>
  </g>
 </g>
 <defs>
  <clipPath id="pd806ee2e2c">
   <rect height="434.88" width="558" x="90" y="69.12"/>
  </clipPath>
 </defs>
</svg>
