<?xml version="1.0" encoding="utf-8" standalone="no"?>
<!DOCTYPE svg PUBLIC "-//W3C//DTD SVG 1.1//EN"
  "http://www.w3.org/Graphics/SVG/1.1/DTD/svg11.dtd">
<svg height="576pt" version="1.1" viewBox="0 0 720 576" width="720pt" xmlns="http://www.w3.org/2000/svg" xmlns:xlink="http://www.w3.org/1999/xlink">
 <metadata>
  <rdf:RDF xmlns:cc="http://creativecommons.org/ns#" xmlns:dc="http://purl.org/dc/elements/1.1/" xmlns:rdf="http://www.w3.org/1999/02/22-rdf-syntax-ns#">
   <cc:Work>
    <dc:type rdf:resource="http://purl.org/dc/dcmitype/StillImage"/>
    <dc:date>2022-03-15T23:02:24.566611</dc:date>
    <dc:format>image/svg+xml</dc:format>
    <dc:creator>
     <cc:Agent>
      <dc:title>Matplotlib v3.4.3, https://matplotlib.org/</dc:title>
     </cc:Agent>
    </dc:creator>
   </cc:Work>
  </rdf:RDF>
 </metadata>
 <defs>
  <style type="text/css">*{stroke-linecap:butt;stroke-linejoin:round;}</style>
 </defs>
 <g id="figure_1">
  <g id="patch_1">
   <path d="M 0 576 
L 720 576 
L 720 0 
L 0 0 
z
" style="fill:none;"/>
  </g>
  <g id="axes_1">
   <g id="patch_2">
    <path d="M 90 504 
L 648 504 
L 648 69.12 
L 90 69.12 
z
" style="fill:#ffffff;"/>
   </g>
   <g id="matplotlib.axis_1">
    <g id="xtick_1">
     <g id="line2d_1">
      <defs>
       <path d="M 0 0 
L 0 3.5 
" id="mfb9db08f22" style="stroke:#000000;stroke-width:0.8;"/>
      </defs>
      <g>
       <use style="stroke:#000000;stroke-width:0.8;" x="115.363636" xlink:href="#mfb9db08f22" y="504"/>
      </g>
     </g>
     <g id="text_1">
      <!-- 0 -->
      <g transform="translate(107.728636 529.23625)scale(0.24 -0.24)">
       <defs>
        <path d="M 2034 219 
Q 2513 219 2750 744 
Q 2988 1269 2988 2328 
Q 2988 3391 2750 3916 
Q 2513 4441 2034 4441 
Q 1556 4441 1318 3916 
Q 1081 3391 1081 2328 
Q 1081 1269 1318 744 
Q 1556 219 2034 219 
z
M 2034 -91 
Q 1275 -91 848 546 
Q 422 1184 422 2328 
Q 422 3475 848 4112 
Q 1275 4750 2034 4750 
Q 2797 4750 3222 4112 
Q 3647 3475 3647 2328 
Q 3647 1184 3222 546 
Q 2797 -91 2034 -91 
z
" id="DejaVuSerif-30" transform="scale(0.015625)"/>
       </defs>
       <use xlink:href="#DejaVuSerif-30"/>
      </g>
     </g>
    </g>
    <g id="xtick_2">
     <g id="line2d_2">
      <g>
       <use style="stroke:#000000;stroke-width:0.8;" x="216.919738" xlink:href="#mfb9db08f22" y="504"/>
      </g>
     </g>
     <g id="text_2">
      <!-- 200 -->
      <g transform="translate(194.014738 529.23625)scale(0.24 -0.24)">
       <defs>
        <path d="M 819 3553 
L 469 3553 
L 469 4384 
Q 803 4563 1142 4656 
Q 1481 4750 1806 4750 
Q 2534 4750 2956 4397 
Q 3378 4044 3378 3438 
Q 3378 2753 2422 1800 
Q 2347 1728 2309 1691 
L 1131 513 
L 3078 513 
L 3078 1088 
L 3444 1088 
L 3444 0 
L 434 0 
L 434 341 
L 1850 1753 
Q 2319 2222 2519 2614 
Q 2719 3006 2719 3438 
Q 2719 3909 2473 4175 
Q 2228 4441 1797 4441 
Q 1350 4441 1106 4219 
Q 863 3997 819 3553 
z
" id="DejaVuSerif-32" transform="scale(0.015625)"/>
       </defs>
       <use xlink:href="#DejaVuSerif-32"/>
       <use x="63.623047" xlink:href="#DejaVuSerif-30"/>
       <use x="127.246094" xlink:href="#DejaVuSerif-30"/>
      </g>
     </g>
    </g>
    <g id="xtick_3">
     <g id="line2d_3">
      <g>
       <use style="stroke:#000000;stroke-width:0.8;" x="318.475839" xlink:href="#mfb9db08f22" y="504"/>
      </g>
     </g>
     <g id="text_3">
      <!-- 400 -->
      <g transform="translate(295.570839 529.23625)scale(0.24 -0.24)">
       <defs>
        <path d="M 2234 1581 
L 2234 4063 
L 641 1581 
L 2234 1581 
z
M 3609 0 
L 1484 0 
L 1484 331 
L 2234 331 
L 2234 1247 
L 197 1247 
L 197 1588 
L 2241 4750 
L 2859 4750 
L 2859 1581 
L 3750 1581 
L 3750 1247 
L 2859 1247 
L 2859 331 
L 3609 331 
L 3609 0 
z
" id="DejaVuSerif-34" transform="scale(0.015625)"/>
       </defs>
       <use xlink:href="#DejaVuSerif-34"/>
       <use x="63.623047" xlink:href="#DejaVuSerif-30"/>
       <use x="127.246094" xlink:href="#DejaVuSerif-30"/>
      </g>
     </g>
    </g>
    <g id="xtick_4">
     <g id="line2d_4">
      <g>
       <use style="stroke:#000000;stroke-width:0.8;" x="420.031941" xlink:href="#mfb9db08f22" y="504"/>
      </g>
     </g>
     <g id="text_4">
      <!-- 600 -->
      <g transform="translate(397.126941 529.23625)scale(0.24 -0.24)">
       <defs>
        <path d="M 2094 219 
Q 2534 219 2771 542 
Q 3009 866 3009 1472 
Q 3009 2078 2771 2401 
Q 2534 2725 2094 2725 
Q 1647 2725 1412 2412 
Q 1178 2100 1178 1509 
Q 1178 888 1415 553 
Q 1653 219 2094 219 
z
M 1075 2569 
Q 1288 2803 1556 2918 
Q 1825 3034 2163 3034 
Q 2859 3034 3264 2615 
Q 3669 2197 3669 1472 
Q 3669 763 3233 336 
Q 2797 -91 2069 -91 
Q 1278 -91 853 498 
Q 428 1088 428 2181 
Q 428 3406 931 4078 
Q 1434 4750 2350 4750 
Q 2597 4750 2869 4703 
Q 3141 4656 3425 4563 
L 3425 3794 
L 3072 3794 
Q 3034 4109 2831 4275 
Q 2628 4441 2284 4441 
Q 1678 4441 1381 3981 
Q 1084 3522 1075 2569 
z
" id="DejaVuSerif-36" transform="scale(0.015625)"/>
       </defs>
       <use xlink:href="#DejaVuSerif-36"/>
       <use x="63.623047" xlink:href="#DejaVuSerif-30"/>
       <use x="127.246094" xlink:href="#DejaVuSerif-30"/>
      </g>
     </g>
    </g>
    <g id="xtick_5">
     <g id="line2d_5">
      <g>
       <use style="stroke:#000000;stroke-width:0.8;" x="521.588043" xlink:href="#mfb9db08f22" y="504"/>
      </g>
     </g>
     <g id="text_5">
      <!-- 800 -->
      <g transform="translate(498.683043 529.23625)scale(0.24 -0.24)">
       <defs>
        <path d="M 2981 1275 
Q 2981 1775 2732 2051 
Q 2484 2328 2034 2328 
Q 1584 2328 1336 2051 
Q 1088 1775 1088 1275 
Q 1088 772 1336 495 
Q 1584 219 2034 219 
Q 2484 219 2732 495 
Q 2981 772 2981 1275 
z
M 2853 3541 
Q 2853 3966 2637 4203 
Q 2422 4441 2034 4441 
Q 1650 4441 1433 4203 
Q 1216 3966 1216 3541 
Q 1216 3113 1433 2875 
Q 1650 2638 2034 2638 
Q 2422 2638 2637 2875 
Q 2853 3113 2853 3541 
z
M 2516 2484 
Q 3047 2413 3344 2092 
Q 3641 1772 3641 1275 
Q 3641 619 3225 264 
Q 2809 -91 2034 -91 
Q 1263 -91 845 264 
Q 428 619 428 1275 
Q 428 1772 725 2092 
Q 1022 2413 1556 2484 
Q 1084 2569 832 2842 
Q 581 3116 581 3541 
Q 581 4103 968 4426 
Q 1356 4750 2034 4750 
Q 2713 4750 3100 4426 
Q 3488 4103 3488 3541 
Q 3488 3116 3236 2842 
Q 2984 2569 2516 2484 
z
" id="DejaVuSerif-38" transform="scale(0.015625)"/>
       </defs>
       <use xlink:href="#DejaVuSerif-38"/>
       <use x="63.623047" xlink:href="#DejaVuSerif-30"/>
       <use x="127.246094" xlink:href="#DejaVuSerif-30"/>
      </g>
     </g>
    </g>
    <g id="xtick_6">
     <g id="line2d_6">
      <g>
       <use style="stroke:#000000;stroke-width:0.8;" x="623.144144" xlink:href="#mfb9db08f22" y="504"/>
      </g>
     </g>
     <g id="text_6">
      <!-- 1000 -->
      <g transform="translate(592.604144 529.23625)scale(0.24 -0.24)">
       <defs>
        <path d="M 909 0 
L 909 331 
L 1722 331 
L 1722 4213 
L 781 3603 
L 781 4013 
L 1919 4750 
L 2350 4750 
L 2350 331 
L 3163 331 
L 3163 0 
L 909 0 
z
" id="DejaVuSerif-31" transform="scale(0.015625)"/>
       </defs>
       <use xlink:href="#DejaVuSerif-31"/>
       <use x="63.623047" xlink:href="#DejaVuSerif-30"/>
       <use x="127.246094" xlink:href="#DejaVuSerif-30"/>
       <use x="190.869141" xlink:href="#DejaVuSerif-30"/>
      </g>
     </g>
    </g>
    <g id="text_7">
     <!-- Индекс объекта -->
     <g transform="translate(267.530625 556.46375)scale(0.24 -0.24)">
      <defs>
       <path d="M 353 0 
L 353 331 
L 947 331 
L 947 4331 
L 353 4331 
L 353 4666 
L 2175 4666 
L 2175 4331 
L 1581 4331 
L 1581 1447 
L 4000 3803 
L 4000 4331 
L 3406 4331 
L 3406 4666 
L 5228 4666 
L 5228 4331 
L 4634 4331 
L 4634 331 
L 5228 331 
L 5228 0 
L 3406 0 
L 3406 331 
L 4000 331 
L 4000 3216 
L 1581 859 
L 1581 331 
L 2175 331 
L 2175 0 
L 353 0 
z
" id="DejaVuSerif-418" transform="scale(0.015625)"/>
       <path d="M 3409 2991 
L 3409 331 
L 3928 331 
L 3928 0 
L 2316 0 
L 2316 331 
L 2834 331 
L 2834 1613 
L 1313 1613 
L 1313 331 
L 1831 331 
L 1831 0 
L 219 0 
L 219 331 
L 738 331 
L 738 2991 
L 219 2991 
L 219 3322 
L 1831 3322 
L 1831 2991 
L 1313 2991 
L 1313 2000 
L 2834 2000 
L 2834 2991 
L 2316 2991 
L 2316 3322 
L 3928 3322 
L 3928 2991 
L 3409 2991 
z
" id="DejaVuSerif-43d" transform="scale(0.015625)"/>
       <path d="M 1391 2944 
L 1391 2400 
Q 1391 1663 1306 1197 
Q 1222 731 1147 428 
Q 1141 403 1156 393 
Q 1172 384 1250 384 
L 2588 384 
L 2588 2944 
L 1391 2944 
z
M 1006 2991 
L 488 2991 
L 488 3322 
L 3678 3322 
L 3678 2991 
L 3163 2991 
L 3163 331 
L 3678 331 
L 3678 -884 
L 3353 -884 
L 3303 -444 
Q 3253 0 2941 0 
L 969 0 
Q 656 0 606 -444 
L 556 -884 
L 231 -884 
L 231 331 
L 406 331 
Q 638 331 784 706 
Q 931 1081 968 1476 
Q 1006 1872 1006 2403 
L 1006 2991 
z
" id="DejaVuSerif-434" transform="scale(0.015625)"/>
       <path d="M 3469 1600 
L 991 1600 
L 991 1575 
Q 991 903 1244 561 
Q 1497 219 1991 219 
Q 2369 219 2611 417 
Q 2853 616 2950 1006 
L 3413 1006 
Q 3275 459 2904 184 
Q 2534 -91 1931 -91 
Q 1203 -91 761 389 
Q 319 869 319 1663 
Q 319 2450 753 2931 
Q 1188 3413 1894 3413 
Q 2647 3413 3050 2948 
Q 3453 2484 3469 1600 
z
M 2791 1931 
Q 2772 2513 2545 2808 
Q 2319 3103 1894 3103 
Q 1497 3103 1269 2806 
Q 1041 2509 991 1931 
L 2791 1931 
z
" id="DejaVuSerif-435" transform="scale(0.015625)"/>
       <path d="M 1831 3322 
L 1831 2991 
L 1313 2991 
L 1313 1697 
L 2713 2991 
L 2234 2991 
L 2234 3322 
L 3738 3322 
L 3738 2991 
L 3169 2991 
L 2181 2075 
L 3444 331 
L 3922 331 
L 3922 0 
L 2284 0 
L 2284 331 
L 2759 331 
L 1766 1697 
L 1313 1275 
L 1313 331 
L 1831 331 
L 1831 0 
L 219 0 
L 219 331 
L 738 331 
L 738 2991 
L 219 2991 
L 219 3322 
L 1831 3322 
z
" id="DejaVuSerif-43a" transform="scale(0.015625)"/>
       <path d="M 3291 997 
Q 3169 466 2822 187 
Q 2475 -91 1925 -91 
Q 1200 -91 759 389 
Q 319 869 319 1663 
Q 319 2459 759 2936 
Q 1200 3413 1925 3413 
Q 2241 3413 2553 3339 
Q 2866 3266 3181 3116 
L 3181 2266 
L 2847 2266 
Q 2781 2703 2561 2903 
Q 2341 3103 1931 3103 
Q 1466 3103 1228 2742 
Q 991 2381 991 1663 
Q 991 944 1227 581 
Q 1463 219 1931 219 
Q 2303 219 2525 412 
Q 2747 606 2828 997 
L 3291 997 
z
" id="DejaVuSerif-441" transform="scale(0.015625)"/>
       <path id="DejaVuSerif-20" transform="scale(0.015625)"/>
       <path d="M 1925 219 
Q 2388 219 2623 584 
Q 2859 950 2859 1663 
Q 2859 2375 2623 2739 
Q 2388 3103 1925 3103 
Q 1463 3103 1227 2739 
Q 991 2375 991 1663 
Q 991 950 1228 584 
Q 1466 219 1925 219 
z
M 1925 -91 
Q 1200 -91 759 389 
Q 319 869 319 1663 
Q 319 2456 758 2934 
Q 1197 3413 1925 3413 
Q 2653 3413 3092 2934 
Q 3531 2456 3531 1663 
Q 3531 869 3092 389 
Q 2653 -91 1925 -91 
z
" id="DejaVuSerif-43e" transform="scale(0.015625)"/>
       <path d="M 316 1663 
L 288 2213 
Q 272 2547 272 2694 
Q 272 2841 309 3103 
Q 347 3366 453 3581 
Q 731 4141 1259 4394 
Q 1553 4534 1984 4578 
Q 2416 4622 2545 4665 
Q 2675 4709 2815 4812 
Q 2956 4916 2978 4969 
L 3309 4969 
Q 3263 4672 3020 4375 
Q 2778 4078 2553 4044 
Q 1494 3881 1294 3803 
Q 1094 3725 781 3388 
Q 575 3166 578 2581 
Q 747 2913 1031 3166 
Q 1313 3413 1922 3413 
Q 2650 3413 3089 2934 
Q 3528 2456 3528 1663 
Q 3528 869 3089 389 
Q 2650 -91 1925 -91 
Q 1197 -91 778 366 
Q 359 822 316 1663 
z
M 1922 3103 
Q 988 3103 988 1663 
Q 988 950 1225 584 
Q 1463 219 1922 219 
Q 2856 219 2856 1663 
Q 2856 3103 1922 3103 
z
" id="DejaVuSerif-431" transform="scale(0.015625)"/>
       <path d="M 1900 331 
L 2609 331 
Q 2925 331 3109 506 
Q 3294 681 3294 969 
Q 3294 1256 3108 1429 
Q 2922 1603 2609 1603 
L 1900 1603 
L 1900 331 
z
M 1325 2991 
L 563 2991 
L 563 2484 
L 188 2484 
L 188 3322 
L 2419 3322 
L 2419 2991 
L 1900 2991 
L 1900 1947 
L 2509 1947 
Q 3803 1947 3803 963 
Q 3803 0 2606 0 
L 775 0 
L 775 331 
L 1325 331 
L 1325 2991 
z
" id="DejaVuSerif-44a" transform="scale(0.015625)"/>
       <path d="M 3297 3322 
L 3297 2419 
L 2969 2419 
L 2969 2938 
L 2066 2938 
L 2066 331 
L 2584 331 
L 2584 0 
L 972 0 
L 972 331 
L 1491 331 
L 1491 2938 
L 588 2938 
L 588 2419 
L 259 2419 
L 259 3322 
L 3297 3322 
z
" id="DejaVuSerif-442" transform="scale(0.015625)"/>
       <path d="M 2547 1044 
L 2547 1747 
L 1806 1747 
Q 1378 1747 1168 1562 
Q 959 1378 959 997 
Q 959 650 1171 447 
Q 1384 244 1747 244 
Q 2106 244 2326 466 
Q 2547 688 2547 1044 
z
M 3122 2075 
L 3122 331 
L 3634 331 
L 3634 0 
L 2547 0 
L 2547 359 
Q 2356 128 2106 18 
Q 1856 -91 1522 -91 
Q 969 -91 644 203 
Q 319 497 319 997 
Q 319 1513 691 1797 
Q 1063 2081 1741 2081 
L 2547 2081 
L 2547 2309 
Q 2547 2688 2317 2895 
Q 2088 3103 1672 3103 
Q 1328 3103 1125 2947 
Q 922 2791 872 2484 
L 575 2484 
L 575 3156 
Q 875 3284 1158 3348 
Q 1441 3413 1709 3413 
Q 2400 3413 2761 3070 
Q 3122 2728 3122 2075 
z
" id="DejaVuSerif-430" transform="scale(0.015625)"/>
      </defs>
      <use xlink:href="#DejaVuSerif-418"/>
      <use x="87.207031" xlink:href="#DejaVuSerif-43d"/>
      <use x="153.857422" xlink:href="#DejaVuSerif-434"/>
      <use x="215.429688" xlink:href="#DejaVuSerif-435"/>
      <use x="274.609375" xlink:href="#DejaVuSerif-43a"/>
      <use x="337.109375" xlink:href="#DejaVuSerif-441"/>
      <use x="393.115234" xlink:href="#DejaVuSerif-20"/>
      <use x="424.902344" xlink:href="#DejaVuSerif-43e"/>
      <use x="485.107422" xlink:href="#DejaVuSerif-431"/>
      <use x="545.3125" xlink:href="#DejaVuSerif-44a"/>
      <use x="608.935547" xlink:href="#DejaVuSerif-435"/>
      <use x="668.115234" xlink:href="#DejaVuSerif-43a"/>
      <use x="730.615234" xlink:href="#DejaVuSerif-442"/>
      <use x="785.9375" xlink:href="#DejaVuSerif-430"/>
     </g>
    </g>
   </g>
   <g id="matplotlib.axis_2">
    <g id="ytick_1">
     <g id="line2d_7">
      <defs>
       <path d="M 0 0 
L -3.5 0 
" id="med074f6629" style="stroke:#000000;stroke-width:0.8;"/>
      </defs>
      <g>
       <use style="stroke:#000000;stroke-width:0.8;" x="90" xlink:href="#med074f6629" y="475.37651"/>
      </g>
     </g>
     <g id="text_8">
      <!-- 0.80 -->
      <g transform="translate(29.5625 484.494635)scale(0.24 -0.24)">
       <defs>
        <path d="M 603 325 
Q 603 500 722 622 
Q 841 744 1019 744 
Q 1191 744 1312 622 
Q 1434 500 1434 325 
Q 1434 153 1312 31 
Q 1191 -91 1019 -91 
Q 841 -91 722 29 
Q 603 150 603 325 
z
" id="DejaVuSerif-2e" transform="scale(0.015625)"/>
       </defs>
       <use xlink:href="#DejaVuSerif-30"/>
       <use x="63.623047" xlink:href="#DejaVuSerif-2e"/>
       <use x="95.410156" xlink:href="#DejaVuSerif-38"/>
       <use x="159.033203" xlink:href="#DejaVuSerif-30"/>
      </g>
     </g>
    </g>
    <g id="ytick_2">
     <g id="line2d_8">
      <g>
       <use style="stroke:#000000;stroke-width:0.8;" x="90" xlink:href="#med074f6629" y="378.754201"/>
      </g>
     </g>
     <g id="text_9">
      <!-- 0.85 -->
      <g transform="translate(29.5625 387.872326)scale(0.24 -0.24)">
       <defs>
        <path d="M 3219 4666 
L 3219 4153 
L 1081 4153 
L 1081 2816 
Q 1244 2928 1461 2984 
Q 1678 3041 1947 3041 
Q 2703 3041 3140 2622 
Q 3578 2203 3578 1478 
Q 3578 738 3136 323 
Q 2694 -91 1894 -91 
Q 1572 -91 1234 -12 
Q 897 66 544 225 
L 544 1131 
L 897 1131 
Q 925 688 1179 453 
Q 1434 219 1894 219 
Q 2388 219 2653 544 
Q 2919 869 2919 1478 
Q 2919 2084 2655 2407 
Q 2391 2731 1894 2731 
Q 1613 2731 1398 2631 
Q 1184 2531 1019 2322 
L 750 2322 
L 750 4666 
L 3219 4666 
z
" id="DejaVuSerif-35" transform="scale(0.015625)"/>
       </defs>
       <use xlink:href="#DejaVuSerif-30"/>
       <use x="63.623047" xlink:href="#DejaVuSerif-2e"/>
       <use x="95.410156" xlink:href="#DejaVuSerif-38"/>
       <use x="159.033203" xlink:href="#DejaVuSerif-35"/>
      </g>
     </g>
    </g>
    <g id="ytick_3">
     <g id="line2d_9">
      <g>
       <use style="stroke:#000000;stroke-width:0.8;" x="90" xlink:href="#med074f6629" y="282.131891"/>
      </g>
     </g>
     <g id="text_10">
      <!-- 0.90 -->
      <g transform="translate(29.5625 291.250016)scale(0.24 -0.24)">
       <defs>
        <path d="M 2994 2091 
Q 2784 1856 2512 1740 
Q 2241 1625 1900 1625 
Q 1206 1625 804 2044 
Q 403 2463 403 3188 
Q 403 3897 839 4323 
Q 1275 4750 2003 4750 
Q 2794 4750 3217 4161 
Q 3641 3572 3641 2478 
Q 3641 1253 3137 581 
Q 2634 -91 1722 -91 
Q 1475 -91 1203 -44 
Q 931 3 647 97 
L 647 872 
L 997 872 
Q 1038 556 1241 387 
Q 1444 219 1784 219 
Q 2391 219 2687 676 
Q 2984 1134 2994 2091 
z
M 1978 4441 
Q 1534 4441 1298 4117 
Q 1063 3794 1063 3188 
Q 1063 2581 1298 2256 
Q 1534 1931 1978 1931 
Q 2422 1931 2658 2245 
Q 2894 2559 2894 3150 
Q 2894 3772 2656 4106 
Q 2419 4441 1978 4441 
z
" id="DejaVuSerif-39" transform="scale(0.015625)"/>
       </defs>
       <use xlink:href="#DejaVuSerif-30"/>
       <use x="63.623047" xlink:href="#DejaVuSerif-2e"/>
       <use x="95.410156" xlink:href="#DejaVuSerif-39"/>
       <use x="159.033203" xlink:href="#DejaVuSerif-30"/>
      </g>
     </g>
    </g>
    <g id="ytick_4">
     <g id="line2d_10">
      <g>
       <use style="stroke:#000000;stroke-width:0.8;" x="90" xlink:href="#med074f6629" y="185.509582"/>
      </g>
     </g>
     <g id="text_11">
      <!-- 0.95 -->
      <g transform="translate(29.5625 194.627707)scale(0.24 -0.24)">
       <use xlink:href="#DejaVuSerif-30"/>
       <use x="63.623047" xlink:href="#DejaVuSerif-2e"/>
       <use x="95.410156" xlink:href="#DejaVuSerif-39"/>
       <use x="159.033203" xlink:href="#DejaVuSerif-35"/>
      </g>
     </g>
    </g>
    <g id="ytick_5">
     <g id="line2d_11">
      <g>
       <use style="stroke:#000000;stroke-width:0.8;" x="90" xlink:href="#med074f6629" y="88.887273"/>
      </g>
     </g>
     <g id="text_12">
      <!-- 1.00 -->
      <g transform="translate(29.5625 98.005398)scale(0.24 -0.24)">
       <use xlink:href="#DejaVuSerif-31"/>
       <use x="63.623047" xlink:href="#DejaVuSerif-2e"/>
       <use x="95.410156" xlink:href="#DejaVuSerif-30"/>
       <use x="159.033203" xlink:href="#DejaVuSerif-30"/>
      </g>
     </g>
    </g>
    <g id="text_13">
     <!-- Косинусное расстояние -->
     <g transform="translate(20.23 438.52125)rotate(-90)scale(0.24 -0.24)">
      <defs>
       <path d="M 353 4666 
L 2175 4666 
L 2175 4331 
L 1581 4331 
L 1581 2353 
L 3591 4331 
L 3084 4331 
L 3084 4666 
L 4634 4666 
L 4634 4331 
L 4109 4331 
L 2559 2806 
L 4347 331 
L 4878 331 
L 4878 0 
L 3056 0 
L 3056 331 
L 3556 331 
L 2103 2356 
L 1581 1844 
L 1581 331 
L 2175 331 
L 2175 0 
L 353 0 
L 353 331 
L 947 331 
L 947 4331 
L 353 4331 
L 353 4666 
z
" id="DejaVuSerif-41a" transform="scale(0.015625)"/>
       <path d="M 219 0 
L 219 331 
L 738 331 
L 738 2991 
L 219 2991 
L 219 3322 
L 1831 3322 
L 1831 2991 
L 1313 2991 
L 1313 1084 
L 2834 2694 
L 2834 2991 
L 2316 2991 
L 2316 3322 
L 3928 3322 
L 3928 2991 
L 3409 2991 
L 3409 331 
L 3928 331 
L 3928 0 
L 2316 0 
L 2316 331 
L 2834 331 
L 2834 2188 
L 1313 578 
L 1313 331 
L 1831 331 
L 1831 0 
L 219 0 
z
" id="DejaVuSerif-438" transform="scale(0.015625)"/>
       <path d="M 1475 -609 
L 1694 -56 
L 453 2988 
L 75 2988 
L 75 3322 
L 1603 3322 
L 1603 2988 
L 1072 2988 
L 2006 703 
L 2941 2988 
L 2444 2988 
L 2444 3322 
L 3691 3322 
L 3691 2988 
L 3319 2988 
L 1797 -750 
Q 1641 -1138 1450 -1280 
Q 1259 -1422 913 -1422 
Q 766 -1422 611 -1397 
Q 456 -1372 300 -1325 
L 300 -691 
L 594 -691 
Q 613 -903 702 -995 
Q 791 -1088 978 -1088 
Q 1150 -1088 1254 -992 
Q 1359 -897 1475 -609 
z
" id="DejaVuSerif-443" transform="scale(0.015625)"/>
       <path d="M 1313 1825 
L 1313 1497 
Q 1313 897 1542 583 
Q 1772 269 2209 269 
Q 2650 269 2876 622 
Q 3103 975 3103 1663 
Q 3103 2353 2876 2703 
Q 2650 3053 2209 3053 
Q 1772 3053 1542 2737 
Q 1313 2422 1313 1825 
z
M 738 2988 
L 184 2988 
L 184 3322 
L 1313 3322 
L 1313 2803 
Q 1481 3116 1742 3264 
Q 2003 3413 2388 3413 
Q 3000 3413 3387 2928 
Q 3775 2444 3775 1663 
Q 3775 881 3387 395 
Q 3000 -91 2388 -91 
Q 2003 -91 1742 57 
Q 1481 206 1313 519 
L 1313 -997 
L 1856 -997 
L 1856 -1331 
L 184 -1331 
L 184 -997 
L 738 -997 
L 738 2988 
z
" id="DejaVuSerif-440" transform="scale(0.015625)"/>
       <path d="M 2572 1866 
L 2572 2991 
L 1844 2991 
Q 1506 2991 1347 2834 
Q 1188 2678 1188 2431 
Q 1188 2184 1345 2025 
Q 1503 1866 1844 1866 
L 2572 1866 
z
M 3700 3322 
L 3700 2991 
L 3147 2991 
L 3147 331 
L 3666 331 
L 3666 0 
L 2072 0 
L 2072 331 
L 2572 331 
L 2572 1544 
L 2059 1544 
L 1100 0 
L 203 0 
L 203 331 
L 663 331 
L 1441 1584 
Q 1219 1644 894 1844 
Q 569 2044 569 2488 
Q 569 2859 833 3090 
Q 1097 3322 1581 3322 
L 3700 3322 
z
" id="DejaVuSerif-44f" transform="scale(0.015625)"/>
      </defs>
      <use xlink:href="#DejaVuSerif-41a"/>
      <use x="77.392578" xlink:href="#DejaVuSerif-43e"/>
      <use x="137.597656" xlink:href="#DejaVuSerif-441"/>
      <use x="193.603516" xlink:href="#DejaVuSerif-438"/>
      <use x="260.253906" xlink:href="#DejaVuSerif-43d"/>
      <use x="326.904297" xlink:href="#DejaVuSerif-443"/>
      <use x="385.742188" xlink:href="#DejaVuSerif-441"/>
      <use x="441.748047" xlink:href="#DejaVuSerif-43d"/>
      <use x="508.398438" xlink:href="#DejaVuSerif-43e"/>
      <use x="568.603516" xlink:href="#DejaVuSerif-435"/>
      <use x="627.783203" xlink:href="#DejaVuSerif-20"/>
      <use x="659.570312" xlink:href="#DejaVuSerif-440"/>
      <use x="723.583984" xlink:href="#DejaVuSerif-430"/>
      <use x="783.203125" xlink:href="#DejaVuSerif-441"/>
      <use x="839.208984" xlink:href="#DejaVuSerif-441"/>
      <use x="895.214844" xlink:href="#DejaVuSerif-442"/>
      <use x="950.537109" xlink:href="#DejaVuSerif-43e"/>
      <use x="1010.742188" xlink:href="#DejaVuSerif-44f"/>
      <use x="1073.828125" xlink:href="#DejaVuSerif-43d"/>
      <use x="1140.478516" xlink:href="#DejaVuSerif-438"/>
      <use x="1207.128906" xlink:href="#DejaVuSerif-435"/>
     </g>
    </g>
   </g>
   <g id="line2d_12">
    <path clip-path="url(#pba2e0b6fbb)" d="M 115.363636 88.887273 
L 157.001638 88.993153 
L 165.126126 89.050369 
L 237.230958 89.973104 
L 271.252252 91.007109 
L 276.330057 91.106826 
L 291.055692 91.609789 
L 292.071253 91.690664 
L 295.117936 91.759933 
L 297.149058 91.865814 
L 307.812449 92.329231 
L 310.859132 92.413049 
L 312.382473 92.486165 
L 314.921376 92.5518 
L 316.952498 92.812999 
L 320.506962 92.915987 
L 325.076986 93.078569 
L 327.108108 93.240995 
L 330.154791 93.339833 
L 331.170352 93.441551 
L 334.724816 93.685864 
L 337.263718 93.802238 
L 350.973792 94.547348 
L 351.481572 94.728246 
L 353.512695 94.891915 
L 359.606061 95.200541 
L 360.621622 95.31117 
L 361.637183 95.374386 
L 362.144963 95.513748 
L 363.668305 95.618496 
L 366.207207 95.816715 
L 371.792793 96.275184 
L 373.823915 96.380926 
L 375.347256 96.590414 
L 376.870598 96.659544 
L 377.378378 96.854503 
L 383.979525 97.33973 
L 384.995086 97.556783 
L 386.010647 97.672536 
L 386.518428 97.677542 
L 387.026208 97.827338 
L 390.580672 97.937723 
L 391.596233 98.242924 
L 393.119574 98.428058 
L 395.658477 98.510697 
L 396.674038 98.698699 
L 398.197379 98.860168 
L 398.70516 99.088382 
L 400.736282 99.232614 
L 401.751843 99.343031 
L 408.352989 99.803503 
L 409.36855 100.115377 
L 411.399672 100.304887 
L 412.923014 100.662734 
L 413.430794 100.663978 
L 413.938575 100.798462 
L 414.446355 100.808396 
L 415.969697 101.109811 
L 417.493038 101.30826 
L 420.539722 101.747774 
L 421.555283 101.906354 
L 422.570844 102.008885 
L 423.078624 102.238023 
L 424.094185 102.303336 
L 428.66421 102.893447 
L 429.17199 103.089793 
L 431.203112 103.170676 
L 432.218673 103.405979 
L 433.234234 103.507056 
L 433.742015 103.527151 
L 434.249795 103.806095 
L 436.280917 104.136184 
L 437.804259 104.352428 
L 439.3276 104.671078 
L 440.343161 104.983223 
L 442.374283 105.122388 
L 444.405405 105.527054 
L 444.913186 105.822774 
L 445.420966 105.963331 
L 446.436527 106.037051 
L 447.959869 106.188552 
L 448.467649 106.444917 
L 449.48321 106.576824 
L 449.990991 106.801825 
L 451.006552 106.889473 
L 452.529894 106.929118 
L 453.037674 107.242716 
L 453.545455 107.262108 
L 454.053235 107.964337 
L 455.068796 108.157312 
L 455.576577 108.34399 
L 456.084357 108.755195 
L 456.592138 108.896862 
L 457.607699 108.994079 
L 458.115479 109.308506 
L 460.146601 109.775264 
L 461.162162 109.880936 
L 461.669943 110.251854 
L 462.685504 110.313568 
L 463.193284 110.590361 
L 467.763309 111.254512 
L 468.77887 111.312013 
L 469.28665 111.474276 
L 470.302211 111.537103 
L 470.809992 112.234231 
L 472.841114 112.424183 
L 473.348894 112.880655 
L 474.872236 113.157618 
L 477.411138 114.71657 
L 477.918919 114.734378 
L 478.426699 115.151039 
L 480.457821 115.215385 
L 480.965602 115.443583 
L 481.981163 115.539294 
L 482.488943 115.600619 
L 483.504505 116.005877 
L 484.012285 116.086765 
L 485.535627 116.936443 
L 488.074529 117.73823 
L 489.09009 117.980632 
L 490.613432 118.127559 
L 491.121212 118.216102 
L 492.136773 118.616025 
L 492.644554 119.172943 
L 493.152334 119.273566 
L 493.660115 119.492799 
L 494.675676 119.587429 
L 495.183456 120.273145 
L 495.691237 120.384869 
L 496.199017 121.098255 
L 497.214578 121.178605 
L 498.230139 121.386608 
L 499.753481 121.72616 
L 500.769042 121.84602 
L 501.784603 122.321799 
L 502.800164 122.57659 
L 503.307944 122.705282 
L 503.815725 122.982064 
L 504.323505 122.985161 
L 504.831286 123.350386 
L 505.339066 123.350386 
L 505.846847 123.537038 
L 506.354627 124.018689 
L 506.862408 124.335822 
L 507.877969 124.670543 
L 508.385749 125.047661 
L 509.40131 126.525662 
L 509.909091 126.713599 
L 510.924652 126.889359 
L 511.940213 127.361254 
L 513.463554 128.14494 
L 513.971335 128.36078 
L 514.986896 128.478152 
L 515.494676 128.81022 
L 517.525799 129.21186 
L 518.033579 129.571694 
L 520.064701 129.772585 
L 520.572482 129.937411 
L 521.080262 130.255039 
L 521.588043 130.345466 
L 522.095823 130.951282 
L 524.126945 131.811231 
L 525.650287 134.755896 
L 526.158067 134.786998 
L 527.173628 134.987793 
L 528.189189 135.136748 
L 530.220311 135.840393 
L 530.728092 136.197947 
L 531.235872 136.231529 
L 532.251433 137.091767 
L 532.759214 137.814162 
L 533.266994 138.097544 
L 533.774775 138.780686 
L 534.282555 139.117391 
L 534.790336 140.261049 
L 535.298116 140.620795 
L 535.805897 140.77474 
L 536.821458 140.810594 
L 537.329238 141.076525 
L 537.837019 142.705904 
L 539.36036 142.799865 
L 539.868141 142.991876 
L 540.375921 143.461965 
L 541.391482 143.652366 
L 543.422604 144.420101 
L 544.438165 146.355201 
L 544.945946 146.641846 
L 545.453726 147.848719 
L 545.961507 147.920364 
L 546.469287 148.222802 
L 546.977068 148.752575 
L 547.484848 149.871082 
L 547.992629 150.306177 
L 548.50041 150.910224 
L 549.00819 151.82822 
L 549.515971 151.855637 
L 550.023751 152.552791 
L 551.547093 153.342775 
L 552.054873 154.256582 
L 552.562654 154.273517 
L 553.070434 154.872345 
L 554.593776 155.500574 
L 555.101556 156.188432 
L 555.609337 156.333805 
L 556.117117 157.632245 
L 556.624898 158.037741 
L 557.132678 158.671431 
L 557.640459 158.845367 
L 558.148239 160.698682 
L 560.179361 162.056755 
L 560.687142 162.650477 
L 561.194922 162.696368 
L 562.210483 163.390253 
L 562.718264 164.730965 
L 563.226044 165.097902 
L 563.733825 165.843276 
L 564.241605 167.580248 
L 565.257166 168.488387 
L 565.764947 170.744733 
L 566.272727 171.442966 
L 566.780508 172.457419 
L 567.288288 172.665998 
L 567.796069 174.602841 
L 568.303849 174.776362 
L 568.81163 175.175769 
L 569.827191 175.585843 
L 570.334971 176.073833 
L 570.842752 176.243146 
L 571.350532 177.613608 
L 571.858313 177.693154 
L 572.366093 178.330229 
L 573.381654 179.199816 
L 573.889435 180.405609 
L 574.397215 180.730882 
L 574.904996 181.73938 
L 575.412776 183.286278 
L 575.920557 187.606532 
L 576.936118 188.476614 
L 577.443898 188.708405 
L 578.459459 189.598961 
L 578.96724 189.923365 
L 579.47502 191.300777 
L 579.982801 193.795247 
L 580.490581 194.667606 
L 581.506143 195.166608 
L 582.013923 196.141034 
L 582.521704 197.930993 
L 583.029484 198.033616 
L 583.537265 198.269674 
L 584.045045 198.309851 
L 584.552826 199.434939 
L 585.060606 200.051882 
L 585.568387 200.219556 
L 586.076167 200.219556 
L 586.583948 202.224993 
L 587.091728 202.317994 
L 587.599509 203.660587 
L 588.107289 205.438789 
L 588.61507 205.765325 
L 589.12285 207.023248 
L 590.646192 209.421626 
L 591.153972 210.713836 
L 591.661753 211.461536 
L 592.169533 216.618479 
L 592.677314 216.89351 
L 593.185094 217.515817 
L 593.692875 218.679542 
L 594.200655 219.074617 
L 595.216216 220.443875 
L 595.723997 222.58422 
L 596.231777 222.825049 
L 596.739558 223.562289 
L 597.247338 223.854127 
L 598.262899 226.073876 
L 599.27846 228.926259 
L 600.801802 239.177844 
L 601.309582 244.845346 
L 601.817363 248.611371 
L 602.325143 256.778569 
L 602.832924 259.624705 
L 603.340704 260.81254 
L 603.848485 261.548698 
L 604.356265 266.17456 
L 604.864046 267.95979 
L 605.371826 268.149703 
L 605.879607 268.586679 
L 606.387387 268.736953 
L 606.895168 269.269893 
L 607.402948 272.555475 
L 608.418509 274.043868 
L 608.92629 275.38293 
L 609.43407 280.161104 
L 609.941851 281.960231 
L 610.449631 286.736877 
L 610.957412 287.273058 
L 611.465192 301.701165 
L 611.972973 301.839544 
L 612.480753 304.118834 
L 612.988534 304.19373 
L 613.496314 307.819314 
L 614.004095 308.763958 
L 614.511876 318.924504 
L 615.019656 320.542018 
L 615.527437 322.893464 
L 616.035217 329.249477 
L 616.542998 330.18261 
L 617.050778 334.434405 
L 617.558559 343.429519 
L 618.066339 343.776944 
L 618.57412 358.769563 
L 619.0819 369.681325 
L 619.589681 370.864288 
L 620.097461 371.571952 
L 620.605242 388.031146 
L 621.113022 415.739058 
L 621.620803 430.019644 
L 622.128583 430.342347 
L 622.636364 484.232727 
L 622.636364 484.232727 
" style="fill:none;stroke:#1f77b4;stroke-linecap:square;stroke-width:2;"/>
   </g>
   <g id="patch_3">
    <path d="M 90 504 
L 90 69.12 
" style="fill:none;stroke:#000000;stroke-linecap:square;stroke-linejoin:miter;stroke-width:0.8;"/>
   </g>
   <g id="patch_4">
    <path d="M 648 504 
L 648 69.12 
" style="fill:none;stroke:#000000;stroke-linecap:square;stroke-linejoin:miter;stroke-width:0.8;"/>
   </g>
   <g id="patch_5">
    <path d="M 90 504 
L 648 504 
" style="fill:none;stroke:#000000;stroke-linecap:square;stroke-linejoin:miter;stroke-width:0.8;"/>
   </g>
   <g id="patch_6">
    <path d="M 90 69.12 
L 648 69.12 
" style="fill:none;stroke:#000000;stroke-linecap:square;stroke-linejoin:miter;stroke-width:0.8;"/>
   </g>
   <g id="legend_1">
    <g id="patch_7">
     <path d="M 106.8 492 
L 251.11125 492 
Q 255.91125 492 255.91125 487.2 
L 255.91125 454.3725 
Q 255.91125 449.5725 251.11125 449.5725 
L 106.8 449.5725 
Q 102 449.5725 102 454.3725 
L 102 487.2 
Q 102 492 106.8 492 
z
" style="fill:#ffffff;opacity:0.8;stroke:#cccccc;stroke-linejoin:miter;"/>
    </g>
    <g id="line2d_13">
     <path d="M 111.6 469.00875 
L 159.6 469.00875 
" style="fill:none;stroke:#1f77b4;stroke-linecap:square;stroke-width:2;"/>
    </g>
    <g id="line2d_14"/>
    <g id="text_14">
     <!-- LIME -->
     <g transform="translate(178.8 477.40875)scale(0.24 -0.24)">
      <defs>
       <path d="M 353 0 
L 353 331 
L 947 331 
L 947 4331 
L 353 4331 
L 353 4666 
L 2175 4666 
L 2175 4331 
L 1581 4331 
L 1581 384 
L 3713 384 
L 3713 1166 
L 4097 1166 
L 4097 0 
L 353 0 
z
" id="DejaVuSerif-4c" transform="scale(0.015625)"/>
       <path d="M 1581 331 
L 2175 331 
L 2175 0 
L 353 0 
L 353 331 
L 947 331 
L 947 4331 
L 353 4331 
L 353 4666 
L 2175 4666 
L 2175 4331 
L 1581 4331 
L 1581 331 
z
" id="DejaVuSerif-49" transform="scale(0.015625)"/>
       <path d="M 353 0 
L 353 331 
L 947 331 
L 947 4331 
L 319 4331 
L 319 4666 
L 1678 4666 
L 3316 1344 
L 4953 4666 
L 6228 4666 
L 6228 4331 
L 5606 4331 
L 5606 331 
L 6203 331 
L 6203 0 
L 4378 0 
L 4378 331 
L 4972 331 
L 4972 3938 
L 3372 684 
L 2931 684 
L 1331 3938 
L 1331 331 
L 1925 331 
L 1925 0 
L 353 0 
z
" id="DejaVuSerif-4d" transform="scale(0.015625)"/>
       <path d="M 353 0 
L 353 331 
L 947 331 
L 947 4331 
L 353 4331 
L 353 4666 
L 4109 4666 
L 4109 3628 
L 3725 3628 
L 3725 4281 
L 1581 4281 
L 1581 2719 
L 3109 2719 
L 3109 3303 
L 3494 3303 
L 3494 1753 
L 3109 1753 
L 3109 2338 
L 1581 2338 
L 1581 384 
L 3775 384 
L 3775 1038 
L 4159 1038 
L 4159 0 
L 353 0 
z
" id="DejaVuSerif-45" transform="scale(0.015625)"/>
      </defs>
      <use xlink:href="#DejaVuSerif-4c"/>
      <use x="66.40625" xlink:href="#DejaVuSerif-49"/>
      <use x="105.908203" xlink:href="#DejaVuSerif-4d"/>
      <use x="208.300781" xlink:href="#DejaVuSerif-45"/>
     </g>
    </g>
   </g>
  </g>
 </g>
 <defs>
  <clipPath id="pba2e0b6fbb">
   <rect height="434.88" width="558" x="90" y="69.12"/>
  </clipPath>
 </defs>
</svg>
