<?xml version="1.0" encoding="utf-8" standalone="no"?>
<!DOCTYPE svg PUBLIC "-//W3C//DTD SVG 1.1//EN"
  "http://www.w3.org/Graphics/SVG/1.1/DTD/svg11.dtd">
<svg xmlns:xlink="http://www.w3.org/1999/xlink" width="720pt" height="576pt" viewBox="0 0 720 576" xmlns="http://www.w3.org/2000/svg" version="1.1">
 <metadata>
  <rdf:RDF xmlns:dc="http://purl.org/dc/elements/1.1/" xmlns:cc="http://creativecommons.org/ns#" xmlns:rdf="http://www.w3.org/1999/02/22-rdf-syntax-ns#">
   <cc:Work>
    <dc:type rdf:resource="http://purl.org/dc/dcmitype/StillImage"/>
    <dc:date>2022-04-27T19:15:26.984853</dc:date>
    <dc:format>image/svg+xml</dc:format>
    <dc:creator>
     <cc:Agent>
      <dc:title>Matplotlib v3.5.1, https://matplotlib.org/</dc:title>
     </cc:Agent>
    </dc:creator>
   </cc:Work>
  </rdf:RDF>
 </metadata>
 <defs>
  <style type="text/css">*{stroke-linejoin: round; stroke-linecap: butt}</style>
 </defs>
 <g id="figure_1">
  <g id="patch_1">
   <path d="M 0 576 
L 720 576 
L 720 0 
L 0 0 
L 0 576 
z
" style="fill: none"/>
  </g>
  <g id="axes_1">
   <g id="patch_2">
    <path d="M 90 504 
L 648 504 
L 648 69.12 
L 90 69.12 
z
" style="fill: #ffffff"/>
   </g>
   <g id="matplotlib.axis_1">
    <g id="xtick_1">
     <g id="line2d_1">
      <path d="M 115.363636 504 
L 115.363636 69.12 
" clip-path="url(#p2235f92778)" style="fill: none; stroke: #cccccc; stroke-linecap: round"/>
     </g>
     <g id="text_1">
      <!-- 0 -->
      <g style="fill: #262626" transform="translate(106.188089 537.120781)scale(0.33 -0.33)">
       <defs>
        <path id="ArialMT-30" d="M 266 2259 
Q 266 3072 433 3567 
Q 600 4063 929 4331 
Q 1259 4600 1759 4600 
Q 2128 4600 2406 4451 
Q 2684 4303 2865 4023 
Q 3047 3744 3150 3342 
Q 3253 2941 3253 2259 
Q 3253 1453 3087 958 
Q 2922 463 2592 192 
Q 2263 -78 1759 -78 
Q 1097 -78 719 397 
Q 266 969 266 2259 
z
M 844 2259 
Q 844 1131 1108 757 
Q 1372 384 1759 384 
Q 2147 384 2411 759 
Q 2675 1134 2675 2259 
Q 2675 3391 2411 3762 
Q 2147 4134 1753 4134 
Q 1366 4134 1134 3806 
Q 844 3388 844 2259 
z
" transform="scale(0.015625)"/>
       </defs>
       <use xlink:href="#ArialMT-30"/>
      </g>
     </g>
    </g>
    <g id="xtick_2">
     <g id="line2d_2">
      <path d="M 242.308763 504 
L 242.308763 69.12 
" clip-path="url(#p2235f92778)" style="fill: none; stroke: #cccccc; stroke-linecap: round"/>
     </g>
     <g id="text_2">
      <!-- 250 -->
      <g style="fill: #262626" transform="translate(214.782123 537.120781)scale(0.33 -0.33)">
       <defs>
        <path id="ArialMT-32" d="M 3222 541 
L 3222 0 
L 194 0 
Q 188 203 259 391 
Q 375 700 629 1000 
Q 884 1300 1366 1694 
Q 2113 2306 2375 2664 
Q 2638 3022 2638 3341 
Q 2638 3675 2398 3904 
Q 2159 4134 1775 4134 
Q 1369 4134 1125 3890 
Q 881 3647 878 3216 
L 300 3275 
Q 359 3922 746 4261 
Q 1134 4600 1788 4600 
Q 2447 4600 2831 4234 
Q 3216 3869 3216 3328 
Q 3216 3053 3103 2787 
Q 2991 2522 2730 2228 
Q 2469 1934 1863 1422 
Q 1356 997 1212 845 
Q 1069 694 975 541 
L 3222 541 
z
" transform="scale(0.015625)"/>
        <path id="ArialMT-35" d="M 266 1200 
L 856 1250 
Q 922 819 1161 601 
Q 1400 384 1738 384 
Q 2144 384 2425 690 
Q 2706 997 2706 1503 
Q 2706 1984 2436 2262 
Q 2166 2541 1728 2541 
Q 1456 2541 1237 2417 
Q 1019 2294 894 2097 
L 366 2166 
L 809 4519 
L 3088 4519 
L 3088 3981 
L 1259 3981 
L 1013 2750 
Q 1425 3038 1878 3038 
Q 2478 3038 2890 2622 
Q 3303 2206 3303 1553 
Q 3303 931 2941 478 
Q 2500 -78 1738 -78 
Q 1113 -78 717 272 
Q 322 622 266 1200 
z
" transform="scale(0.015625)"/>
       </defs>
       <use xlink:href="#ArialMT-32"/>
       <use xlink:href="#ArialMT-35" x="55.615234"/>
       <use xlink:href="#ArialMT-30" x="111.230469"/>
      </g>
     </g>
    </g>
    <g id="xtick_3">
     <g id="line2d_3">
      <path d="M 369.25389 504 
L 369.25389 69.12 
" clip-path="url(#p2235f92778)" style="fill: none; stroke: #cccccc; stroke-linecap: round"/>
     </g>
     <g id="text_3">
      <!-- 500 -->
      <g style="fill: #262626" transform="translate(341.72725 537.120781)scale(0.33 -0.33)">
       <use xlink:href="#ArialMT-35"/>
       <use xlink:href="#ArialMT-30" x="55.615234"/>
       <use xlink:href="#ArialMT-30" x="111.230469"/>
      </g>
     </g>
    </g>
    <g id="xtick_4">
     <g id="line2d_4">
      <path d="M 496.199017 504 
L 496.199017 69.12 
" clip-path="url(#p2235f92778)" style="fill: none; stroke: #cccccc; stroke-linecap: round"/>
     </g>
     <g id="text_4">
      <!-- 750 -->
      <g style="fill: #262626" transform="translate(468.672377 537.120781)scale(0.33 -0.33)">
       <defs>
        <path id="ArialMT-37" d="M 303 3981 
L 303 4522 
L 3269 4522 
L 3269 4084 
Q 2831 3619 2401 2847 
Q 1972 2075 1738 1259 
Q 1569 684 1522 0 
L 944 0 
Q 953 541 1156 1306 
Q 1359 2072 1739 2783 
Q 2119 3494 2547 3981 
L 303 3981 
z
" transform="scale(0.015625)"/>
       </defs>
       <use xlink:href="#ArialMT-37"/>
       <use xlink:href="#ArialMT-35" x="55.615234"/>
       <use xlink:href="#ArialMT-30" x="111.230469"/>
      </g>
     </g>
    </g>
    <g id="xtick_5">
     <g id="line2d_5">
      <path d="M 623.144144 504 
L 623.144144 69.12 
" clip-path="url(#p2235f92778)" style="fill: none; stroke: #cccccc; stroke-linecap: round"/>
     </g>
     <g id="text_5">
      <!-- 1000 -->
      <g style="fill: #262626" transform="translate(586.441957 537.120781)scale(0.33 -0.33)">
       <defs>
        <path id="ArialMT-31" d="M 2384 0 
L 1822 0 
L 1822 3584 
Q 1619 3391 1289 3197 
Q 959 3003 697 2906 
L 697 3450 
Q 1169 3672 1522 3987 
Q 1875 4303 2022 4600 
L 2384 4600 
L 2384 0 
z
" transform="scale(0.015625)"/>
       </defs>
       <use xlink:href="#ArialMT-31"/>
       <use xlink:href="#ArialMT-30" x="55.615234"/>
       <use xlink:href="#ArialMT-30" x="111.230469"/>
       <use xlink:href="#ArialMT-30" x="166.845703"/>
      </g>
     </g>
    </g>
    <g id="text_6">
     <!-- Индекс объекта -->
     <g style="fill: #262626" transform="translate(236.432813 573.447656)scale(0.36 -0.36)">
      <defs>
       <path id="ArialMT-418" d="M 503 4581 
L 1053 4581 
L 1053 953 
L 3491 4581 
L 4100 4581 
L 4100 0 
L 3550 0 
L 3550 3619 
L 1109 0 
L 503 0 
L 503 4581 
z
" transform="scale(0.015625)"/>
       <path id="ArialMT-43d" d="M 425 3319 
L 988 3319 
L 988 1938 
L 2547 1938 
L 2547 3319 
L 3109 3319 
L 3109 0 
L 2547 0 
L 2547 1472 
L 988 1472 
L 988 0 
L 425 0 
L 425 3319 
z
" transform="scale(0.015625)"/>
       <path id="ArialMT-434" d="M 866 3319 
L 3178 3319 
L 3178 463 
L 3538 463 
L 3538 -941 
L 3075 -941 
L 3075 0 
L 463 0 
L 463 -941 
L 0 -941 
L 0 463 
L 297 463 
Q 891 1269 866 3319 
z
M 1334 2853 
Q 1272 1238 834 463 
L 2619 463 
L 2619 2853 
L 1334 2853 
z
" transform="scale(0.015625)"/>
       <path id="ArialMT-435" d="M 2694 1069 
L 3275 997 
Q 3138 488 2766 206 
Q 2394 -75 1816 -75 
Q 1088 -75 661 373 
Q 234 822 234 1631 
Q 234 2469 665 2931 
Q 1097 3394 1784 3394 
Q 2450 3394 2872 2941 
Q 3294 2488 3294 1666 
Q 3294 1616 3291 1516 
L 816 1516 
Q 847 969 1125 678 
Q 1403 388 1819 388 
Q 2128 388 2347 550 
Q 2566 713 2694 1069 
z
M 847 1978 
L 2700 1978 
Q 2663 2397 2488 2606 
Q 2219 2931 1791 2931 
Q 1403 2931 1139 2672 
Q 875 2413 847 1978 
z
" transform="scale(0.015625)"/>
       <path id="ArialMT-43a" d="M 419 3319 
L 981 3319 
L 981 1884 
Q 1250 1884 1358 1987 
Q 1466 2091 1675 2588 
Q 1841 2981 1944 3106 
Q 2047 3231 2181 3275 
Q 2316 3319 2613 3319 
L 2725 3319 
L 2725 2853 
L 2569 2856 
Q 2347 2856 2284 2791 
Q 2219 2722 2084 2381 
Q 1956 2056 1850 1931 
Q 1744 1806 1522 1703 
Q 1884 1606 2234 1028 
L 2850 0 
L 2231 0 
L 1631 1028 
Q 1447 1338 1309 1436 
Q 1172 1534 981 1534 
L 981 0 
L 419 0 
L 419 3319 
z
" transform="scale(0.015625)"/>
       <path id="ArialMT-441" d="M 2588 1216 
L 3141 1144 
Q 3050 572 2676 248 
Q 2303 -75 1759 -75 
Q 1078 -75 664 370 
Q 250 816 250 1647 
Q 250 2184 428 2587 
Q 606 2991 970 3192 
Q 1334 3394 1763 3394 
Q 2303 3394 2647 3120 
Q 2991 2847 3088 2344 
L 2541 2259 
Q 2463 2594 2264 2762 
Q 2066 2931 1784 2931 
Q 1359 2931 1093 2626 
Q 828 2322 828 1663 
Q 828 994 1084 691 
Q 1341 388 1753 388 
Q 2084 388 2306 591 
Q 2528 794 2588 1216 
z
" transform="scale(0.015625)"/>
       <path id="ArialMT-20" transform="scale(0.015625)"/>
       <path id="ArialMT-43e" d="M 213 1659 
Q 213 2581 725 3025 
Q 1153 3394 1769 3394 
Q 2453 3394 2887 2945 
Q 3322 2497 3322 1706 
Q 3322 1066 3130 698 
Q 2938 331 2570 128 
Q 2203 -75 1769 -75 
Q 1072 -75 642 372 
Q 213 819 213 1659 
z
M 791 1659 
Q 791 1022 1069 705 
Q 1347 388 1769 388 
Q 2188 388 2466 706 
Q 2744 1025 2744 1678 
Q 2744 2294 2464 2611 
Q 2184 2928 1769 2928 
Q 1347 2928 1069 2612 
Q 791 2297 791 1659 
z
" transform="scale(0.015625)"/>
       <path id="ArialMT-431" d="M 2853 4691 
L 3350 4684 
Q 3316 4350 3202 4219 
Q 3088 4088 2908 4050 
Q 2728 4013 2203 4013 
Q 1506 4013 1253 3878 
Q 1000 3744 889 3448 
Q 778 3153 766 2688 
Q 978 3003 1262 3161 
Q 1547 3319 1903 3319 
Q 2556 3319 2984 2870 
Q 3413 2422 3413 1656 
Q 3413 1075 3197 703 
Q 2981 331 2686 128 
Q 2391 -75 1881 -75 
Q 1291 -75 962 195 
Q 634 466 459 887 
Q 284 1309 284 2356 
Q 284 3672 729 4128 
Q 1175 4584 2100 4584 
Q 2675 4584 2753 4603 
Q 2831 4622 2853 4691 
z
M 2825 1672 
Q 2825 2191 2579 2522 
Q 2334 2853 1888 2853 
Q 1422 2853 1169 2503 
Q 916 2153 916 1569 
Q 916 991 1195 684 
Q 1475 378 1884 378 
Q 2303 378 2564 733 
Q 2825 1088 2825 1672 
z
" transform="scale(0.015625)"/>
       <path id="ArialMT-44a" d="M 125 3319 
L 1609 3319 
L 1609 2022 
L 2325 2022 
Q 3084 2022 3428 1726 
Q 3772 1431 3772 1003 
Q 3772 559 3439 279 
Q 3106 0 2456 0 
L 1047 0 
L 1047 2853 
L 125 2853 
L 125 3319 
z
M 1609 456 
L 2200 456 
Q 2738 456 2963 586 
Q 3188 716 3188 1003 
Q 3188 1266 2995 1409 
Q 2803 1553 2275 1553 
L 1609 1553 
L 1609 456 
z
" transform="scale(0.015625)"/>
       <path id="ArialMT-442" d="M 119 3319 
L 2816 3319 
L 2816 2853 
L 1747 2853 
L 1747 0 
L 1188 0 
L 1188 2853 
L 119 2853 
L 119 3319 
z
" transform="scale(0.015625)"/>
       <path id="ArialMT-430" d="M 2588 409 
Q 2275 144 1986 34 
Q 1697 -75 1366 -75 
Q 819 -75 525 192 
Q 231 459 231 875 
Q 231 1119 342 1320 
Q 453 1522 633 1644 
Q 813 1766 1038 1828 
Q 1203 1872 1538 1913 
Q 2219 1994 2541 2106 
Q 2544 2222 2544 2253 
Q 2544 2597 2384 2738 
Q 2169 2928 1744 2928 
Q 1347 2928 1158 2789 
Q 969 2650 878 2297 
L 328 2372 
Q 403 2725 575 2942 
Q 747 3159 1072 3276 
Q 1397 3394 1825 3394 
Q 2250 3394 2515 3294 
Q 2781 3194 2906 3042 
Q 3031 2891 3081 2659 
Q 3109 2516 3109 2141 
L 3109 1391 
Q 3109 606 3145 398 
Q 3181 191 3288 0 
L 2700 0 
Q 2613 175 2588 409 
z
M 2541 1666 
Q 2234 1541 1622 1453 
Q 1275 1403 1131 1340 
Q 988 1278 909 1158 
Q 831 1038 831 891 
Q 831 666 1001 516 
Q 1172 366 1500 366 
Q 1825 366 2078 508 
Q 2331 650 2450 897 
Q 2541 1088 2541 1459 
L 2541 1666 
z
" transform="scale(0.015625)"/>
      </defs>
      <use xlink:href="#ArialMT-418"/>
      <use xlink:href="#ArialMT-43d" x="71.875"/>
      <use xlink:href="#ArialMT-434" x="127.099609"/>
      <use xlink:href="#ArialMT-435" x="185.449219"/>
      <use xlink:href="#ArialMT-43a" x="241.064453"/>
      <use xlink:href="#ArialMT-441" x="285.939453"/>
      <use xlink:href="#ArialMT-20" x="335.939453"/>
      <use xlink:href="#ArialMT-43e" x="363.722656"/>
      <use xlink:href="#ArialMT-431" x="419.337891"/>
      <use xlink:href="#ArialMT-44a" x="473.238281"/>
      <use xlink:href="#ArialMT-435" x="535.738281"/>
      <use xlink:href="#ArialMT-43a" x="591.353516"/>
      <use xlink:href="#ArialMT-442" x="636.228516"/>
      <use xlink:href="#ArialMT-430" x="680.904297"/>
     </g>
    </g>
   </g>
   <g id="matplotlib.axis_2">
    <g id="ytick_1">
     <g id="line2d_6">
      <path d="M 90 485.665504 
L 648 485.665504 
" clip-path="url(#p2235f92778)" style="fill: none; stroke: #cccccc; stroke-linecap: round"/>
     </g>
     <g id="text_7">
      <!-- 0.2 -->
      <g style="fill: #262626" transform="translate(34.63 497.475894)scale(0.33 -0.33)">
       <defs>
        <path id="ArialMT-2e" d="M 581 0 
L 581 641 
L 1222 641 
L 1222 0 
L 581 0 
z
" transform="scale(0.015625)"/>
       </defs>
       <use xlink:href="#ArialMT-30"/>
       <use xlink:href="#ArialMT-2e" x="55.615234"/>
       <use xlink:href="#ArialMT-32" x="83.398438"/>
      </g>
     </g>
    </g>
    <g id="ytick_2">
     <g id="line2d_7">
      <path d="M 90 357.812474 
L 648 357.812474 
" clip-path="url(#p2235f92778)" style="fill: none; stroke: #cccccc; stroke-linecap: round"/>
     </g>
     <g id="text_8">
      <!-- 0.4 -->
      <g style="fill: #262626" transform="translate(34.63 369.622864)scale(0.33 -0.33)">
       <defs>
        <path id="ArialMT-34" d="M 2069 0 
L 2069 1097 
L 81 1097 
L 81 1613 
L 2172 4581 
L 2631 4581 
L 2631 1613 
L 3250 1613 
L 3250 1097 
L 2631 1097 
L 2631 0 
L 2069 0 
z
M 2069 1613 
L 2069 3678 
L 634 1613 
L 2069 1613 
z
" transform="scale(0.015625)"/>
       </defs>
       <use xlink:href="#ArialMT-30"/>
       <use xlink:href="#ArialMT-2e" x="55.615234"/>
       <use xlink:href="#ArialMT-34" x="83.398438"/>
      </g>
     </g>
    </g>
    <g id="ytick_3">
     <g id="line2d_8">
      <path d="M 90 229.959444 
L 648 229.959444 
" clip-path="url(#p2235f92778)" style="fill: none; stroke: #cccccc; stroke-linecap: round"/>
     </g>
     <g id="text_9">
      <!-- 0.6 -->
      <g style="fill: #262626" transform="translate(34.63 241.769834)scale(0.33 -0.33)">
       <defs>
        <path id="ArialMT-36" d="M 3184 3459 
L 2625 3416 
Q 2550 3747 2413 3897 
Q 2184 4138 1850 4138 
Q 1581 4138 1378 3988 
Q 1113 3794 959 3422 
Q 806 3050 800 2363 
Q 1003 2672 1297 2822 
Q 1591 2972 1913 2972 
Q 2475 2972 2870 2558 
Q 3266 2144 3266 1488 
Q 3266 1056 3080 686 
Q 2894 316 2569 119 
Q 2244 -78 1831 -78 
Q 1128 -78 684 439 
Q 241 956 241 2144 
Q 241 3472 731 4075 
Q 1159 4600 1884 4600 
Q 2425 4600 2770 4297 
Q 3116 3994 3184 3459 
z
M 888 1484 
Q 888 1194 1011 928 
Q 1134 663 1356 523 
Q 1578 384 1822 384 
Q 2178 384 2434 671 
Q 2691 959 2691 1453 
Q 2691 1928 2437 2201 
Q 2184 2475 1800 2475 
Q 1419 2475 1153 2201 
Q 888 1928 888 1484 
z
" transform="scale(0.015625)"/>
       </defs>
       <use xlink:href="#ArialMT-30"/>
       <use xlink:href="#ArialMT-2e" x="55.615234"/>
       <use xlink:href="#ArialMT-36" x="83.398438"/>
      </g>
     </g>
    </g>
    <g id="ytick_4">
     <g id="line2d_9">
      <path d="M 90 102.106414 
L 648 102.106414 
" clip-path="url(#p2235f92778)" style="fill: none; stroke: #cccccc; stroke-linecap: round"/>
     </g>
     <g id="text_10">
      <!-- 0.8 -->
      <g style="fill: #262626" transform="translate(34.63 113.916804)scale(0.33 -0.33)">
       <defs>
        <path id="ArialMT-38" d="M 1131 2484 
Q 781 2613 612 2850 
Q 444 3088 444 3419 
Q 444 3919 803 4259 
Q 1163 4600 1759 4600 
Q 2359 4600 2725 4251 
Q 3091 3903 3091 3403 
Q 3091 3084 2923 2848 
Q 2756 2613 2416 2484 
Q 2838 2347 3058 2040 
Q 3278 1734 3278 1309 
Q 3278 722 2862 322 
Q 2447 -78 1769 -78 
Q 1091 -78 675 323 
Q 259 725 259 1325 
Q 259 1772 486 2073 
Q 713 2375 1131 2484 
z
M 1019 3438 
Q 1019 3113 1228 2906 
Q 1438 2700 1772 2700 
Q 2097 2700 2305 2904 
Q 2513 3109 2513 3406 
Q 2513 3716 2298 3927 
Q 2084 4138 1766 4138 
Q 1444 4138 1231 3931 
Q 1019 3725 1019 3438 
z
M 838 1322 
Q 838 1081 952 856 
Q 1066 631 1291 507 
Q 1516 384 1775 384 
Q 2178 384 2440 643 
Q 2703 903 2703 1303 
Q 2703 1709 2433 1975 
Q 2163 2241 1756 2241 
Q 1359 2241 1098 1978 
Q 838 1716 838 1322 
z
" transform="scale(0.015625)"/>
       </defs>
       <use xlink:href="#ArialMT-30"/>
       <use xlink:href="#ArialMT-2e" x="55.615234"/>
       <use xlink:href="#ArialMT-38" x="83.398438"/>
      </g>
     </g>
    </g>
   </g>
   <g id="line2d_10">
    <path d="M 115.363636 88.887273 
L 115.871417 105.372458 
L 116.379197 111.456315 
L 116.886978 162.150719 
L 117.394758 123.026648 
L 117.902539 124.786938 
L 118.410319 117.060758 
L 118.9181 128.793792 
L 119.42588 128.972496 
L 119.933661 118.95521 
L 120.441441 129.685558 
L 120.949222 130.580792 
L 121.457002 132.153615 
L 121.964783 134.130751 
L 122.472563 133.461202 
L 122.980344 134.631122 
L 123.488124 134.85494 
L 123.995905 139.007538 
L 124.503686 139.086259 
L 125.011466 140.489179 
L 125.519247 140.630161 
L 126.027027 141.333851 
L 127.042588 141.551953 
L 127.550369 142.729608 
L 128.058149 143.507408 
L 128.56593 143.704668 
L 129.07371 144.571249 
L 129.581491 144.573535 
L 130.089271 145.782777 
L 131.104832 146.875576 
L 131.612613 146.971672 
L 132.120393 147.193013 
L 132.628174 191.978568 
L 133.135954 148.508907 
L 133.643735 148.92747 
L 134.151515 150.493282 
L 134.659296 150.694581 
L 135.167076 152.080774 
L 135.674857 152.481124 
L 136.182637 152.690425 
L 136.690418 153.316079 
L 137.198198 153.344847 
L 137.705979 153.824909 
L 138.72154 154.33492 
L 139.22932 155.939635 
L 140.244881 156.074558 
L 141.260442 157.210528 
L 141.768223 157.559324 
L 142.276003 158.917588 
L 142.783784 159.23815 
L 143.291564 159.370406 
L 143.799345 325.874543 
L 144.307125 160.561473 
L 144.814906 161.117208 
L 145.322686 161.312792 
L 145.830467 161.929758 
L 146.846028 162.323364 
L 147.353808 162.462631 
L 147.861589 163.605155 
L 149.38493 164.316541 
L 150.400491 165.045607 
L 150.908272 166.571334 
L 151.416052 167.083365 
L 151.923833 167.326234 
L 152.431613 159.000653 
L 152.939394 167.745179 
L 154.462735 168.877224 
L 154.970516 168.982198 
L 155.986077 169.580151 
L 156.493857 169.808275 
L 157.001638 213.134782 
L 157.509419 142.762948 
L 158.017199 173.966131 
L 158.52498 171.322419 
L 159.03276 172.371971 
L 160.048321 173.198162 
L 160.556102 173.231388 
L 161.571663 174.020924 
L 162.079443 174.638957 
L 164.110565 175.0065 
L 164.618346 322.023723 
L 165.126126 175.380407 
L 166.141687 175.520169 
L 166.649468 170.574606 
L 167.157248 176.412202 
L 168.172809 176.576961 
L 168.68059 177.030731 
L 169.696151 177.060452 
L 170.203931 177.348054 
L 170.711712 184.220038 
L 171.219492 177.576902 
L 172.742834 178.119377 
L 173.250614 178.126121 
L 174.266175 179.68877 
L 174.773956 179.857225 
L 175.789517 180.728492 
L 176.805078 180.873779 
L 177.820639 182.327987 
L 178.328419 182.570361 
L 178.8362 183.686746 
L 179.34398 184.185783 
L 179.851761 185.289708 
L 180.359541 185.643191 
L 180.867322 185.824639 
L 181.375102 186.165433 
L 182.390663 186.35252 
L 182.898444 186.355949 
L 183.406224 186.473345 
L 183.914005 186.924906 
L 184.421785 187.645018 
L 184.929566 187.725911 
L 185.437346 188.839666 
L 185.945127 188.895183 
L 186.452907 189.520341 
L 186.960688 194.236676 
L 187.468468 190.618932 
L 187.976249 190.788567 
L 188.484029 191.417765 
L 188.99181 191.507384 
L 189.49959 192.061213 
L 190.515152 192.449523 
L 191.022932 192.654442 
L 191.530713 193.111565 
L 192.038493 193.968849 
L 192.546274 273.081741 
L 193.054054 194.22273 
L 193.561835 194.342984 
L 194.069615 242.262409 
L 194.577396 195.3121 
L 195.085176 195.400385 
L 196.100737 197.04366 
L 196.608518 199.562547 
L 197.624079 199.843901 
L 199.14742 201.081568 
L 199.655201 201.392337 
L 200.162981 201.511715 
L 200.670762 201.780037 
L 201.178542 183.826927 
L 201.686323 203.032222 
L 203.717445 203.876359 
L 204.225225 289.574318 
L 204.733006 204.620362 
L 205.240786 205.019454 
L 205.748567 205.112464 
L 206.256347 205.338607 
L 206.764128 206.60508 
L 207.271908 206.75353 
L 207.779689 207.128198 
L 208.287469 208.172301 
L 208.79525 208.59117 
L 209.30303 208.666804 
L 209.810811 208.864522 
L 210.318591 209.81832 
L 210.826372 210.078946 
L 211.334152 210.510198 
L 212.349713 210.579622 
L 212.857494 211.111009 
L 213.365274 212.201293 
L 214.380835 212.744149 
L 214.888616 213.644298 
L 215.396396 213.776287 
L 215.904177 214.480167 
L 216.411957 268.418141 
L 216.919738 215.132113 
L 217.935299 215.392586 
L 218.443079 215.826657 
L 218.95086 206.429386 
L 219.45864 216.350271 
L 219.966421 258.898597 
L 220.474201 217.153448 
L 221.489762 217.789542 
L 222.505324 218.434019 
L 223.520885 218.557473 
L 224.028665 218.950965 
L 224.536446 219.107531 
L 225.044226 219.896609 
L 227.075348 220.239576 
L 227.583129 221.137782 
L 228.090909 221.274915 
L 228.59869 221.27503 
L 229.10647 221.739546 
L 229.614251 222.040294 
L 230.122031 222.681342 
L 231.645373 222.909618 
L 232.153153 223.282 
L 232.660934 224.887515 
L 233.676495 225.132976 
L 234.184275 225.576497 
L 235.707617 225.626222 
L 236.215397 225.816471 
L 236.723178 200.940053 
L 237.230958 289.18418 
L 237.738739 227.204722 
L 238.246519 227.608691 
L 238.7543 227.642946 
L 239.26208 228.042382 
L 239.769861 206.286652 
L 240.277641 228.904923 
L 240.785422 228.988407 
L 241.293202 229.407695 
L 242.308763 229.61349 
L 242.816544 229.968192 
L 244.847666 231.796611 
L 245.355446 231.960417 
L 245.863227 231.98103 
L 246.371007 232.411406 
L 246.878788 233.043614 
L 247.894349 233.628002 
L 248.402129 233.680051 
L 248.90991 233.963348 
L 249.41769 208.103982 
L 249.925471 234.931626 
L 250.433251 171.347453 
L 250.941032 235.606471 
L 252.464373 235.907448 
L 252.972154 236.52491 
L 253.479934 236.578559 
L 253.987715 236.977195 
L 254.495495 237.016327 
L 255.003276 237.41702 
L 256.018837 237.540474 
L 256.526618 237.646782 
L 257.034398 238.376 
L 257.542179 238.593836 
L 258.049959 238.971743 
L 259.06552 239.452148 
L 260.081081 240.303906 
L 260.588862 240.498652 
L 261.096642 240.517665 
L 261.604423 241.397239 
L 262.112203 326.722053 
L 262.619984 241.681146 
L 263.127764 241.905345 
L 263.635545 193.568346 
L 264.143325 242.854799 
L 265.158886 242.960498 
L 265.666667 243.122779 
L 266.174447 243.994694 
L 268.205569 244.537436 
L 268.71335 246.11544 
L 269.22113 212.15214 
L 269.728911 246.470333 
L 270.236691 246.66264 
L 270.744472 235.14207 
L 271.252252 248.061598 
L 271.760033 248.211381 
L 272.267813 248.633641 
L 272.775594 248.903526 
L 273.283374 249.339731 
L 273.791155 249.358249 
L 274.298935 249.656254 
L 274.806716 250.222467 
L 275.314496 250.462441 
L 277.345618 250.789061 
L 277.853399 251.267637 
L 278.361179 251.408161 
L 278.86896 287.019119 
L 279.37674 251.748804 
L 279.884521 252.061288 
L 280.900082 252.124844 
L 281.407862 252.124844 
L 281.915643 252.501037 
L 282.423423 252.130979 
L 282.931204 239.730492 
L 283.438984 253.069765 
L 283.946765 183.277442 
L 284.454545 254.606732 
L 284.962326 175.891751 
L 285.470106 255.150884 
L 285.977887 255.341476 
L 286.485667 239.429439 
L 286.993448 256.419643 
L 287.501229 256.957546 
L 288.009009 256.957546 
L 288.51679 258.229201 
L 289.02457 259.030244 
L 289.532351 248.948716 
L 290.040131 259.771617 
L 290.547912 260.770911 
L 291.055692 260.380925 
L 291.563473 262.214564 
L 292.071253 262.314356 
L 294.102375 263.647319 
L 295.117936 263.844656 
L 295.625717 264.627638 
L 296.641278 264.733146 
L 297.149058 201.71389 
L 297.656839 265.108309 
L 298.164619 265.656195 
L 298.6724 344.483656 
L 299.18018 266.82943 
L 299.687961 267.064221 
L 300.195741 301.08843 
L 300.703522 268.254984 
L 301.211302 268.951319 
L 301.719083 269.147284 
L 302.734644 269.174489 
L 303.242424 269.477524 
L 303.750205 269.53868 
L 304.765766 269.98441 
L 305.273546 231.767538 
L 305.781327 181.333799 
L 306.289107 288.057088 
L 306.796888 272.381557 
L 307.304668 260.9692 
L 307.812449 272.420613 
L 309.33579 272.577369 
L 309.843571 364.190903 
L 310.351351 272.798787 
L 310.859132 272.942969 
L 311.366912 272.942969 
L 311.874693 206.115759 
L 312.382473 273.701946 
L 313.905815 275.678244 
L 314.921376 276.058399 
L 315.429156 373.085364 
L 315.936937 234.26242 
L 316.444717 276.817452 
L 316.952498 277.112523 
L 317.460278 264.366021 
L 317.968059 266.752842 
L 318.475839 277.958566 
L 318.98362 263.294065 
L 319.4914 278.148091 
L 319.999181 289.337088 
L 320.506962 279.763856 
L 321.522523 279.957497 
L 322.030303 280.455315 
L 322.538084 281.270989 
L 323.045864 281.293356 
L 323.553645 281.6215 
L 324.569206 281.833354 
L 325.076986 250.389626 
L 325.584767 283.002092 
L 326.092547 283.424085 
L 326.600328 267.00478 
L 327.108108 224.267043 
L 327.615889 283.735579 
L 328.123669 247.765422 
L 328.63145 264.07758 
L 329.13923 285.147492 
L 329.647011 285.752151 
L 330.154791 286.701949 
L 330.662572 286.93133 
L 331.170352 274.130036 
L 331.678133 295.645659 
L 332.185913 287.918888 
L 332.693694 307.394295 
L 333.201474 288.821361 
L 333.709255 288.946416 
L 334.724816 289.368828 
L 335.232596 290.585538 
L 335.740377 368.456896 
L 336.248157 381.1246 
L 336.755938 291.252191 
L 337.263718 291.379113 
L 338.279279 291.469532 
L 338.78706 292.059064 
L 339.29484 285.645881 
L 339.802621 260.417085 
L 340.310401 292.842656 
L 340.818182 366.665799 
L 341.325962 293.281185 
L 341.833743 293.600947 
L 342.341523 236.170398 
L 342.849304 294.400656 
L 343.357084 294.48033 
L 343.864865 294.68382 
L 344.372645 294.691784 
L 344.880426 295.084513 
L 345.388206 296.164395 
L 345.895987 296.68016 
L 346.403767 297.715309 
L 346.911548 229.232191 
L 347.419328 298.70058 
L 347.927109 298.70058 
L 348.434889 266.425193 
L 348.94267 299.015713 
L 349.45045 299.034669 
L 350.466011 299.442259 
L 350.973792 299.559235 
L 351.481572 300.411241 
L 352.497133 301.091516 
L 353.004914 361.428842 
L 353.512695 301.600289 
L 354.020475 301.67661 
L 354.528256 302.597068 
L 355.036036 302.719265 
L 355.543817 277.868109 
L 356.051597 303.584664 
L 356.559378 303.85794 
L 357.067158 303.905855 
L 357.574939 304.437927 
L 358.082719 304.650238 
L 358.5905 304.650238 
L 359.09828 305.097436 
L 359.606061 305.297478 
L 360.113841 305.920122 
L 360.621622 226.333531 
L 361.129402 306.174784 
L 361.637183 306.18913 
L 362.144963 306.335142 
L 362.652744 401.044882 
L 363.160524 229.806635 
L 363.668305 306.747189 
L 364.176085 308.876471 
L 364.683866 307.325157 
L 365.191646 308.2375 
L 365.699427 308.899809 
L 366.207207 308.99802 
L 366.714988 309.401609 
L 367.222768 309.635086 
L 367.730549 310.394444 
L 368.238329 310.430032 
L 368.74611 310.578006 
L 369.25389 379.084633 
L 369.761671 310.706166 
L 370.269451 332.391596 
L 370.777232 311.422734 
L 371.285012 311.744325 
L 371.792793 312.580842 
L 373.316134 312.715823 
L 373.823915 227.309505 
L 374.331695 313.534221 
L 374.839476 313.593891 
L 376.362817 314.020837 
L 376.870598 314.4587 
L 377.378378 314.576477 
L 377.886159 315.174049 
L 378.393939 313.627727 
L 378.90172 315.464395 
L 379.917281 315.972443 
L 380.425061 315.999573 
L 380.932842 316.811323 
L 381.440622 317.033845 
L 381.948403 318.488777 
L 382.963964 318.93929 
L 383.471744 319.672928 
L 383.979525 320.031498 
L 384.487305 245.023441 
L 384.995086 372.910776 
L 385.502867 361.899035 
L 386.010647 321.421083 
L 387.026208 321.509292 
L 387.533989 389.479483 
L 388.041769 321.573419 
L 389.05733 321.732024 
L 389.565111 321.959519 
L 390.072891 299.242903 
L 390.580672 363.895775 
L 391.088452 322.554766 
L 392.104013 322.889731 
L 392.611794 323.006403 
L 393.119574 324.547848 
L 394.642916 325.722455 
L 395.658477 325.797118 
L 396.166257 326.432793 
L 396.674038 326.676006 
L 397.181818 372.185787 
L 397.689599 245.193725 
L 398.197379 329.465463 
L 398.70516 328.328616 
L 399.21294 330.201902 
L 401.244062 330.937236 
L 401.751843 331.42086 
L 402.259623 347.8017 
L 402.767404 371.267938 
L 403.275184 332.463115 
L 403.782965 333.15324 
L 404.290745 333.266406 
L 404.798526 333.525737 
L 405.306306 313.06479 
L 405.814087 334.632862 
L 406.321867 334.693332 
L 407.337428 334.98787 
L 408.352989 335.152666 
L 408.86077 335.819509 
L 409.36855 335.846829 
L 409.876331 337.348533 
L 410.891892 337.454745 
L 411.399672 337.805809 
L 411.907453 338.589305 
L 412.415233 338.758712 
L 412.923014 339.649431 
L 413.430794 339.649431 
L 414.954136 340.943586 
L 415.461916 178.646839 
L 415.969697 401.499605 
L 416.477477 341.173996 
L 416.985258 390.509621 
L 417.493038 341.602866 
L 418.000819 353.550249 
L 418.5086 342.019277 
L 419.01638 342.430581 
L 419.524161 258.922831 
L 420.031941 214.042971 
L 420.539722 343.834245 
L 421.047502 344.193501 
L 421.555283 350.403784 
L 422.063063 344.808353 
L 422.570844 306.195741 
L 423.078624 345.484741 
L 423.586405 347.40798 
L 424.094185 347.414953 
L 424.601966 348.248669 
L 425.109746 349.455377 
L 425.617527 349.95752 
L 426.125307 350.685538 
L 426.633088 357.519571 
L 427.140868 267.549199 
L 427.648649 351.120238 
L 428.156429 351.777766 
L 428.66421 258.855426 
L 429.17199 352.050261 
L 430.187551 352.757303 
L 430.695332 352.928558 
L 432.218673 353.131514 
L 432.726454 337.924062 
L 433.234234 353.366458 
L 433.742015 353.555584 
L 434.249795 342.988507 
L 434.757576 354.489835 
L 435.265356 354.510144 
L 435.773137 354.69163 
L 436.280917 254.463579 
L 436.788698 329.996564 
L 437.296478 345.806408 
L 437.804259 355.344527 
L 438.312039 356.601704 
L 438.81982 356.660116 
L 439.3276 345.240195 
L 439.835381 357.424008 
L 440.343161 357.59471 
L 440.850942 357.612962 
L 441.358722 358.034878 
L 441.866503 358.058407 
L 442.374283 358.365423 
L 443.389844 358.814431 
L 443.897625 359.182603 
L 444.405405 346.46645 
L 444.913186 360.469518 
L 445.420966 360.562585 
L 445.928747 292.502013 
L 446.436527 360.651518 
L 447.452088 360.770476 
L 447.959869 377.342003 
L 448.467649 344.703778 
L 449.48321 379.387248 
L 449.990991 362.502227 
L 450.498771 362.867199 
L 452.022113 363.106448 
L 453.037674 364.091511 
L 453.545455 364.267128 
L 454.053235 302.556736 
L 454.561016 364.325712 
L 455.068796 364.453624 
L 455.576577 398.082684 
L 456.084357 364.964855 
L 456.592138 362.920676 
L 457.099918 365.729071 
L 457.607699 366.360326 
L 458.115479 388.615874 
L 458.62326 367.134506 
L 459.13104 372.057208 
L 459.638821 367.385492 
L 460.146601 391.669806 
L 460.654382 367.612758 
L 461.162162 400.432716 
L 461.669943 394.706038 
L 462.177723 368.220542 
L 463.193284 368.330127 
L 463.701065 368.472385 
L 464.716626 368.510831 
L 465.224406 370.252717 
L 465.732187 331.398132 
L 466.239967 369.0498 
L 466.747748 369.301015 
L 467.255528 370.412141 
L 467.763309 390.891567 
L 468.271089 290.45332 
L 468.77887 370.734323 
L 470.809992 371.04372 
L 471.317772 375.114892 
L 471.825553 371.966198 
L 472.841114 372.374264 
L 473.348894 372.557636 
L 473.856675 372.862461 
L 474.364455 393.161869 
L 474.872236 373.610312 
L 475.380016 267.68176 
L 475.887797 352.009033 
L 476.395577 374.371728 
L 476.903358 374.855485 
L 477.918919 374.991533 
L 478.426699 375.062557 
L 478.93448 274.224036 
L 479.44226 375.173171 
L 479.950041 323.848217 
L 480.457821 375.397236 
L 480.965602 359.335378 
L 481.473382 308.396161 
L 481.981163 376.365971 
L 482.488943 377.010144 
L 482.996724 377.215139 
L 483.504505 378.084424 
L 485.027846 378.789505 
L 485.535627 378.789505 
L 486.043407 378.925933 
L 486.551188 379.436382 
L 487.566749 379.768775 
L 488.074529 286.465709 
L 488.58231 381.722115 
L 489.09009 381.895789 
L 489.597871 381.920747 
L 490.105651 347.26233 
L 490.613432 342.293886 
L 491.121212 383.33969 
L 492.644554 383.977194 
L 493.152334 343.953032 
L 493.660115 384.269617 
L 494.167895 385.216024 
L 494.675676 385.628719 
L 495.183456 385.87096 
L 495.691237 291.886914 
L 496.199017 386.754858 
L 496.706798 386.94526 
L 497.214578 387.408004 
L 497.722359 382.967689 
L 498.230139 387.684614 
L 498.73792 388.050804 
L 499.753481 388.170048 
L 500.261261 429.093522 
L 500.769042 388.481218 
L 501.784603 388.851676 
L 502.292383 388.979874 
L 502.800164 389.320116 
L 503.307944 389.423547 
L 503.815725 390.230782 
L 504.323505 390.407257 
L 504.831286 390.711759 
L 505.846847 390.765427 
L 506.354627 391.088599 
L 506.862408 391.229371 
L 507.877969 373.419148 
L 508.385749 391.606326 
L 508.89353 328.258392 
L 509.40131 344.634221 
L 509.909091 392.058649 
L 510.416871 379.492775 
L 510.924652 392.293764 
L 511.432432 392.860835 
L 511.940213 368.593134 
L 512.447993 393.054989 
L 512.955774 391.012869 
L 513.463554 393.172519 
L 513.971335 393.285533 
L 514.479115 377.359835 
L 514.986896 393.88642 
L 515.494676 359.314249 
L 516.002457 394.748904 
L 516.510238 394.83014 
L 517.018018 395.047461 
L 517.525799 395.528914 
L 518.033579 395.842255 
L 518.54136 395.862622 
L 519.556921 396.225021 
L 520.572482 396.361773 
L 521.080262 396.521768 
L 521.588043 396.545716 
L 522.095823 396.79954 
L 522.603604 371.004703 
L 523.111384 397.215513 
L 523.619165 397.495209 
L 524.126945 347.401959 
L 524.634726 397.754196 
L 525.142506 397.788146 
L 526.158067 333.536291 
L 526.665848 398.687476 
L 527.173628 399.159327 
L 527.681409 399.183961 
L 528.189189 358.355535 
L 528.69697 400.062772 
L 529.20475 400.432926 
L 529.712531 400.527364 
L 530.220311 397.602641 
L 530.728092 400.92398 
L 531.235872 400.963703 
L 531.743653 401.260317 
L 532.251433 401.402518 
L 532.759214 401.736359 
L 533.266994 401.88037 
L 533.774775 402.37693 
L 534.790336 402.791169 
L 535.805897 402.897877 
L 536.313677 403.333015 
L 536.821458 403.408231 
L 537.329238 403.665561 
L 537.837019 403.665561 
L 538.344799 404.214037 
L 538.85258 404.328708 
L 539.36036 404.859847 
L 540.375921 405.014832 
L 540.883702 328.598577 
L 541.391482 366.595404 
L 542.407043 405.526405 
L 542.914824 410.917795 
L 543.422604 410.917795 
L 543.930385 406.138018 
L 544.438165 365.521447 
L 544.945946 359.760914 
L 545.453726 406.785772 
L 545.961507 406.958418 
L 546.469287 296.06708 
L 546.977068 407.430078 
L 547.484848 407.526117 
L 547.992629 408.045387 
L 548.50041 408.344154 
L 549.00819 408.501653 
L 549.515971 379.597901 
L 550.023751 408.53869 
L 550.531532 367.853189 
L 551.039312 408.719775 
L 551.547093 409.425293 
L 552.562654 409.924578 
L 553.070434 410.412718 
L 554.593776 411.051346 
L 555.101556 367.773039 
L 555.609337 411.590163 
L 556.117117 411.805122 
L 556.624898 412.741088 
L 557.132678 412.801749 
L 557.640459 409.31649 
L 558.148239 413.84368 
L 559.1638 414.014135 
L 559.671581 327.049912 
L 560.179361 414.392499 
L 560.687142 368.535331 
L 561.194922 415.00556 
L 562.210483 415.29823 
L 563.226044 415.305375 
L 565.257166 415.898165 
L 565.764947 416.307831 
L 566.272727 417.092795 
L 566.780508 327.72832 
L 567.288288 417.564359 
L 567.796069 358.840246 
L 568.303849 417.614903 
L 568.81163 417.964138 
L 569.31941 378.897032 
L 569.827191 418.481369 
L 570.842752 418.718085 
L 571.350532 419.269515 
L 571.858313 351.803885 
L 572.366093 347.035388 
L 572.873874 357.968788 
L 573.381654 395.565341 
L 573.889435 420.306473 
L 574.397215 420.971964 
L 574.904996 421.436823 
L 575.412776 421.568908 
L 575.920557 370.53992 
L 576.428337 422.120813 
L 577.951679 423.061009 
L 578.459459 423.152704 
L 578.96724 374.334386 
L 579.47502 423.817566 
L 579.982801 424.079297 
L 580.490581 379.803735 
L 580.998362 424.458747 
L 581.506143 363.399881 
L 582.013923 424.810592 
L 583.537265 426.377528 
L 584.552826 426.487799 
L 585.060606 427.112119 
L 585.568387 427.240298 
L 586.076167 392.226379 
L 586.583948 427.958543 
L 587.091728 428.005124 
L 587.599509 428.934556 
L 588.107289 429.172453 
L 589.12285 429.274836 
L 589.630631 430.1317 
L 590.646192 430.980505 
L 591.153972 431.308326 
L 591.661753 431.33698 
L 592.169533 395.632745 
L 592.677314 431.871967 
L 593.692875 432.174983 
L 594.708436 432.751484 
L 595.216216 433.204664 
L 595.723997 388.576514 
L 596.231777 433.951924 
L 597.755119 434.64605 
L 598.262899 435.618843 
L 598.77068 435.618843 
L 599.27846 435.908027 
L 599.786241 436.058344 
L 600.294021 402.365252 
L 600.801802 437.260499 
L 601.309582 437.4051 
L 601.817363 378.362959 
L 602.325143 392.089664 
L 602.832924 351.515159 
L 603.340704 378.782779 
L 603.848485 440.020483 
L 604.356265 374.281042 
L 604.864046 441.037304 
L 605.371826 441.140335 
L 605.879607 441.739222 
L 606.387387 441.978376 
L 606.895168 442.799062 
L 607.402948 442.799062 
L 607.910729 443.567717 
L 608.418509 443.72253 
L 608.92629 443.72253 
L 609.43407 375.470185 
L 609.941851 444.207355 
L 610.449631 444.296554 
L 610.957412 320.386296 
L 611.465192 373.09912 
L 611.972973 448.205025 
L 612.480753 448.347226 
L 612.988534 450.424992 
L 613.496314 450.570242 
L 614.004095 404.818696 
L 614.511876 336.785787 
L 615.019656 452.455187 
L 615.527437 345.63342 
L 616.035217 345.63342 
L 616.542998 390.593524 
L 617.050778 454.07881 
L 617.558559 369.136085 
L 618.066339 369.737734 
L 618.57412 455.789519 
L 619.0819 381.310277 
L 619.589681 369.924497 
L 620.097461 459.58651 
L 620.605242 356.892031 
L 621.113022 463.039048 
L 621.620803 341.838096 
L 622.128583 341.838096 
L 622.636364 484.232727 
L 622.636364 484.232727 
" clip-path="url(#p2235f92778)" style="fill: none; stroke: #4c72b0; stroke-width: 2; stroke-linecap: round"/>
   </g>
   <g id="line2d_11">
    <path d="M 115.363636 88.887273 
L 115.871417 105.372458 
L 116.379197 111.456315 
L 116.886978 121.45314 
L 117.902539 124.786938 
L 118.410319 127.210681 
L 118.9181 128.793792 
L 119.42588 128.972496 
L 120.441441 129.685558 
L 120.949222 130.580792 
L 121.457002 132.153615 
L 121.964783 132.956601 
L 122.472563 133.461202 
L 122.980344 134.631122 
L 123.488124 134.85494 
L 123.995905 139.007538 
L 124.503686 139.086259 
L 125.011466 140.489179 
L 125.519247 140.630161 
L 126.027027 141.333851 
L 127.042588 141.551953 
L 127.550369 142.729608 
L 128.058149 143.507408 
L 128.56593 143.704668 
L 129.07371 144.571249 
L 129.581491 144.573535 
L 130.089271 145.782777 
L 131.104832 146.875576 
L 131.612613 146.971672 
L 132.120393 147.193013 
L 132.628174 148.301473 
L 133.135954 148.508907 
L 133.643735 148.92747 
L 134.151515 150.493282 
L 134.659296 150.694581 
L 135.167076 152.080774 
L 135.674857 152.481124 
L 136.182637 152.690425 
L 136.690418 153.316079 
L 137.198198 153.344847 
L 137.705979 153.824909 
L 138.72154 154.33492 
L 139.22932 155.939635 
L 140.244881 156.074558 
L 141.260442 157.210528 
L 141.768223 157.559324 
L 142.276003 158.917588 
L 142.783784 159.23815 
L 143.799345 159.506168 
L 144.307125 160.561473 
L 144.814906 161.117208 
L 145.322686 161.312792 
L 145.830467 161.929758 
L 146.846028 162.323364 
L 147.353808 162.462631 
L 147.861589 163.605155 
L 149.38493 164.316541 
L 150.400491 165.045607 
L 150.908272 166.571334 
L 151.416052 167.083365 
L 153.447174 168.096071 
L 154.462735 168.877224 
L 154.970516 168.982198 
L 155.986077 169.580151 
L 156.493857 169.808275 
L 157.001638 170.288146 
L 157.509419 170.423032 
L 158.017199 171.142191 
L 158.52498 171.322419 
L 159.03276 172.371971 
L 160.048321 173.198162 
L 160.556102 173.231388 
L 161.571663 174.020924 
L 162.079443 174.638957 
L 164.110565 175.0065 
L 166.141687 175.520169 
L 166.649468 176.09286 
L 167.157248 176.412202 
L 168.172809 176.576961 
L 168.68059 177.030731 
L 169.696151 177.060452 
L 170.203931 177.348054 
L 170.711712 177.349922 
L 171.727273 177.775801 
L 172.235053 177.880584 
L 172.742834 178.119377 
L 173.250614 178.126121 
L 174.266175 179.68877 
L 174.773956 179.857225 
L 175.789517 180.728492 
L 176.805078 180.873779 
L 177.820639 182.327987 
L 178.328419 182.570361 
L 178.8362 183.686746 
L 179.34398 184.185783 
L 179.851761 185.289708 
L 180.359541 185.643191 
L 180.867322 185.824639 
L 181.375102 186.165433 
L 182.390663 186.35252 
L 182.898444 186.355949 
L 183.406224 186.473345 
L 183.914005 186.924906 
L 184.421785 187.645018 
L 184.929566 187.725911 
L 185.437346 188.839666 
L 185.945127 188.895183 
L 186.452907 189.52038 
L 186.960688 190.328167 
L 187.976249 190.788567 
L 188.484029 191.417765 
L 188.99181 191.507384 
L 189.49959 192.061213 
L 190.515152 192.449523 
L 191.022932 192.654442 
L 191.530713 193.111565 
L 192.038493 193.968849 
L 192.546274 194.032329 
L 193.561835 194.342984 
L 194.069615 195.278455 
L 195.085176 195.400385 
L 196.100737 197.04366 
L 196.608518 199.562547 
L 197.624079 199.843901 
L 199.14742 201.081568 
L 199.655201 201.392337 
L 200.162981 201.511715 
L 200.670762 201.780037 
L 201.686323 203.032222 
L 203.717445 203.876359 
L 204.225225 204.417539 
L 204.733006 204.620362 
L 205.240786 205.019454 
L 205.748567 205.112464 
L 206.256347 205.338607 
L 206.764128 206.60508 
L 207.271908 206.75353 
L 207.779689 207.128198 
L 208.287469 208.172301 
L 208.79525 208.59117 
L 209.30303 208.666804 
L 209.810811 208.864522 
L 210.318591 209.81832 
L 210.826372 210.078946 
L 211.334152 210.510198 
L 212.349713 210.579622 
L 212.857494 211.111009 
L 213.365274 212.201293 
L 214.380835 212.744149 
L 214.888616 213.644298 
L 215.396396 213.776287 
L 215.904177 214.480167 
L 216.411957 214.947084 
L 217.935299 215.392586 
L 218.95086 216.266977 
L 219.45864 216.350271 
L 219.966421 216.626671 
L 220.981982 217.530136 
L 221.997543 218.103512 
L 222.505324 218.434019 
L 223.520885 218.557473 
L 224.028665 218.950965 
L 224.536446 219.107531 
L 225.044226 219.896609 
L 227.075348 220.239576 
L 227.583129 221.137782 
L 228.090909 221.274915 
L 228.59869 221.27503 
L 229.10647 221.739546 
L 229.614251 222.040294 
L 230.122031 222.681342 
L 231.645373 222.909618 
L 232.153153 223.282 
L 232.660934 224.887515 
L 235.199836 225.601112 
L 235.707617 225.626222 
L 236.215397 225.816471 
L 236.723178 226.808601 
L 237.230958 226.865299 
L 238.246519 227.608691 
L 238.7543 227.642946 
L 239.26208 228.042382 
L 239.769861 228.076941 
L 240.277641 228.904923 
L 240.785422 228.988407 
L 241.293202 229.407695 
L 242.308763 229.61349 
L 242.816544 229.968192 
L 244.847666 231.796611 
L 245.355446 231.960417 
L 245.863227 231.98103 
L 246.371007 232.411406 
L 246.878788 233.043614 
L 247.894349 233.628002 
L 248.402129 233.680051 
L 248.90991 233.963348 
L 249.41769 234.030067 
L 249.925471 234.931626 
L 250.433251 234.934865 
L 250.941032 235.606471 
L 252.464373 235.907448 
L 252.972154 236.52491 
L 253.479934 236.578559 
L 253.987715 236.977195 
L 254.495495 237.016327 
L 255.003276 237.41702 
L 256.018837 237.540474 
L 256.526618 237.646782 
L 257.034398 238.376 
L 257.542179 238.593836 
L 258.049959 238.971743 
L 259.06552 239.452148 
L 260.081081 240.303906 
L 260.588862 240.498652 
L 261.096642 240.517665 
L 261.604423 241.397239 
L 262.112203 241.430198 
L 263.127764 241.905345 
L 263.635545 241.984142 
L 264.143325 242.854799 
L 265.158886 242.960498 
L 265.666667 243.122779 
L 266.174447 243.994694 
L 268.205569 244.537436 
L 268.71335 246.11544 
L 269.22113 246.460198 
L 269.728911 246.470333 
L 270.744472 246.967923 
L 271.252252 248.061598 
L 271.760033 248.211381 
L 272.267813 248.633641 
L 272.775594 248.903526 
L 273.283374 249.339731 
L 273.791155 249.358249 
L 274.298935 249.656254 
L 274.806716 250.222467 
L 275.314496 250.462441 
L 277.345618 250.789061 
L 277.853399 251.267637 
L 279.37674 251.748804 
L 279.884521 252.061288 
L 280.900082 252.124844 
L 281.407862 252.124844 
L 281.915643 252.501037 
L 282.423423 252.520622 
L 283.438984 253.069765 
L 283.946765 253.723196 
L 284.454545 254.606732 
L 284.962326 254.715402 
L 285.470106 255.150884 
L 285.977887 255.341476 
L 286.485667 256.30179 
L 286.993448 256.419643 
L 287.501229 256.957546 
L 288.009009 256.957546 
L 288.51679 258.229201 
L 289.02457 259.030244 
L 289.532351 259.495217 
L 290.040131 259.771617 
L 290.547912 260.770911 
L 291.563473 262.214564 
L 292.071253 262.314356 
L 294.102375 263.647319 
L 295.117936 263.844656 
L 295.625717 264.627638 
L 296.641278 264.733146 
L 297.149058 265.050393 
L 297.656839 265.108309 
L 298.164619 265.656195 
L 298.6724 266.530434 
L 299.687961 267.064221 
L 300.195741 267.769625 
L 300.703522 268.254984 
L 301.211302 268.951319 
L 301.719083 269.147284 
L 302.734644 269.174489 
L 303.242424 269.477524 
L 303.750205 269.53868 
L 304.765766 269.98441 
L 305.273546 270.452775 
L 305.781327 270.688138 
L 306.289107 271.394037 
L 306.796888 272.381557 
L 309.843571 272.601832 
L 310.859132 272.942969 
L 311.366912 272.942969 
L 311.874693 273.680685 
L 312.382473 273.701946 
L 313.905815 275.678244 
L 314.921376 276.058399 
L 315.429156 276.063276 
L 315.936937 276.210697 
L 316.444717 276.817452 
L 318.475839 277.958566 
L 318.98362 278.146605 
L 319.4914 278.148091 
L 319.999181 278.418548 
L 320.506962 279.763856 
L 321.522523 279.957497 
L 322.030303 280.455315 
L 322.538084 281.270989 
L 323.045864 281.293356 
L 323.553645 281.6215 
L 324.569206 281.833354 
L 325.076986 282.166033 
L 325.584767 283.002092 
L 326.092547 283.424085 
L 327.108108 283.597264 
L 327.615889 283.735579 
L 328.123669 284.541384 
L 328.63145 285.090946 
L 329.13923 285.147492 
L 329.647011 285.752151 
L 330.154791 286.701949 
L 330.662572 286.93133 
L 331.170352 286.998086 
L 331.678133 287.72018 
L 332.185913 287.918888 
L 332.693694 288.537302 
L 333.201474 288.821361 
L 333.709255 288.946416 
L 334.724816 289.368828 
L 335.232596 290.585538 
L 335.740377 291.151675 
L 336.755938 291.252191 
L 337.263718 291.379113 
L 338.279279 291.469532 
L 338.78706 292.059064 
L 339.29484 292.420854 
L 339.802621 292.476827 
L 340.818182 293.124314 
L 341.325962 293.281185 
L 341.833743 293.600947 
L 342.341523 293.642708 
L 342.849304 294.400656 
L 343.357084 294.48033 
L 343.864865 294.68382 
L 344.372645 294.691784 
L 344.880426 295.084513 
L 345.388206 296.164395 
L 345.895987 296.68016 
L 346.403767 297.715309 
L 346.911548 298.010551 
L 347.419328 298.70058 
L 347.927109 298.70058 
L 348.94267 299.015713 
L 349.45045 299.034669 
L 350.466011 299.442259 
L 350.973792 299.559235 
L 351.481572 300.411241 
L 353.004914 301.526597 
L 354.020475 301.67661 
L 354.528256 302.597068 
L 355.036036 302.719265 
L 355.543817 302.992941 
L 356.051597 303.584664 
L 356.559378 303.85794 
L 357.067158 303.905855 
L 357.574939 304.437927 
L 358.082719 304.650238 
L 358.5905 304.650238 
L 359.09828 305.097436 
L 359.606061 305.297478 
L 360.113841 305.920122 
L 362.144963 306.335142 
L 362.652744 306.6859 
L 364.176085 306.816728 
L 364.683866 307.325157 
L 365.191646 308.2375 
L 365.699427 308.899809 
L 366.207207 308.99802 
L 366.714988 309.401609 
L 367.222768 309.635086 
L 367.730549 310.394444 
L 368.238329 310.430032 
L 369.25389 310.681304 
L 369.761671 310.706166 
L 371.285012 311.744325 
L 371.792793 312.580842 
L 373.316134 312.715823 
L 373.823915 312.815767 
L 374.331695 313.534221 
L 374.839476 313.593891 
L 376.362817 314.020837 
L 376.870598 314.4587 
L 377.378378 314.576477 
L 377.886159 315.174049 
L 378.393939 315.379749 
L 378.90172 315.464395 
L 379.917281 315.972443 
L 380.425061 315.999573 
L 380.932842 316.811323 
L 381.440622 317.033845 
L 381.948403 318.488777 
L 382.963964 318.93929 
L 383.471744 319.672928 
L 383.979525 320.031498 
L 384.995086 321.17808 
L 387.533989 321.567228 
L 388.54955 321.647682 
L 389.05733 321.732024 
L 389.565111 321.959519 
L 390.072891 322.018883 
L 391.088452 322.554766 
L 392.104013 322.889731 
L 392.611794 323.006403 
L 393.119574 324.547848 
L 394.642916 325.722455 
L 395.658477 325.797118 
L 396.166257 326.432793 
L 397.181818 326.844669 
L 397.689599 326.90973 
L 398.197379 329.465463 
L 399.720721 330.387388 
L 400.228501 330.494248 
L 400.736282 330.855809 
L 401.244062 330.937236 
L 401.751843 331.42086 
L 402.259623 332.239774 
L 402.767404 332.253929 
L 403.275184 332.463115 
L 403.782965 333.15324 
L 404.290745 333.266406 
L 404.798526 333.525737 
L 405.306306 334.207917 
L 405.814087 334.632862 
L 406.321867 334.693332 
L 407.337428 334.98787 
L 408.352989 335.152666 
L 408.86077 335.819509 
L 409.36855 335.846829 
L 409.876331 337.348533 
L 410.891892 337.454745 
L 411.399672 337.805809 
L 411.907453 338.589305 
L 412.415233 338.758712 
L 412.923014 339.649431 
L 413.430794 339.649431 
L 414.954136 340.943586 
L 416.477477 341.173996 
L 416.985258 341.55638 
L 417.493038 341.602866 
L 419.01638 342.430581 
L 419.524161 342.475448 
L 420.031941 343.631898 
L 420.539722 343.834245 
L 421.047502 344.193501 
L 421.555283 344.411794 
L 422.063063 344.808353 
L 422.570844 345.054232 
L 423.078624 345.484741 
L 423.586405 347.40798 
L 424.094185 347.414953 
L 424.601966 348.248669 
L 425.109746 349.455377 
L 425.617527 349.95752 
L 426.125307 350.685538 
L 426.633088 350.80343 
L 427.140868 350.805735 
L 427.648649 351.120238 
L 428.156429 351.777766 
L 429.17199 352.050261 
L 430.187551 352.757303 
L 430.695332 352.928558 
L 432.218673 353.131514 
L 433.742015 353.555584 
L 434.249795 354.398959 
L 435.773137 354.69163 
L 436.280917 355.270569 
L 437.804259 355.344527 
L 438.312039 356.601742 
L 439.3276 356.788219 
L 439.835381 357.424008 
L 440.343161 357.59471 
L 440.850942 357.612962 
L 441.358722 358.034878 
L 441.866503 358.058407 
L 442.374283 358.365423 
L 443.389844 358.814431 
L 444.405405 359.660512 
L 444.913186 360.469518 
L 446.436527 360.651518 
L 447.452088 360.770476 
L 447.959869 361.07353 
L 448.467649 361.797223 
L 449.48321 361.889605 
L 449.990991 362.502227 
L 450.498771 362.867199 
L 452.022113 363.106448 
L 453.037674 364.091511 
L 453.545455 364.267128 
L 454.561016 364.325712 
L 455.576577 364.688702 
L 456.592138 365.268613 
L 457.099918 365.729071 
L 457.607699 366.360326 
L 458.115479 366.491877 
L 458.62326 367.134506 
L 459.13104 367.169085 
L 460.146601 367.558137 
L 460.654382 367.612758 
L 462.177723 368.220542 
L 463.193284 368.330127 
L 463.701065 368.472385 
L 464.716626 368.510831 
L 465.224406 368.870639 
L 465.732187 368.883404 
L 466.747748 369.301015 
L 467.255528 370.412141 
L 467.763309 370.68877 
L 469.28665 370.829352 
L 469.794431 370.997977 
L 470.809992 371.04372 
L 471.317772 371.150009 
L 471.825553 371.966198 
L 472.841114 372.374264 
L 473.348894 372.557636 
L 473.856675 372.862461 
L 474.364455 373.024361 
L 474.872236 373.610312 
L 475.380016 373.678555 
L 475.887797 374.354848 
L 476.395577 374.371728 
L 476.903358 374.855485 
L 477.918919 374.991533 
L 480.457821 375.397236 
L 480.965602 376.055126 
L 481.473382 376.285993 
L 481.981163 376.365971 
L 482.488943 377.010144 
L 482.996724 377.215139 
L 483.504505 378.084424 
L 485.027846 378.789505 
L 485.535627 378.789505 
L 486.043407 378.925933 
L 486.551188 379.436382 
L 487.566749 379.768775 
L 488.074529 381.206522 
L 488.58231 381.722115 
L 489.09009 381.895789 
L 489.597871 381.920747 
L 490.613432 382.532989 
L 491.121212 383.33969 
L 492.644554 383.977194 
L 493.660115 384.269617 
L 494.167895 385.216024 
L 494.675676 385.628719 
L 495.183456 385.87096 
L 495.691237 386.634929 
L 496.706798 386.94526 
L 497.214578 387.408004 
L 497.722359 387.479257 
L 498.230139 387.684614 
L 498.73792 388.050804 
L 500.261261 388.183765 
L 501.276822 388.688404 
L 502.292383 388.979874 
L 502.800164 389.320116 
L 503.307944 389.423547 
L 503.815725 390.230782 
L 504.323505 390.407257 
L 504.831286 390.711759 
L 505.846847 390.765427 
L 506.354627 391.088599 
L 508.385749 391.606326 
L 508.89353 391.922887 
L 509.909091 392.058649 
L 510.416871 392.098123 
L 510.924652 392.293764 
L 511.432432 392.860835 
L 512.447993 393.054989 
L 512.955774 393.057999 
L 514.479115 393.443565 
L 514.986896 393.88642 
L 515.494676 394.607713 
L 517.018018 395.047461 
L 517.525799 395.528914 
L 518.033579 395.842255 
L 518.54136 395.862622 
L 519.556921 396.225021 
L 520.572482 396.361773 
L 521.080262 396.521768 
L 521.588043 396.545716 
L 522.095823 396.79954 
L 522.603604 397.187793 
L 523.111384 397.215513 
L 523.619165 397.495209 
L 524.126945 397.5416 
L 524.634726 397.754196 
L 525.142506 397.788146 
L 526.158067 398.210291 
L 527.173628 399.159327 
L 527.681409 399.183961 
L 528.189189 399.879668 
L 528.69697 400.062772 
L 529.20475 400.432926 
L 530.220311 400.73335 
L 530.728092 400.92398 
L 531.235872 400.963703 
L 531.743653 401.260317 
L 532.251433 401.402518 
L 532.759214 401.736359 
L 533.266994 401.88037 
L 533.774775 402.37693 
L 534.790336 402.818565 
L 535.805897 402.897877 
L 536.313677 403.333015 
L 536.821458 403.408231 
L 537.329238 403.665561 
L 537.837019 403.665561 
L 538.344799 404.214037 
L 538.85258 404.328708 
L 539.36036 404.859847 
L 540.883702 405.068348 
L 541.391482 405.230439 
L 541.899263 405.263855 
L 542.914824 405.755767 
L 543.422604 405.755767 
L 544.438165 406.520365 
L 544.945946 406.563497 
L 546.977068 407.430078 
L 547.484848 407.526117 
L 547.992629 408.045387 
L 548.50041 408.344154 
L 549.00819 408.501653 
L 550.023751 408.53869 
L 551.039312 408.719775 
L 551.547093 409.425293 
L 552.562654 409.924578 
L 553.070434 410.412718 
L 556.117117 411.805122 
L 556.624898 412.741088 
L 557.132678 412.801749 
L 557.640459 413.62251 
L 558.148239 413.84368 
L 559.1638 414.014135 
L 559.671581 414.105525 
L 560.179361 414.392499 
L 560.687142 414.998339 
L 561.194922 415.00556 
L 562.210483 415.29823 
L 563.226044 415.305375 
L 565.257166 415.898165 
L 565.764947 416.307831 
L 566.272727 417.092795 
L 566.780508 417.547175 
L 568.303849 417.614903 
L 569.31941 418.344274 
L 570.842752 418.718085 
L 571.858313 419.705472 
L 572.366093 419.876079 
L 572.873874 419.876993 
L 573.889435 420.306473 
L 574.397215 420.971964 
L 574.904996 421.436823 
L 575.920557 421.690133 
L 576.936118 422.421314 
L 577.443898 422.818711 
L 577.951679 423.061009 
L 578.459459 423.152704 
L 578.96724 423.638596 
L 579.982801 424.079297 
L 581.506143 424.743511 
L 582.013923 424.810592 
L 583.537265 426.377528 
L 584.552826 426.487799 
L 585.060606 427.112119 
L 586.076167 427.292233 
L 586.583948 427.958543 
L 587.091728 428.005124 
L 587.599509 428.934556 
L 588.107289 429.172453 
L 589.12285 429.274836 
L 589.630631 430.1317 
L 590.646192 430.980505 
L 591.153972 431.308326 
L 591.661753 431.33698 
L 592.169533 431.480152 
L 592.677314 431.871967 
L 593.692875 432.174983 
L 594.708436 432.751484 
L 595.216216 433.204664 
L 595.723997 433.944704 
L 596.231777 433.951924 
L 597.755119 434.64605 
L 598.262899 435.618843 
L 598.77068 435.618843 
L 599.27846 435.908027 
L 600.294021 436.242496 
L 600.801802 437.260499 
L 601.309582 437.4051 
L 601.817363 438.108371 
L 602.325143 438.432933 
L 603.340704 438.557969 
L 603.848485 440.020483 
L 604.356265 440.191223 
L 604.864046 441.037304 
L 605.371826 441.140335 
L 605.879607 441.739222 
L 606.387387 441.978376 
L 606.895168 442.799043 
L 607.402948 442.799062 
L 607.910729 443.567717 
L 608.418509 443.72253 
L 609.43407 443.723102 
L 609.941851 444.207355 
L 610.449631 444.296554 
L 610.957412 446.081955 
L 611.465192 446.31768 
L 611.972973 448.205025 
L 612.480753 448.347226 
L 612.988534 450.424992 
L 613.496314 450.570242 
L 614.004095 451.019573 
L 614.511876 452.296868 
L 615.019656 452.455187 
L 615.527437 452.7466 
L 616.035217 452.7466 
L 616.542998 453.729109 
L 617.558559 454.400173 
L 618.066339 455.55467 
L 618.57412 455.789519 
L 619.0819 458.564221 
L 619.589681 459.375504 
L 620.097461 459.58651 
L 620.605242 462.027751 
L 621.113022 463.039048 
L 621.620803 468.470864 
L 622.128583 468.470864 
L 622.636364 484.232727 
L 622.636364 484.232727 
" clip-path="url(#p2235f92778)" style="fill: none; stroke: #dd8452; stroke-width: 3; stroke-linecap: round"/>
   </g>
   <g id="patch_3">
    <path d="M 90 504 
L 90 69.12 
" style="fill: none; stroke: #cccccc; stroke-width: 1.25; stroke-linejoin: miter; stroke-linecap: square"/>
   </g>
   <g id="patch_4">
    <path d="M 648 504 
L 648 69.12 
" style="fill: none; stroke: #cccccc; stroke-width: 1.25; stroke-linejoin: miter; stroke-linecap: square"/>
   </g>
   <g id="patch_5">
    <path d="M 90 504 
L 648 504 
" style="fill: none; stroke: #cccccc; stroke-width: 1.25; stroke-linejoin: miter; stroke-linecap: square"/>
   </g>
   <g id="patch_6">
    <path d="M 90 69.12 
L 648 69.12 
" style="fill: none; stroke: #cccccc; stroke-width: 1.25; stroke-linejoin: miter; stroke-linecap: square"/>
   </g>
   <g id="legend_1">
    <g id="patch_7">
     <path d="M 283.71 156.2175 
L 631.2 156.2175 
Q 636 156.2175 636 151.4175 
L 636 85.92 
Q 636 81.12 631.2 81.12 
L 283.71 81.12 
Q 278.91 81.12 278.91 85.92 
L 278.91 151.4175 
Q 278.91 156.2175 283.71 156.2175 
z
" style="fill: #ffffff; opacity: 0.8; stroke: #cccccc; stroke-linejoin: miter"/>
    </g>
    <g id="line2d_12">
     <path d="M 288.51 99.49875 
L 312.51 99.49875 
L 336.51 99.49875 
" style="fill: none; stroke: #4c72b0; stroke-width: 2; stroke-linecap: round"/>
    </g>
    <g id="text_11">
     <!-- LIME -->
     <g style="fill: #262626" transform="translate(355.71 107.89875)scale(0.24 -0.24)">
      <defs>
       <path id="ArialMT-4c" d="M 469 0 
L 469 4581 
L 1075 4581 
L 1075 541 
L 3331 541 
L 3331 0 
L 469 0 
z
" transform="scale(0.015625)"/>
       <path id="ArialMT-49" d="M 597 0 
L 597 4581 
L 1203 4581 
L 1203 0 
L 597 0 
z
" transform="scale(0.015625)"/>
       <path id="ArialMT-4d" d="M 475 0 
L 475 4581 
L 1388 4581 
L 2472 1338 
Q 2622 884 2691 659 
Q 2769 909 2934 1394 
L 4031 4581 
L 4847 4581 
L 4847 0 
L 4263 0 
L 4263 3834 
L 2931 0 
L 2384 0 
L 1059 3900 
L 1059 0 
L 475 0 
z
" transform="scale(0.015625)"/>
       <path id="ArialMT-45" d="M 506 0 
L 506 4581 
L 3819 4581 
L 3819 4041 
L 1113 4041 
L 1113 2638 
L 3647 2638 
L 3647 2100 
L 1113 2100 
L 1113 541 
L 3925 541 
L 3925 0 
L 506 0 
z
" transform="scale(0.015625)"/>
      </defs>
      <use xlink:href="#ArialMT-4c"/>
      <use xlink:href="#ArialMT-49" x="55.615234"/>
      <use xlink:href="#ArialMT-4d" x="83.398438"/>
      <use xlink:href="#ArialMT-45" x="166.699219"/>
     </g>
    </g>
    <g id="line2d_13">
     <path d="M 288.51 133.4475 
L 312.51 133.4475 
L 336.51 133.4475 
" style="fill: none; stroke: #dd8452; stroke-width: 3; stroke-linecap: round"/>
    </g>
    <g id="text_12">
     <!-- Истинные предсказания -->
     <g style="fill: #262626" transform="translate(355.71 141.8475)scale(0.24 -0.24)">
      <defs>
       <path id="ArialMT-438" d="M 422 3319 
L 984 3319 
L 984 788 
L 2544 3319 
L 3150 3319 
L 3150 0 
L 2588 0 
L 2588 2516 
L 1028 0 
L 422 0 
L 422 3319 
z
" transform="scale(0.015625)"/>
       <path id="ArialMT-44b" d="M 3581 3319 
L 4144 3319 
L 4144 0 
L 3581 0 
L 3581 3319 
z
M 434 3319 
L 997 3319 
L 997 2022 
L 1709 2022 
Q 2406 2022 2782 1751 
Q 3159 1481 3159 1006 
Q 3159 591 2845 295 
Q 2531 0 1841 0 
L 434 0 
L 434 3319 
z
M 997 463 
L 1588 463 
Q 2122 463 2350 594 
Q 2578 725 2578 1003 
Q 2578 1219 2409 1387 
Q 2241 1556 1663 1556 
L 997 1556 
L 997 463 
z
" transform="scale(0.015625)"/>
       <path id="ArialMT-43f" d="M 425 3319 
L 3044 3319 
L 3044 0 
L 2481 0 
L 2481 2853 
L 988 2853 
L 988 0 
L 425 0 
L 425 3319 
z
" transform="scale(0.015625)"/>
       <path id="ArialMT-440" d="M 422 -1272 
L 422 3319 
L 934 3319 
L 934 2888 
Q 1116 3141 1344 3267 
Q 1572 3394 1897 3394 
Q 2322 3394 2647 3175 
Q 2972 2956 3137 2557 
Q 3303 2159 3303 1684 
Q 3303 1175 3120 767 
Q 2938 359 2589 142 
Q 2241 -75 1856 -75 
Q 1575 -75 1351 44 
Q 1128 163 984 344 
L 984 -1272 
L 422 -1272 
z
M 931 1641 
Q 931 1000 1190 694 
Q 1450 388 1819 388 
Q 2194 388 2461 705 
Q 2728 1022 2728 1688 
Q 2728 2322 2467 2637 
Q 2206 2953 1844 2953 
Q 1484 2953 1207 2617 
Q 931 2281 931 1641 
z
" transform="scale(0.015625)"/>
       <path id="ArialMT-437" d="M 1156 1500 
L 1156 1941 
Q 1513 1944 1642 1969 
Q 1772 1994 1887 2119 
Q 2003 2244 2003 2431 
Q 2003 2659 1851 2795 
Q 1700 2931 1459 2931 
Q 984 2931 794 2372 
L 259 2459 
Q 509 3394 1466 3394 
Q 1997 3394 2298 3103 
Q 2600 2813 2600 2409 
Q 2600 2003 2206 1763 
Q 2456 1628 2581 1420 
Q 2706 1213 2706 928 
Q 2706 481 2381 203 
Q 2056 -75 1472 -75 
Q 338 -75 156 934 
L 684 1047 
Q 756 728 976 553 
Q 1197 378 1481 378 
Q 1766 378 1955 539 
Q 2144 700 2144 950 
Q 2144 1144 2025 1287 
Q 1906 1431 1772 1467 
Q 1638 1503 1284 1503 
Q 1256 1503 1156 1500 
z
" transform="scale(0.015625)"/>
       <path id="ArialMT-44f" d="M 3034 3319 
L 3034 0 
L 2475 0 
L 2475 1294 
L 2150 1294 
Q 1853 1294 1708 1217 
Q 1563 1141 1284 725 
L 794 0 
L 97 0 
L 703 894 
Q 981 1303 1256 1356 
Q 775 1422 542 1703 
Q 309 1984 309 2350 
Q 309 2781 614 3050 
Q 919 3319 1497 3319 
L 3034 3319 
z
M 2475 2853 
L 1675 2853 
Q 1172 2853 1026 2697 
Q 881 2541 881 2331 
Q 881 2034 1095 1895 
Q 1309 1756 1853 1756 
L 2475 1756 
L 2475 2853 
z
" transform="scale(0.015625)"/>
      </defs>
      <use xlink:href="#ArialMT-418"/>
      <use xlink:href="#ArialMT-441" x="71.875"/>
      <use xlink:href="#ArialMT-442" x="121.875"/>
      <use xlink:href="#ArialMT-438" x="167.675781"/>
      <use xlink:href="#ArialMT-43d" x="223.535156"/>
      <use xlink:href="#ArialMT-43d" x="278.759766"/>
      <use xlink:href="#ArialMT-44b" x="333.984375"/>
      <use xlink:href="#ArialMT-435" x="405.859375"/>
      <use xlink:href="#ArialMT-20" x="461.474609"/>
      <use xlink:href="#ArialMT-43f" x="489.257812"/>
      <use xlink:href="#ArialMT-440" x="543.408203"/>
      <use xlink:href="#ArialMT-435" x="599.023438"/>
      <use xlink:href="#ArialMT-434" x="652.388672"/>
      <use xlink:href="#ArialMT-441" x="710.738281"/>
      <use xlink:href="#ArialMT-43a" x="760.738281"/>
      <use xlink:href="#ArialMT-430" x="806.738281"/>
      <use xlink:href="#ArialMT-437" x="861.228516"/>
      <use xlink:href="#ArialMT-430" x="907.078125"/>
      <use xlink:href="#ArialMT-43d" x="962.693359"/>
      <use xlink:href="#ArialMT-438" x="1017.917969"/>
      <use xlink:href="#ArialMT-44f" x="1073.777344"/>
     </g>
    </g>
   </g>
  </g>
 </g>
 <defs>
  <clipPath id="p2235f92778">
   <rect x="90" y="69.12" width="558" height="434.88"/>
  </clipPath>
 </defs>
</svg>
