<?xml version="1.0" encoding="utf-8" standalone="no"?>
<!DOCTYPE svg PUBLIC "-//W3C//DTD SVG 1.1//EN"
  "http://www.w3.org/Graphics/SVG/1.1/DTD/svg11.dtd">
<svg xmlns:xlink="http://www.w3.org/1999/xlink" width="720pt" height="576pt" viewBox="0 0 720 576" xmlns="http://www.w3.org/2000/svg" version="1.1">
 <metadata>
  <rdf:RDF xmlns:dc="http://purl.org/dc/elements/1.1/" xmlns:cc="http://creativecommons.org/ns#" xmlns:rdf="http://www.w3.org/1999/02/22-rdf-syntax-ns#">
   <cc:Work>
    <dc:type rdf:resource="http://purl.org/dc/dcmitype/StillImage"/>
    <dc:date>2022-04-27T19:05:54.185448</dc:date>
    <dc:format>image/svg+xml</dc:format>
    <dc:creator>
     <cc:Agent>
      <dc:title>Matplotlib v3.5.1, https://matplotlib.org/</dc:title>
     </cc:Agent>
    </dc:creator>
   </cc:Work>
  </rdf:RDF>
 </metadata>
 <defs>
  <style type="text/css">*{stroke-linejoin: round; stroke-linecap: butt}</style>
 </defs>
 <g id="figure_1">
  <g id="patch_1">
   <path d="M 0 576 
L 720 576 
L 720 0 
L 0 0 
L 0 576 
z
" style="fill: none"/>
  </g>
  <g id="axes_1">
   <g id="patch_2">
    <path d="M 90 504 
L 648 504 
L 648 69.12 
L 90 69.12 
z
" style="fill: #ffffff"/>
   </g>
   <g id="matplotlib.axis_1">
    <g id="xtick_1">
     <g id="line2d_1">
      <path d="M 115.363636 504 
L 115.363636 69.12 
" clip-path="url(#p5fac39791e)" style="fill: none; stroke: #cccccc; stroke-linecap: round"/>
     </g>
     <g id="text_1">
      <!-- 0 -->
      <g style="fill: #262626" transform="translate(106.188089 537.120781)scale(0.33 -0.33)">
       <defs>
        <path id="ArialMT-30" d="M 266 2259 
Q 266 3072 433 3567 
Q 600 4063 929 4331 
Q 1259 4600 1759 4600 
Q 2128 4600 2406 4451 
Q 2684 4303 2865 4023 
Q 3047 3744 3150 3342 
Q 3253 2941 3253 2259 
Q 3253 1453 3087 958 
Q 2922 463 2592 192 
Q 2263 -78 1759 -78 
Q 1097 -78 719 397 
Q 266 969 266 2259 
z
M 844 2259 
Q 844 1131 1108 757 
Q 1372 384 1759 384 
Q 2147 384 2411 759 
Q 2675 1134 2675 2259 
Q 2675 3391 2411 3762 
Q 2147 4134 1753 4134 
Q 1366 4134 1134 3806 
Q 844 3388 844 2259 
z
" transform="scale(0.015625)"/>
       </defs>
       <use xlink:href="#ArialMT-30"/>
      </g>
     </g>
    </g>
    <g id="xtick_2">
     <g id="line2d_2">
      <path d="M 242.308763 504 
L 242.308763 69.12 
" clip-path="url(#p5fac39791e)" style="fill: none; stroke: #cccccc; stroke-linecap: round"/>
     </g>
     <g id="text_2">
      <!-- 250 -->
      <g style="fill: #262626" transform="translate(214.782123 537.120781)scale(0.33 -0.33)">
       <defs>
        <path id="ArialMT-32" d="M 3222 541 
L 3222 0 
L 194 0 
Q 188 203 259 391 
Q 375 700 629 1000 
Q 884 1300 1366 1694 
Q 2113 2306 2375 2664 
Q 2638 3022 2638 3341 
Q 2638 3675 2398 3904 
Q 2159 4134 1775 4134 
Q 1369 4134 1125 3890 
Q 881 3647 878 3216 
L 300 3275 
Q 359 3922 746 4261 
Q 1134 4600 1788 4600 
Q 2447 4600 2831 4234 
Q 3216 3869 3216 3328 
Q 3216 3053 3103 2787 
Q 2991 2522 2730 2228 
Q 2469 1934 1863 1422 
Q 1356 997 1212 845 
Q 1069 694 975 541 
L 3222 541 
z
" transform="scale(0.015625)"/>
        <path id="ArialMT-35" d="M 266 1200 
L 856 1250 
Q 922 819 1161 601 
Q 1400 384 1738 384 
Q 2144 384 2425 690 
Q 2706 997 2706 1503 
Q 2706 1984 2436 2262 
Q 2166 2541 1728 2541 
Q 1456 2541 1237 2417 
Q 1019 2294 894 2097 
L 366 2166 
L 809 4519 
L 3088 4519 
L 3088 3981 
L 1259 3981 
L 1013 2750 
Q 1425 3038 1878 3038 
Q 2478 3038 2890 2622 
Q 3303 2206 3303 1553 
Q 3303 931 2941 478 
Q 2500 -78 1738 -78 
Q 1113 -78 717 272 
Q 322 622 266 1200 
z
" transform="scale(0.015625)"/>
       </defs>
       <use xlink:href="#ArialMT-32"/>
       <use xlink:href="#ArialMT-35" x="55.615234"/>
       <use xlink:href="#ArialMT-30" x="111.230469"/>
      </g>
     </g>
    </g>
    <g id="xtick_3">
     <g id="line2d_3">
      <path d="M 369.25389 504 
L 369.25389 69.12 
" clip-path="url(#p5fac39791e)" style="fill: none; stroke: #cccccc; stroke-linecap: round"/>
     </g>
     <g id="text_3">
      <!-- 500 -->
      <g style="fill: #262626" transform="translate(341.72725 537.120781)scale(0.33 -0.33)">
       <use xlink:href="#ArialMT-35"/>
       <use xlink:href="#ArialMT-30" x="55.615234"/>
       <use xlink:href="#ArialMT-30" x="111.230469"/>
      </g>
     </g>
    </g>
    <g id="xtick_4">
     <g id="line2d_4">
      <path d="M 496.199017 504 
L 496.199017 69.12 
" clip-path="url(#p5fac39791e)" style="fill: none; stroke: #cccccc; stroke-linecap: round"/>
     </g>
     <g id="text_4">
      <!-- 750 -->
      <g style="fill: #262626" transform="translate(468.672377 537.120781)scale(0.33 -0.33)">
       <defs>
        <path id="ArialMT-37" d="M 303 3981 
L 303 4522 
L 3269 4522 
L 3269 4084 
Q 2831 3619 2401 2847 
Q 1972 2075 1738 1259 
Q 1569 684 1522 0 
L 944 0 
Q 953 541 1156 1306 
Q 1359 2072 1739 2783 
Q 2119 3494 2547 3981 
L 303 3981 
z
" transform="scale(0.015625)"/>
       </defs>
       <use xlink:href="#ArialMT-37"/>
       <use xlink:href="#ArialMT-35" x="55.615234"/>
       <use xlink:href="#ArialMT-30" x="111.230469"/>
      </g>
     </g>
    </g>
    <g id="xtick_5">
     <g id="line2d_5">
      <path d="M 623.144144 504 
L 623.144144 69.12 
" clip-path="url(#p5fac39791e)" style="fill: none; stroke: #cccccc; stroke-linecap: round"/>
     </g>
     <g id="text_5">
      <!-- 1000 -->
      <g style="fill: #262626" transform="translate(586.441957 537.120781)scale(0.33 -0.33)">
       <defs>
        <path id="ArialMT-31" d="M 2384 0 
L 1822 0 
L 1822 3584 
Q 1619 3391 1289 3197 
Q 959 3003 697 2906 
L 697 3450 
Q 1169 3672 1522 3987 
Q 1875 4303 2022 4600 
L 2384 4600 
L 2384 0 
z
" transform="scale(0.015625)"/>
       </defs>
       <use xlink:href="#ArialMT-31"/>
       <use xlink:href="#ArialMT-30" x="55.615234"/>
       <use xlink:href="#ArialMT-30" x="111.230469"/>
       <use xlink:href="#ArialMT-30" x="166.845703"/>
      </g>
     </g>
    </g>
    <g id="text_6">
     <!-- Индекс объекта -->
     <g style="fill: #262626" transform="translate(236.432813 573.447656)scale(0.36 -0.36)">
      <defs>
       <path id="ArialMT-418" d="M 503 4581 
L 1053 4581 
L 1053 953 
L 3491 4581 
L 4100 4581 
L 4100 0 
L 3550 0 
L 3550 3619 
L 1109 0 
L 503 0 
L 503 4581 
z
" transform="scale(0.015625)"/>
       <path id="ArialMT-43d" d="M 425 3319 
L 988 3319 
L 988 1938 
L 2547 1938 
L 2547 3319 
L 3109 3319 
L 3109 0 
L 2547 0 
L 2547 1472 
L 988 1472 
L 988 0 
L 425 0 
L 425 3319 
z
" transform="scale(0.015625)"/>
       <path id="ArialMT-434" d="M 866 3319 
L 3178 3319 
L 3178 463 
L 3538 463 
L 3538 -941 
L 3075 -941 
L 3075 0 
L 463 0 
L 463 -941 
L 0 -941 
L 0 463 
L 297 463 
Q 891 1269 866 3319 
z
M 1334 2853 
Q 1272 1238 834 463 
L 2619 463 
L 2619 2853 
L 1334 2853 
z
" transform="scale(0.015625)"/>
       <path id="ArialMT-435" d="M 2694 1069 
L 3275 997 
Q 3138 488 2766 206 
Q 2394 -75 1816 -75 
Q 1088 -75 661 373 
Q 234 822 234 1631 
Q 234 2469 665 2931 
Q 1097 3394 1784 3394 
Q 2450 3394 2872 2941 
Q 3294 2488 3294 1666 
Q 3294 1616 3291 1516 
L 816 1516 
Q 847 969 1125 678 
Q 1403 388 1819 388 
Q 2128 388 2347 550 
Q 2566 713 2694 1069 
z
M 847 1978 
L 2700 1978 
Q 2663 2397 2488 2606 
Q 2219 2931 1791 2931 
Q 1403 2931 1139 2672 
Q 875 2413 847 1978 
z
" transform="scale(0.015625)"/>
       <path id="ArialMT-43a" d="M 419 3319 
L 981 3319 
L 981 1884 
Q 1250 1884 1358 1987 
Q 1466 2091 1675 2588 
Q 1841 2981 1944 3106 
Q 2047 3231 2181 3275 
Q 2316 3319 2613 3319 
L 2725 3319 
L 2725 2853 
L 2569 2856 
Q 2347 2856 2284 2791 
Q 2219 2722 2084 2381 
Q 1956 2056 1850 1931 
Q 1744 1806 1522 1703 
Q 1884 1606 2234 1028 
L 2850 0 
L 2231 0 
L 1631 1028 
Q 1447 1338 1309 1436 
Q 1172 1534 981 1534 
L 981 0 
L 419 0 
L 419 3319 
z
" transform="scale(0.015625)"/>
       <path id="ArialMT-441" d="M 2588 1216 
L 3141 1144 
Q 3050 572 2676 248 
Q 2303 -75 1759 -75 
Q 1078 -75 664 370 
Q 250 816 250 1647 
Q 250 2184 428 2587 
Q 606 2991 970 3192 
Q 1334 3394 1763 3394 
Q 2303 3394 2647 3120 
Q 2991 2847 3088 2344 
L 2541 2259 
Q 2463 2594 2264 2762 
Q 2066 2931 1784 2931 
Q 1359 2931 1093 2626 
Q 828 2322 828 1663 
Q 828 994 1084 691 
Q 1341 388 1753 388 
Q 2084 388 2306 591 
Q 2528 794 2588 1216 
z
" transform="scale(0.015625)"/>
       <path id="ArialMT-20" transform="scale(0.015625)"/>
       <path id="ArialMT-43e" d="M 213 1659 
Q 213 2581 725 3025 
Q 1153 3394 1769 3394 
Q 2453 3394 2887 2945 
Q 3322 2497 3322 1706 
Q 3322 1066 3130 698 
Q 2938 331 2570 128 
Q 2203 -75 1769 -75 
Q 1072 -75 642 372 
Q 213 819 213 1659 
z
M 791 1659 
Q 791 1022 1069 705 
Q 1347 388 1769 388 
Q 2188 388 2466 706 
Q 2744 1025 2744 1678 
Q 2744 2294 2464 2611 
Q 2184 2928 1769 2928 
Q 1347 2928 1069 2612 
Q 791 2297 791 1659 
z
" transform="scale(0.015625)"/>
       <path id="ArialMT-431" d="M 2853 4691 
L 3350 4684 
Q 3316 4350 3202 4219 
Q 3088 4088 2908 4050 
Q 2728 4013 2203 4013 
Q 1506 4013 1253 3878 
Q 1000 3744 889 3448 
Q 778 3153 766 2688 
Q 978 3003 1262 3161 
Q 1547 3319 1903 3319 
Q 2556 3319 2984 2870 
Q 3413 2422 3413 1656 
Q 3413 1075 3197 703 
Q 2981 331 2686 128 
Q 2391 -75 1881 -75 
Q 1291 -75 962 195 
Q 634 466 459 887 
Q 284 1309 284 2356 
Q 284 3672 729 4128 
Q 1175 4584 2100 4584 
Q 2675 4584 2753 4603 
Q 2831 4622 2853 4691 
z
M 2825 1672 
Q 2825 2191 2579 2522 
Q 2334 2853 1888 2853 
Q 1422 2853 1169 2503 
Q 916 2153 916 1569 
Q 916 991 1195 684 
Q 1475 378 1884 378 
Q 2303 378 2564 733 
Q 2825 1088 2825 1672 
z
" transform="scale(0.015625)"/>
       <path id="ArialMT-44a" d="M 125 3319 
L 1609 3319 
L 1609 2022 
L 2325 2022 
Q 3084 2022 3428 1726 
Q 3772 1431 3772 1003 
Q 3772 559 3439 279 
Q 3106 0 2456 0 
L 1047 0 
L 1047 2853 
L 125 2853 
L 125 3319 
z
M 1609 456 
L 2200 456 
Q 2738 456 2963 586 
Q 3188 716 3188 1003 
Q 3188 1266 2995 1409 
Q 2803 1553 2275 1553 
L 1609 1553 
L 1609 456 
z
" transform="scale(0.015625)"/>
       <path id="ArialMT-442" d="M 119 3319 
L 2816 3319 
L 2816 2853 
L 1747 2853 
L 1747 0 
L 1188 0 
L 1188 2853 
L 119 2853 
L 119 3319 
z
" transform="scale(0.015625)"/>
       <path id="ArialMT-430" d="M 2588 409 
Q 2275 144 1986 34 
Q 1697 -75 1366 -75 
Q 819 -75 525 192 
Q 231 459 231 875 
Q 231 1119 342 1320 
Q 453 1522 633 1644 
Q 813 1766 1038 1828 
Q 1203 1872 1538 1913 
Q 2219 1994 2541 2106 
Q 2544 2222 2544 2253 
Q 2544 2597 2384 2738 
Q 2169 2928 1744 2928 
Q 1347 2928 1158 2789 
Q 969 2650 878 2297 
L 328 2372 
Q 403 2725 575 2942 
Q 747 3159 1072 3276 
Q 1397 3394 1825 3394 
Q 2250 3394 2515 3294 
Q 2781 3194 2906 3042 
Q 3031 2891 3081 2659 
Q 3109 2516 3109 2141 
L 3109 1391 
Q 3109 606 3145 398 
Q 3181 191 3288 0 
L 2700 0 
Q 2613 175 2588 409 
z
M 2541 1666 
Q 2234 1541 1622 1453 
Q 1275 1403 1131 1340 
Q 988 1278 909 1158 
Q 831 1038 831 891 
Q 831 666 1001 516 
Q 1172 366 1500 366 
Q 1825 366 2078 508 
Q 2331 650 2450 897 
Q 2541 1088 2541 1459 
L 2541 1666 
z
" transform="scale(0.015625)"/>
      </defs>
      <use xlink:href="#ArialMT-418"/>
      <use xlink:href="#ArialMT-43d" x="71.875"/>
      <use xlink:href="#ArialMT-434" x="127.099609"/>
      <use xlink:href="#ArialMT-435" x="185.449219"/>
      <use xlink:href="#ArialMT-43a" x="241.064453"/>
      <use xlink:href="#ArialMT-441" x="285.939453"/>
      <use xlink:href="#ArialMT-20" x="335.939453"/>
      <use xlink:href="#ArialMT-43e" x="363.722656"/>
      <use xlink:href="#ArialMT-431" x="419.337891"/>
      <use xlink:href="#ArialMT-44a" x="473.238281"/>
      <use xlink:href="#ArialMT-435" x="535.738281"/>
      <use xlink:href="#ArialMT-43a" x="591.353516"/>
      <use xlink:href="#ArialMT-442" x="636.228516"/>
      <use xlink:href="#ArialMT-430" x="680.904297"/>
     </g>
    </g>
   </g>
   <g id="matplotlib.axis_2">
    <g id="ytick_1">
     <g id="line2d_6">
      <path d="M 90 475.412904 
L 648 475.412904 
" clip-path="url(#p5fac39791e)" style="fill: none; stroke: #cccccc; stroke-linecap: round"/>
     </g>
     <g id="text_7">
      <!-- 0.2 -->
      <g style="fill: #262626" transform="translate(34.63 487.223295)scale(0.33 -0.33)">
       <defs>
        <path id="ArialMT-2e" d="M 581 0 
L 581 641 
L 1222 641 
L 1222 0 
L 581 0 
z
" transform="scale(0.015625)"/>
       </defs>
       <use xlink:href="#ArialMT-30"/>
       <use xlink:href="#ArialMT-2e" x="55.615234"/>
       <use xlink:href="#ArialMT-32" x="83.398438"/>
      </g>
     </g>
    </g>
    <g id="ytick_2">
     <g id="line2d_7">
      <path d="M 90 350.785264 
L 648 350.785264 
" clip-path="url(#p5fac39791e)" style="fill: none; stroke: #cccccc; stroke-linecap: round"/>
     </g>
     <g id="text_8">
      <!-- 0.4 -->
      <g style="fill: #262626" transform="translate(34.63 362.595655)scale(0.33 -0.33)">
       <defs>
        <path id="ArialMT-34" d="M 2069 0 
L 2069 1097 
L 81 1097 
L 81 1613 
L 2172 4581 
L 2631 4581 
L 2631 1613 
L 3250 1613 
L 3250 1097 
L 2631 1097 
L 2631 0 
L 2069 0 
z
M 2069 1613 
L 2069 3678 
L 634 1613 
L 2069 1613 
z
" transform="scale(0.015625)"/>
       </defs>
       <use xlink:href="#ArialMT-30"/>
       <use xlink:href="#ArialMT-2e" x="55.615234"/>
       <use xlink:href="#ArialMT-34" x="83.398438"/>
      </g>
     </g>
    </g>
    <g id="ytick_3">
     <g id="line2d_8">
      <path d="M 90 226.157625 
L 648 226.157625 
" clip-path="url(#p5fac39791e)" style="fill: none; stroke: #cccccc; stroke-linecap: round"/>
     </g>
     <g id="text_9">
      <!-- 0.6 -->
      <g style="fill: #262626" transform="translate(34.63 237.968015)scale(0.33 -0.33)">
       <defs>
        <path id="ArialMT-36" d="M 3184 3459 
L 2625 3416 
Q 2550 3747 2413 3897 
Q 2184 4138 1850 4138 
Q 1581 4138 1378 3988 
Q 1113 3794 959 3422 
Q 806 3050 800 2363 
Q 1003 2672 1297 2822 
Q 1591 2972 1913 2972 
Q 2475 2972 2870 2558 
Q 3266 2144 3266 1488 
Q 3266 1056 3080 686 
Q 2894 316 2569 119 
Q 2244 -78 1831 -78 
Q 1128 -78 684 439 
Q 241 956 241 2144 
Q 241 3472 731 4075 
Q 1159 4600 1884 4600 
Q 2425 4600 2770 4297 
Q 3116 3994 3184 3459 
z
M 888 1484 
Q 888 1194 1011 928 
Q 1134 663 1356 523 
Q 1578 384 1822 384 
Q 2178 384 2434 671 
Q 2691 959 2691 1453 
Q 2691 1928 2437 2201 
Q 2184 2475 1800 2475 
Q 1419 2475 1153 2201 
Q 888 1928 888 1484 
z
" transform="scale(0.015625)"/>
       </defs>
       <use xlink:href="#ArialMT-30"/>
       <use xlink:href="#ArialMT-2e" x="55.615234"/>
       <use xlink:href="#ArialMT-36" x="83.398438"/>
      </g>
     </g>
    </g>
    <g id="ytick_4">
     <g id="line2d_9">
      <path d="M 90 101.529985 
L 648 101.529985 
" clip-path="url(#p5fac39791e)" style="fill: none; stroke: #cccccc; stroke-linecap: round"/>
     </g>
     <g id="text_10">
      <!-- 0.8 -->
      <g style="fill: #262626" transform="translate(34.63 113.340376)scale(0.33 -0.33)">
       <defs>
        <path id="ArialMT-38" d="M 1131 2484 
Q 781 2613 612 2850 
Q 444 3088 444 3419 
Q 444 3919 803 4259 
Q 1163 4600 1759 4600 
Q 2359 4600 2725 4251 
Q 3091 3903 3091 3403 
Q 3091 3084 2923 2848 
Q 2756 2613 2416 2484 
Q 2838 2347 3058 2040 
Q 3278 1734 3278 1309 
Q 3278 722 2862 322 
Q 2447 -78 1769 -78 
Q 1091 -78 675 323 
Q 259 725 259 1325 
Q 259 1772 486 2073 
Q 713 2375 1131 2484 
z
M 1019 3438 
Q 1019 3113 1228 2906 
Q 1438 2700 1772 2700 
Q 2097 2700 2305 2904 
Q 2513 3109 2513 3406 
Q 2513 3716 2298 3927 
Q 2084 4138 1766 4138 
Q 1444 4138 1231 3931 
Q 1019 3725 1019 3438 
z
M 838 1322 
Q 838 1081 952 856 
Q 1066 631 1291 507 
Q 1516 384 1775 384 
Q 2178 384 2440 643 
Q 2703 903 2703 1303 
Q 2703 1709 2433 1975 
Q 2163 2241 1756 2241 
Q 1359 2241 1098 1978 
Q 838 1716 838 1322 
z
" transform="scale(0.015625)"/>
       </defs>
       <use xlink:href="#ArialMT-30"/>
       <use xlink:href="#ArialMT-2e" x="55.615234"/>
       <use xlink:href="#ArialMT-38" x="83.398438"/>
      </g>
     </g>
    </g>
   </g>
   <g id="line2d_10">
    <path d="M 115.363636 88.887273 
L 115.871417 101.429731 
L 116.379197 103.110887 
L 116.886978 99.050308 
L 117.394758 115.175069 
L 117.902539 122.812452 
L 118.410319 125.268908 
L 118.9181 129.165988 
L 119.42588 123.8811 
L 119.933661 132.110563 
L 120.441441 133.615592 
L 120.949222 129.645416 
L 121.457002 133.728429 
L 121.964783 134.502578 
L 122.472563 132.615471 
L 122.980344 133.27266 
L 123.488124 137.667479 
L 123.995905 140.557939 
L 124.503686 133.002898 
L 125.011466 142.074926 
L 125.519247 139.780669 
L 126.027027 130.48111 
L 126.534808 140.632185 
L 127.042588 143.349043 
L 127.550369 141.141067 
L 128.058149 145.657191 
L 128.56593 146.675475 
L 129.07371 146.529655 
L 129.581491 147.254072 
L 130.089271 143.099412 
L 130.597052 149.575665 
L 131.104832 145.434228 
L 131.612613 151.48112 
L 132.120393 150.250608 
L 132.628174 150.742813 
L 133.135954 142.023373 
L 133.643735 152.230273 
L 134.151515 148.046606 
L 134.659296 153.74273 
L 135.167076 152.007162 
L 135.674857 140.981877 
L 136.182637 154.579537 
L 136.690418 143.380168 
L 137.198198 146.301418 
L 137.705979 154.891715 
L 138.213759 154.674769 
L 138.72154 161.51609 
L 139.22932 155.035975 
L 139.737101 154.235975 
L 140.244881 156.560985 
L 140.752662 151.741745 
L 141.260442 155.728003 
L 141.768223 157.96443 
L 142.276003 153.973418 
L 142.783784 159.844146 
L 143.291564 155.244861 
L 143.799345 160.360048 
L 144.307125 156.308643 
L 144.814906 162.816986 
L 145.322686 162.843989 
L 145.830467 162.170717 
L 147.353808 155.434285 
L 148.369369 165.511299 
L 148.87715 166.179594 
L 149.38493 165.540678 
L 149.892711 163.457202 
L 150.400491 162.056877 
L 150.908272 167.26165 
L 151.416052 167.054249 
L 151.923833 156.48607 
L 152.431613 166.885253 
L 152.939394 116.902206 
L 153.447174 167.021416 
L 153.954955 164.399381 
L 154.462735 162.633505 
L 154.970516 163.932581 
L 155.478296 166.537865 
L 155.986077 161.1287 
L 156.493857 164.980615 
L 157.001638 167.42916 
L 157.509419 166.660433 
L 158.017199 167.356733 
L 158.52498 166.01357 
L 159.03276 166.67607 
L 159.540541 170.173911 
L 160.048321 170.644537 
L 160.556102 167.037238 
L 161.571663 172.919926 
L 162.079443 173.055865 
L 162.587224 172.343743 
L 163.095004 173.358312 
L 163.602785 152.938793 
L 164.110565 174.320734 
L 164.618346 173.235447 
L 165.126126 173.940809 
L 165.633907 169.967774 
L 166.141687 170.917122 
L 166.649468 175.902237 
L 167.157248 173.277603 
L 167.665029 174.968563 
L 168.172809 169.841863 
L 168.68059 176.20305 
L 169.18837 168.481354 
L 169.696151 178.194934 
L 170.203931 177.777979 
L 170.711712 167.280406 
L 171.219492 175.894512 
L 171.727273 168.896192 
L 172.235053 179.252959 
L 172.742834 174.28712 
L 173.250614 176.752565 
L 173.758395 154.182936 
L 174.266175 177.900065 
L 174.773956 179.736919 
L 175.281736 178.632095 
L 175.789517 168.662198 
L 176.297297 183.104875 
L 177.312858 177.179103 
L 177.820639 183.35276 
L 178.328419 184.544496 
L 178.8362 178.095543 
L 179.851761 186.075189 
L 180.359541 179.234314 
L 180.867322 186.062041 
L 181.375102 186.240768 
L 181.882883 155.392277 
L 182.898444 218.170683 
L 183.406224 186.037342 
L 183.914005 183.598974 
L 184.421785 189.806802 
L 184.929566 182.425735 
L 185.437346 179.881847 
L 185.945127 190.418827 
L 186.452907 189.085654 
L 186.960688 186.908617 
L 187.468468 187.479117 
L 187.976249 168.060313 
L 188.484029 192.940541 
L 188.99181 194.05933 
L 189.49959 191.851799 
L 190.007371 192.125573 
L 190.515152 191.632328 
L 191.022932 193.652143 
L 191.530713 191.812615 
L 192.038493 148.21965 
L 192.546274 183.917614 
L 193.054054 193.825522 
L 193.561835 192.745137 
L 194.577396 189.65738 
L 195.085176 195.439339 
L 195.592957 195.117838 
L 196.100737 186.670129 
L 196.608518 195.836274 
L 197.116298 190.229031 
L 197.624079 198.236906 
L 198.131859 188.81177 
L 198.63964 196.766977 
L 199.14742 192.010916 
L 199.655201 181.558545 
L 200.670762 199.161072 
L 201.178542 198.83998 
L 201.686323 193.87622 
L 202.194103 199.561164 
L 202.701884 195.990191 
L 203.209664 203.538434 
L 203.717445 172.071493 
L 204.225225 202.775279 
L 204.733006 201.596134 
L 205.240786 197.970858 
L 205.748567 205.815606 
L 206.256347 203.563319 
L 206.764128 184.566298 
L 207.271908 206.302722 
L 207.779689 207.000136 
L 208.287469 207.354321 
L 208.79525 203.869628 
L 209.30303 206.687512 
L 209.810811 202.453369 
L 210.318591 211.074123 
L 210.826372 208.847464 
L 211.334152 207.217416 
L 211.841933 197.005948 
L 212.349713 209.197527 
L 212.857494 202.009375 
L 213.365274 207.932213 
L 213.873055 205.502091 
L 214.380835 211.973961 
L 214.888616 203.50586 
L 215.396396 209.948611 
L 215.904177 210.946912 
L 216.411957 201.113326 
L 216.919738 210.304988 
L 217.935299 205.120049 
L 218.443079 210.021855 
L 218.95086 216.268274 
L 219.45864 194.188696 
L 219.966421 200.202828 
L 220.474201 213.970897 
L 220.981982 214.721795 
L 221.489762 215.224771 
L 221.997543 214.149661 
L 222.505324 193.494327 
L 223.013104 214.120504 
L 223.520885 216.13538 
L 224.028665 212.900875 
L 224.536446 215.450817 
L 225.044226 208.351731 
L 225.552007 213.664736 
L 226.059787 209.790126 
L 226.567568 214.561639 
L 227.075348 216.106149 
L 227.583129 203.375344 
L 228.090909 216.601734 
L 228.59869 222.241327 
L 229.10647 215.6691 
L 229.614251 218.124367 
L 230.122031 228.864514 
L 230.629812 224.291525 
L 231.137592 218.318731 
L 231.645373 222.513503 
L 232.153153 219.184472 
L 232.660934 221.266835 
L 233.168714 220.380331 
L 233.676495 206.6214 
L 234.184275 210.68703 
L 234.692056 221.33655 
L 235.199836 216.325881 
L 235.707617 216.443472 
L 236.215397 213.965251 
L 236.723178 223.086269 
L 237.230958 223.170247 
L 238.246519 216.039888 
L 238.7543 220.539113 
L 239.26208 217.249712 
L 239.769861 222.030881 
L 240.277641 207.862275 
L 240.785422 226.166152 
L 241.293202 221.368009 
L 241.800983 226.286752 
L 242.308763 226.47391 
L 242.816544 229.985977 
L 243.324324 223.704534 
L 243.832105 228.108118 
L 244.847666 226.349559 
L 245.355446 220.637725 
L 245.863227 225.702918 
L 246.371007 227.212181 
L 246.878788 229.538268 
L 247.386568 219.844893 
L 247.894349 223.840882 
L 248.402129 231.007529 
L 248.90991 231.006117 
L 249.41769 229.452508 
L 249.925471 231.719354 
L 250.941032 222.117125 
L 251.448812 229.495629 
L 251.956593 222.688516 
L 252.464373 231.964008 
L 252.972154 232.937795 
L 253.479934 232.331639 
L 253.987715 234.361854 
L 254.495495 232.319716 
L 255.003276 233.274784 
L 255.511057 234.74631 
L 256.018837 234.380388 
L 256.526618 231.794343 
L 257.034398 236.774668 
L 257.542179 193.022402 
L 258.049959 244.44288 
L 258.55774 253.586034 
L 259.06552 247.385449 
L 259.573301 239.346264 
L 260.081081 251.477413 
L 260.588862 228.555196 
L 261.096642 241.600148 
L 261.604423 238.269519 
L 262.112203 240.494655 
L 262.619984 239.148483 
L 263.127764 233.988614 
L 263.635545 241.275267 
L 264.143325 232.486409 
L 264.651106 238.148659 
L 265.158886 252.414578 
L 265.666667 239.77815 
L 266.174447 238.373814 
L 266.682228 217.850928 
L 267.190008 239.32409 
L 267.697789 241.396201 
L 268.205569 242.932131 
L 268.71335 245.006471 
L 269.22113 245.715288 
L 269.728911 241.325966 
L 270.236691 251.229676 
L 271.252252 246.267068 
L 271.760033 246.493003 
L 272.267813 250.260569 
L 272.775594 208.153579 
L 273.283374 239.1688 
L 273.791155 240.713681 
L 274.298935 248.103068 
L 274.806716 251.326431 
L 275.314496 245.820288 
L 275.822277 251.145067 
L 276.330057 251.726152 
L 276.837838 247.424708 
L 277.345618 248.567268 
L 277.853399 245.821439 
L 278.361179 248.799999 
L 278.86896 250.631839 
L 279.37674 254.265397 
L 279.884521 211.483019 
L 280.392301 254.462844 
L 280.900082 251.11773 
L 281.407862 249.167296 
L 281.915643 223.191567 
L 282.423423 253.229695 
L 282.931204 257.109764 
L 283.438984 253.601263 
L 283.946765 256.721482 
L 284.454545 241.142968 
L 284.962326 256.867933 
L 285.470106 255.46835 
L 285.977887 246.036305 
L 286.485667 253.484488 
L 286.993448 251.034235 
L 287.501229 247.072083 
L 288.009009 257.671907 
L 289.02457 258.704341 
L 289.532351 258.774799 
L 290.040131 262.382581 
L 290.547912 253.125809 
L 291.055692 259.07238 
L 291.563473 259.379433 
L 292.071253 261.653336 
L 292.579034 254.207419 
L 293.086814 264.373537 
L 293.594595 246.339866 
L 294.102375 257.606091 
L 294.610156 260.28239 
L 295.117936 263.653058 
L 295.625717 263.070858 
L 296.133497 264.570389 
L 296.641278 243.953386 
L 297.149058 265.718186 
L 297.656839 255.207131 
L 298.164619 201.75941 
L 298.6724 266.049604 
L 299.18018 265.38116 
L 299.687961 269.359284 
L 300.195741 274.443197 
L 300.703522 262.510498 
L 301.211302 274.923182 
L 302.226863 261.910433 
L 302.734644 267.454646 
L 303.242424 266.626455 
L 303.750205 266.906357 
L 304.257985 268.248406 
L 304.765766 281.658723 
L 305.273546 262.308668 
L 305.781327 295.146927 
L 306.289107 278.367391 
L 306.796888 282.788803 
L 307.304668 264.091221 
L 307.812449 265.693821 
L 308.320229 281.897954 
L 308.82801 264.754984 
L 309.33579 271.002109 
L 309.843571 273.887071 
L 310.351351 261.139997 
L 310.859132 272.364623 
L 311.366912 271.808794 
L 311.874693 277.75674 
L 312.382473 273.433531 
L 312.890254 273.939813 
L 313.398034 273.005173 
L 313.905815 275.37962 
L 314.413595 278.68306 
L 314.921376 256.989238 
L 315.429156 262.641051 
L 315.936937 273.955821 
L 316.444717 270.463068 
L 316.952498 279.430616 
L 317.460278 280.543016 
L 317.968059 276.008247 
L 318.475839 287.63252 
L 318.98362 273.269661 
L 319.4914 285.047998 
L 319.999181 291.007198 
L 320.506962 273.164809 
L 321.014742 280.774485 
L 321.522523 281.692262 
L 322.030303 275.20639 
L 322.538084 282.815768 
L 323.045864 280.925393 
L 323.553645 282.094658 
L 324.061425 280.675762 
L 324.569206 281.67644 
L 325.076986 287.168246 
L 325.584767 287.736554 
L 326.092547 298.190244 
L 326.600328 283.825472 
L 327.108108 232.675276 
L 327.615889 285.923731 
L 328.123669 287.517788 
L 328.63145 284.563742 
L 329.13923 285.812082 
L 329.647011 280.463941 
L 330.154791 279.757279 
L 330.662572 309.44683 
L 331.170352 287.729014 
L 331.678133 283.606929 
L 332.185913 273.388441 
L 332.693694 288.180326 
L 333.201474 291.411173 
L 333.709255 295.877248 
L 334.217035 291.605388 
L 334.724816 285.14245 
L 335.232596 290.340259 
L 335.740377 285.169267 
L 336.248157 283.069039 
L 336.755938 291.28658 
L 337.263718 289.605685 
L 337.771499 284.420894 
L 338.279279 294.318049 
L 338.78706 336.794879 
L 339.29484 296.295838 
L 339.802621 291.063208 
L 340.310401 294.808062 
L 340.818182 291.588897 
L 341.325962 285.20782 
L 341.833743 288.807653 
L 342.341523 301.479793 
L 342.849304 295.552591 
L 343.357084 293.461463 
L 343.864865 299.218425 
L 344.372645 306.799873 
L 344.880426 298.666923 
L 345.388206 305.708086 
L 345.895987 297.60563 
L 346.403767 304.493935 
L 346.911548 296.662039 
L 347.419328 299.723184 
L 347.927109 301.126146 
L 348.434889 300.362638 
L 348.94267 305.16236 
L 349.45045 304.707501 
L 349.958231 297.159109 
L 350.466011 303.502394 
L 350.973792 293.939721 
L 351.481572 307.765508 
L 351.989353 285.300489 
L 352.497133 301.217404 
L 353.004914 288.086283 
L 353.512695 268.212824 
L 354.020475 290.144484 
L 354.528256 301.19146 
L 355.036036 299.257888 
L 355.543817 312.547624 
L 356.051597 280.019055 
L 357.067158 310.553381 
L 357.574939 301.124512 
L 358.082719 304.455066 
L 358.5905 306.172936 
L 359.09828 304.634164 
L 359.606061 312.669004 
L 360.113841 297.928634 
L 361.129402 317.379418 
L 361.637183 318.784831 
L 362.144963 309.509916 
L 362.652744 308.824944 
L 363.160524 315.616458 
L 363.668305 311.321068 
L 364.176085 297.165256 
L 364.683866 316.712107 
L 365.191646 303.975489 
L 365.699427 313.497362 
L 366.207207 313.531235 
L 366.714988 311.088912 
L 367.222768 309.658985 
L 367.730549 304.934123 
L 368.238329 311.308922 
L 368.74611 266.20768 
L 369.25389 313.689534 
L 369.761671 318.008175 
L 370.269451 333.325266 
L 370.777232 317.761738 
L 371.285012 312.275504 
L 371.792793 313.256664 
L 372.300573 310.779984 
L 372.808354 316.128422 
L 373.316134 315.24346 
L 373.823915 316.779631 
L 374.331695 315.198444 
L 374.839476 311.548933 
L 375.347256 320.716732 
L 375.855037 315.80707 
L 376.362817 302.69504 
L 376.870598 269.200874 
L 377.378378 315.834685 
L 377.886159 315.660619 
L 378.393939 338.247055 
L 378.90172 328.908403 
L 379.4095 338.124913 
L 379.917281 301.630793 
L 380.425061 339.779921 
L 380.932842 317.45814 
L 381.440622 318.581535 
L 381.948403 334.981053 
L 382.456183 314.408026 
L 382.963964 322.819058 
L 383.471744 320.16614 
L 383.979525 309.6853 
L 384.487305 324.328098 
L 384.995086 315.180504 
L 385.502867 319.994897 
L 386.010647 326.84697 
L 386.518428 321.982473 
L 387.026208 312.606606 
L 387.533989 325.290092 
L 388.041769 320.714726 
L 388.54955 327.654492 
L 389.05733 322.322842 
L 389.565111 323.35847 
L 390.072891 325.263758 
L 390.580672 325.98914 
L 391.088452 314.973735 
L 391.596233 336.73055 
L 392.104013 326.737699 
L 392.611794 333.253731 
L 393.119574 328.278755 
L 393.627355 321.447239 
L 394.135135 329.689888 
L 394.642916 327.735554 
L 395.150696 337.989717 
L 395.658477 328.482478 
L 396.166257 330.373857 
L 396.674038 345.378603 
L 397.181818 334.35016 
L 397.689599 326.758944 
L 398.197379 334.12443 
L 398.70516 326.119806 
L 399.21294 329.996773 
L 400.228501 333.191834 
L 400.736282 337.87103 
L 401.244062 327.601193 
L 401.751843 330.523854 
L 402.259623 331.092553 
L 402.767404 348.490576 
L 403.275184 332.212178 
L 403.782965 339.066146 
L 404.290745 336.855049 
L 404.798526 329.836766 
L 405.306306 332.561999 
L 405.814087 341.530123 
L 406.321867 334.688319 
L 406.829648 346.639868 
L 407.337428 334.860063 
L 407.845209 335.945759 
L 408.352989 341.184981 
L 408.86077 371.125612 
L 409.36855 346.21749 
L 409.876331 330.752649 
L 410.384111 346.23283 
L 410.891892 335.465551 
L 411.399672 345.669944 
L 412.415233 335.222476 
L 412.923014 341.163291 
L 413.430794 338.688431 
L 413.938575 333.302108 
L 414.446355 337.628827 
L 414.954136 334.679665 
L 415.461916 341.371601 
L 415.969697 339.87623 
L 416.477477 335.747997 
L 416.985258 342.512564 
L 417.493038 342.830833 
L 418.000819 346.791203 
L 418.5086 338.883853 
L 419.01638 335.618112 
L 419.524161 344.611343 
L 420.031941 342.863295 
L 420.539722 339.720104 
L 421.047502 342.584434 
L 421.555283 344.745537 
L 422.063063 349.387257 
L 422.570844 337.664558 
L 423.078624 344.085785 
L 423.586405 344.832152 
L 424.094185 345.873482 
L 424.601966 348.372688 
L 425.109746 343.442877 
L 425.617527 347.08962 
L 426.125307 346.688524 
L 427.140868 342.02983 
L 427.648649 354.964229 
L 428.156429 360.671997 
L 428.66421 348.800656 
L 429.17199 360.473455 
L 429.679771 345.692118 
L 430.695332 349.464178 
L 431.203112 349.467948 
L 431.710893 347.408985 
L 432.218673 350.12107 
L 432.726454 351.993878 
L 433.234234 331.386866 
L 433.742015 343.796226 
L 434.249795 358.984918 
L 434.757576 399.288444 
L 435.265356 358.281635 
L 435.773137 350.616451 
L 436.280917 362.752075 
L 436.788698 363.625078 
L 437.296478 350.575873 
L 437.804259 354.011947 
L 438.312039 355.585447 
L 438.81982 378.566162 
L 439.3276 366.578028 
L 439.835381 376.810816 
L 440.343161 371.521081 
L 440.850942 356.906492 
L 441.358722 349.27442 
L 441.866503 358.238216 
L 442.374283 352.144655 
L 442.882064 358.183302 
L 443.389844 370.509372 
L 443.897625 353.450528 
L 444.405405 358.955167 
L 444.913186 347.88351 
L 445.420966 361.489417 
L 445.928747 355.013461 
L 446.436527 381.220956 
L 446.944308 356.569429 
L 447.452088 355.470288 
L 447.959869 358.833657 
L 448.467649 357.86741 
L 448.97543 357.590034 
L 449.48321 359.343653 
L 449.990991 364.736141 
L 450.498771 363.711265 
L 451.006552 357.181398 
L 451.514333 360.931155 
L 452.022113 357.711859 
L 452.529894 359.364081 
L 453.037674 359.217315 
L 453.545455 363.401112 
L 454.053235 361.414408 
L 454.561016 362.975855 
L 455.068796 360.116781 
L 455.576577 374.251143 
L 456.084357 367.65624 
L 456.592138 376.876891 
L 457.099918 372.41271 
L 457.607699 388.973796 
L 458.115479 370.769959 
L 459.13104 357.719028 
L 459.638821 368.203155 
L 460.146601 374.239647 
L 460.654382 358.461142 
L 461.669943 366.164471 
L 462.177723 364.27326 
L 462.685504 365.673938 
L 463.193284 363.224 
L 463.701065 367.635106 
L 464.208845 364.811335 
L 464.716626 363.433147 
L 465.224406 366.785485 
L 465.732187 373.85989 
L 466.239967 370.830816 
L 466.747748 366.00777 
L 467.255528 364.405875 
L 467.763309 367.871125 
L 468.271089 374.390091 
L 468.77887 378.94514 
L 469.28665 367.808225 
L 469.794431 367.484997 
L 470.809992 366.515908 
L 471.317772 378.58568 
L 471.825553 370.6912 
L 472.333333 368.792746 
L 472.841114 377.127562 
L 473.348894 343.179243 
L 473.856675 371.132186 
L 474.364455 368.130245 
L 474.872236 386.933924 
L 475.380016 381.608421 
L 475.887797 368.573274 
L 476.395577 379.890996 
L 476.903358 373.117682 
L 477.411138 391.200677 
L 477.918919 370.525696 
L 478.426699 373.889566 
L 478.93448 372.047048 
L 479.44226 381.58582 
L 479.950041 378.921035 
L 480.457821 373.032219 
L 480.965602 359.422301 
L 481.473382 373.304321 
L 481.981163 378.222191 
L 482.488943 379.033018 
L 482.996724 389.998151 
L 484.012285 354.525472 
L 484.520066 386.289808 
L 485.027846 376.580387 
L 485.535627 376.468609 
L 486.043407 377.687904 
L 486.551188 376.444801 
L 487.058968 392.276382 
L 487.566749 376.187964 
L 488.074529 379.244318 
L 488.58231 374.453622 
L 489.09009 385.162959 
L 489.597871 377.032238 
L 490.105651 379.913096 
L 490.613432 388.146236 
L 491.121212 374.960461 
L 491.628993 379.590444 
L 492.136773 381.911703 
L 492.644554 378.922558 
L 493.152334 382.404205 
L 493.660115 397.17752 
L 494.167895 379.559282 
L 494.675676 380.249564 
L 495.183456 380.499753 
L 495.691237 384.966645 
L 496.199017 382.733431 
L 496.706798 379.967379 
L 497.214578 379.189125 
L 497.722359 392.031561 
L 498.230139 382.310942 
L 499.2457 380.881126 
L 499.753481 381.622516 
L 500.261261 381.421411 
L 500.769042 388.923282 
L 501.784603 380.355475 
L 502.292383 385.136458 
L 502.800164 388.140906 
L 503.307944 382.474403 
L 503.815725 384.794697 
L 504.323505 382.095741 
L 504.831286 387.977909 
L 505.339066 382.557768 
L 505.846847 484.232727 
L 506.354627 393.890626 
L 506.862408 391.996573 
L 507.370188 386.863632 
L 507.877969 392.724388 
L 508.385749 385.470866 
L 508.89353 385.082695 
L 509.40131 386.794418 
L 509.909091 385.06236 
L 510.416871 385.25327 
L 510.924652 389.405143 
L 511.432432 389.794539 
L 511.940213 394.28108 
L 512.955774 386.449036 
L 513.463554 391.144723 
L 513.971335 389.512483 
L 514.479115 388.541371 
L 514.986896 395.511667 
L 515.494676 389.644393 
L 516.002457 410.485641 
L 516.510238 397.692622 
L 517.018018 388.688323 
L 517.525799 393.68278 
L 518.033579 389.366646 
L 518.54136 446.01031 
L 519.04914 392.484525 
L 519.556921 390.576024 
L 520.064701 401.710544 
L 520.572482 403.088639 
L 521.080262 400.835424 
L 521.588043 393.844923 
L 522.095823 392.608913 
L 522.603604 391.817122 
L 523.111384 393.797827 
L 523.619165 404.376127 
L 524.126945 387.070272 
L 524.634726 393.193769 
L 525.142506 392.454756 
L 525.650287 393.248813 
L 526.158067 393.297042 
L 526.665848 420.310183 
L 527.173628 413.456828 
L 527.681409 394.94087 
L 528.189189 397.397084 
L 528.69697 393.275648 
L 529.20475 393.408765 
L 529.712531 412.679577 
L 530.220311 394.44768 
L 530.728092 392.972273 
L 531.235872 397.721872 
L 531.743653 395.768856 
L 532.251433 396.410446 
L 532.759214 396.276215 
L 533.266994 410.948058 
L 533.774775 401.135475 
L 534.282555 405.763081 
L 534.790336 395.334277 
L 535.298116 396.381512 
L 535.805897 401.67745 
L 536.313677 398.226278 
L 536.821458 397.51241 
L 537.329238 405.4247 
L 537.837019 403.846687 
L 538.344799 398.77609 
L 538.85258 406.062018 
L 539.36036 398.956395 
L 539.868141 398.313357 
L 540.375921 398.820121 
L 540.883702 398.410019 
L 541.391482 403.922271 
L 541.899263 404.834607 
L 542.407043 407.067487 
L 542.914824 398.736589 
L 543.422604 401.981234 
L 543.930385 416.588431 
L 544.438165 403.466967 
L 544.945946 406.648823 
L 545.453726 400.231793 
L 545.961507 401.161363 
L 546.469287 404.65796 
L 546.977068 401.037105 
L 547.484848 414.023651 
L 547.992629 401.58272 
L 548.50041 402.218367 
L 549.00819 403.513469 
L 549.515971 405.343247 
L 550.023751 407.644988 
L 550.531532 403.214235 
L 551.039312 405.136664 
L 551.547093 409.588997 
L 552.054873 419.480023 
L 552.562654 403.436529 
L 553.070434 403.966359 
L 553.578215 410.860013 
L 554.085995 406.05342 
L 554.593776 420.608024 
L 555.101556 410.27434 
L 555.609337 405.701017 
L 556.117117 407.07785 
L 556.624898 409.267218 
L 557.132678 423.354781 
L 557.640459 411.409806 
L 558.148239 437.743528 
L 558.65602 407.744343 
L 559.1638 407.675798 
L 559.671581 408.960797 
L 560.179361 408.967891 
L 560.687142 420.333972 
L 561.194922 413.752793 
L 561.702703 412.955597 
L 562.210483 411.666847 
L 562.718264 408.235434 
L 563.226044 414.353397 
L 563.733825 411.450811 
L 564.749386 409.574233 
L 565.257166 410.313116 
L 565.764947 414.338652 
L 566.272727 413.494118 
L 566.780508 415.584596 
L 567.288288 412.393529 
L 567.796069 413.159822 
L 568.303849 411.083811 
L 568.81163 413.88721 
L 569.31941 418.016706 
L 569.827191 414.39585 
L 570.334971 413.174902 
L 570.842752 417.362933 
L 571.350532 412.645555 
L 571.858313 422.943193 
L 572.366093 412.543526 
L 572.873874 413.207661 
L 573.381654 413.256614 
L 573.889435 403.557723 
L 574.397215 418.240616 
L 574.904996 418.114853 
L 575.412776 413.65329 
L 576.428337 423.509681 
L 576.936118 417.436753 
L 577.443898 416.25057 
L 577.951679 415.369489 
L 578.459459 429.577559 
L 578.96724 421.189945 
L 579.47502 417.602239 
L 580.490581 422.734177 
L 580.998362 420.025824 
L 581.506143 421.099616 
L 582.013923 418.154576 
L 582.521704 419.020596 
L 583.029484 432.609622 
L 583.537265 440.305393 
L 584.045045 423.632993 
L 584.552826 431.347743 
L 585.060606 422.053848 
L 585.568387 420.113126 
L 586.076167 423.738829 
L 586.583948 424.832027 
L 587.091728 422.348699 
L 587.599509 427.094639 
L 588.107289 423.086802 
L 588.61507 423.372572 
L 589.12285 422.761364 
L 589.630631 428.969137 
L 590.138411 424.269327 
L 590.646192 428.322979 
L 591.153972 455.021601 
L 591.661753 425.115661 
L 592.169533 425.511334 
L 592.677314 430.502876 
L 593.185094 427.372052 
L 593.692875 430.479848 
L 594.200655 427.196111 
L 594.708436 428.856931 
L 595.216216 428.670961 
L 596.231777 427.625676 
L 596.739558 427.144558 
L 597.247338 428.519255 
L 597.755119 432.218814 
L 598.262899 430.622937 
L 598.77068 433.504408 
L 599.27846 431.133508 
L 599.786241 431.724344 
L 600.294021 430.543955 
L 600.801802 429.949349 
L 601.309582 431.896292 
L 601.817363 435.545933 
L 602.325143 433.296339 
L 602.832924 433.746778 
L 603.340704 432.373436 
L 603.848485 436.774254 
L 604.356265 432.110434 
L 604.864046 432.911028 
L 605.371826 433.166175 
L 605.879607 439.103294 
L 606.387387 434.290535 
L 606.895168 433.043625 
L 607.402948 436.372211 
L 607.910729 433.503777 
L 608.418509 435.696005 
L 608.92629 439.770029 
L 609.43407 440.729888 
L 609.941851 438.637014 
L 610.449631 438.926944 
L 610.957412 435.576036 
L 611.465192 439.658306 
L 611.972973 437.919748 
L 612.480753 444.320547 
L 612.988534 437.510555 
L 613.496314 446.61161 
L 614.004095 443.721262 
L 614.511876 441.522348 
L 615.019656 441.474305 
L 615.527437 444.062819 
L 616.035217 445.420375 
L 616.542998 444.622604 
L 617.050778 444.721095 
L 617.558559 445.282226 
L 618.066339 445.177188 
L 618.57412 446.245335 
L 619.0819 456.069691 
L 619.589681 462.438529 
L 620.097461 451.257712 
L 620.605242 451.756529 
L 621.113022 452.013049 
L 621.620803 459.575174 
L 622.128583 460.2983 
L 622.636364 477.968341 
L 622.636364 477.968341 
" clip-path="url(#p5fac39791e)" style="fill: none; stroke: #4c72b0; stroke-width: 2; stroke-linecap: round"/>
   </g>
   <g id="line2d_11">
    <path d="M 115.363636 88.926049 
L 115.871417 102.707674 
L 116.379197 103.841468 
L 116.886978 104.23027 
L 117.394758 116.73555 
L 117.902539 126.221153 
L 118.410319 126.654414 
L 118.9181 130.995228 
L 119.42588 131.013428 
L 120.441441 133.604338 
L 120.949222 133.862734 
L 121.457002 134.248007 
L 121.964783 134.776314 
L 122.472563 135.564614 
L 122.980344 136.670367 
L 123.995905 140.792156 
L 124.503686 141.486933 
L 125.011466 141.554382 
L 127.042588 143.323304 
L 128.058149 145.37495 
L 128.56593 146.86995 
L 129.07371 146.948653 
L 129.581491 147.942089 
L 130.089271 148.376872 
L 130.597052 149.152693 
L 131.104832 151.507454 
L 131.612613 151.949666 
L 132.628174 152.129247 
L 133.643735 152.278855 
L 134.151515 153.078483 
L 135.167076 153.785889 
L 136.182637 154.693155 
L 136.690418 155.051277 
L 137.705979 156.256087 
L 138.213759 156.585387 
L 138.72154 157.169036 
L 139.22932 157.402733 
L 140.244881 158.199947 
L 140.752662 158.371506 
L 141.260442 159.182686 
L 141.768223 159.425891 
L 142.276003 159.522571 
L 142.783784 159.844146 
L 143.291564 160.53818 
L 143.799345 160.677054 
L 144.307125 161.584617 
L 144.814906 162.075671 
L 145.830467 162.170717 
L 146.338247 162.733491 
L 147.353808 163.381209 
L 147.861589 163.519897 
L 148.369369 165.893935 
L 148.87715 166.197199 
L 149.38493 166.271149 
L 149.892711 166.554505 
L 150.400491 167.363604 
L 150.908272 167.405835 
L 151.923833 167.752889 
L 152.431613 167.779185 
L 152.939394 167.998286 
L 153.447174 168.005046 
L 153.954955 168.249439 
L 154.462735 168.268902 
L 154.970516 168.585834 
L 155.478296 168.61525 
L 155.986077 168.909452 
L 158.52498 169.400468 
L 159.03276 170.580578 
L 159.540541 170.705375 
L 160.556102 171.825205 
L 161.063882 171.979084 
L 161.571663 172.766864 
L 162.587224 173.465207 
L 163.095004 173.861362 
L 164.110565 173.99693 
L 164.618346 174.0649 
L 165.633907 174.509675 
L 166.649468 174.622141 
L 167.157248 174.850563 
L 167.665029 175.578545 
L 168.172809 175.730939 
L 168.68059 176.425493 
L 169.18837 176.462709 
L 169.696151 178.194934 
L 171.219492 178.686582 
L 171.727273 179.230229 
L 172.235053 179.579214 
L 173.758395 179.858447 
L 174.266175 180.071568 
L 174.773956 180.573466 
L 175.281736 180.770133 
L 175.789517 180.77693 
L 176.805078 182.83203 
L 177.312858 183.381582 
L 177.820639 183.680575 
L 178.328419 184.878959 
L 178.8362 185.655411 
L 179.34398 185.69987 
L 179.851761 186.075189 
L 180.867322 186.237611 
L 181.375102 186.296035 
L 182.390663 186.669906 
L 183.406224 187.899192 
L 183.914005 188.053146 
L 184.421785 188.893928 
L 185.437346 189.119676 
L 185.945127 190.894429 
L 186.452907 191.671847 
L 186.960688 191.802661 
L 187.976249 193.15069 
L 188.99181 193.287447 
L 192.038493 195.02554 
L 193.561835 195.233981 
L 194.069615 195.562798 
L 195.085176 195.755974 
L 195.592957 195.974777 
L 196.100737 196.071606 
L 196.608518 196.351693 
L 197.624079 197.233777 
L 198.131859 197.397758 
L 198.63964 198.201993 
L 199.14742 198.408316 
L 199.655201 199.275469 
L 200.670762 200.138127 
L 201.178542 200.626321 
L 201.686323 200.777488 
L 202.194103 201.5698 
L 202.701884 202.021 
L 203.209664 202.134989 
L 203.717445 202.451252 
L 204.225225 202.481077 
L 204.733006 203.698293 
L 205.748567 204.733067 
L 206.256347 205.090187 
L 206.764128 206.0483 
L 207.271908 206.117681 
L 207.779689 206.907727 
L 208.79525 207.724032 
L 209.30303 208.441874 
L 209.810811 208.803711 
L 210.826372 208.847464 
L 211.334152 208.99852 
L 211.841933 209.477317 
L 212.349713 209.649693 
L 212.857494 210.061337 
L 214.380835 210.26896 
L 215.396396 210.7537 
L 216.919738 211.518786 
L 217.427518 211.55162 
L 217.935299 213.382865 
L 218.95086 213.628299 
L 219.45864 213.801344 
L 219.966421 213.834586 
L 220.474201 214.085962 
L 220.981982 215.215077 
L 221.997543 215.895629 
L 222.505324 215.973738 
L 223.013104 216.642144 
L 224.028665 217.068051 
L 224.536446 217.49652 
L 225.552007 218.144424 
L 226.059787 218.171872 
L 228.090909 218.883437 
L 228.59869 219.145547 
L 229.10647 219.16787 
L 229.614251 219.515927 
L 230.122031 220.267011 
L 231.137592 220.409747 
L 231.645373 220.685266 
L 232.153153 220.710708 
L 233.676495 222.318323 
L 235.199836 222.647214 
L 235.707617 222.953375 
L 237.738739 223.419952 
L 238.246519 224.063548 
L 238.7543 224.107672 
L 239.26208 225.547739 
L 240.277641 225.626369 
L 240.785422 226.166152 
L 241.800983 226.623964 
L 242.308763 227.097041 
L 242.816544 227.109706 
L 243.832105 228.108118 
L 244.339885 228.384194 
L 246.371007 228.965874 
L 246.878788 229.466287 
L 247.894349 229.650883 
L 248.402129 231.007529 
L 249.41769 232.209405 
L 250.433251 232.224038 
L 250.941032 232.381817 
L 251.448812 232.682333 
L 251.956593 232.809098 
L 252.464373 233.886288 
L 252.972154 234.142011 
L 255.003276 234.433909 
L 255.511057 236.043009 
L 256.018837 236.254087 
L 256.526618 237.186349 
L 258.55774 238.374037 
L 259.06552 239.012246 
L 259.573301 240.235107 
L 260.081081 240.380555 
L 261.096642 240.522177 
L 262.619984 241.171418 
L 263.127764 242.063567 
L 263.635545 242.143311 
L 264.651106 243.069037 
L 265.158886 243.082445 
L 265.666667 243.309753 
L 266.174447 243.687524 
L 266.682228 243.876836 
L 267.190008 244.436974 
L 267.697789 244.700087 
L 268.205569 245.309846 
L 268.71335 246.472983 
L 269.728911 246.769599 
L 270.236691 247.708732 
L 270.744472 247.983063 
L 271.252252 248.057755 
L 271.760033 248.506652 
L 272.267813 248.594085 
L 272.775594 248.852332 
L 273.283374 248.935233 
L 273.791155 249.402887 
L 274.298935 249.640076 
L 274.806716 250.014318 
L 275.314496 250.73892 
L 275.822277 250.76971 
L 276.330057 251.351204 
L 277.345618 251.722104 
L 277.853399 251.826324 
L 278.361179 252.05393 
L 278.86896 252.095343 
L 279.37674 253.20325 
L 279.884521 253.308584 
L 280.900082 253.873699 
L 281.407862 254.261312 
L 281.915643 255.07004 
L 282.931204 255.57777 
L 283.438984 256.074135 
L 283.946765 256.096309 
L 284.454545 256.548846 
L 284.962326 256.599285 
L 285.470106 256.787075 
L 285.977887 256.802191 
L 286.485667 257.286931 
L 286.993448 257.44471 
L 287.501229 258.238581 
L 288.009009 258.29266 
L 288.51679 258.658656 
L 289.02457 258.704341 
L 289.532351 259.131956 
L 290.040131 259.13619 
L 290.547912 259.459845 
L 291.055692 260.065667 
L 291.563473 260.34178 
L 292.071253 261.107684 
L 292.579034 261.574669 
L 293.086814 262.322002 
L 294.610156 262.69955 
L 295.117936 263.608599 
L 295.625717 264.079633 
L 296.133497 265.137435 
L 297.656839 265.541688 
L 298.164619 265.935875 
L 298.6724 266.124779 
L 299.18018 266.684359 
L 300.195741 266.710061 
L 300.703522 267.155727 
L 301.719083 267.686226 
L 303.242424 268.088176 
L 303.750205 268.985302 
L 304.257985 269.62704 
L 304.765766 270.448731 
L 305.273546 271.055296 
L 305.781327 271.318855 
L 306.796888 272.285808 
L 307.304668 272.467024 
L 309.33579 272.620865 
L 309.843571 273.110433 
L 310.351351 273.24511 
L 310.859132 273.24953 
L 311.366912 273.811339 
L 312.382473 274.461991 
L 312.890254 275.228303 
L 313.905815 275.37962 
L 314.413595 275.609231 
L 314.921376 275.973073 
L 316.444717 279.025509 
L 316.952498 279.87149 
L 317.460278 279.921223 
L 317.968059 280.095605 
L 318.475839 280.709932 
L 319.4914 280.792053 
L 319.999181 281.289532 
L 323.045864 282.27695 
L 323.553645 282.293107 
L 324.061425 283.177419 
L 324.569206 283.234766 
L 325.076986 283.873719 
L 326.092547 284.616595 
L 326.600328 284.630486 
L 327.108108 284.958189 
L 327.615889 284.962906 
L 328.123669 285.079123 
L 328.63145 285.524455 
L 329.647011 286.068324 
L 330.154791 286.736953 
L 332.693694 288.967308 
L 333.201474 289.240821 
L 333.709255 289.993149 
L 334.217035 290.431201 
L 334.724816 290.450199 
L 335.232596 291.178181 
L 336.248157 291.57118 
L 336.755938 291.584421 
L 337.771499 292.354002 
L 338.279279 292.457442 
L 338.78706 293.422445 
L 340.310401 293.803336 
L 340.818182 294.88671 
L 341.833743 295.143008 
L 342.849304 295.706748 
L 343.357084 295.709274 
L 343.864865 296.164021 
L 344.372645 297.176325 
L 345.388206 298.171301 
L 345.895987 298.253032 
L 346.403767 299.120965 
L 346.911548 299.189399 
L 347.419328 299.621081 
L 347.927109 300.621183 
L 348.434889 301.334494 
L 349.45045 301.37665 
L 349.958231 301.693136 
L 350.466011 301.813272 
L 350.973792 303.283182 
L 351.989353 303.53818 
L 353.004914 303.93701 
L 353.512695 303.994116 
L 354.528256 304.56352 
L 355.543817 304.643078 
L 356.051597 305.07775 
L 356.559378 305.194543 
L 357.067158 305.445734 
L 357.574939 306.084408 
L 358.082719 306.168293 
L 358.5905 306.397366 
L 359.606061 307.928394 
L 363.160524 309.138236 
L 363.668305 309.721643 
L 365.191646 309.793309 
L 365.699427 310.432744 
L 366.207207 310.640033 
L 367.222768 310.77666 
L 367.730549 311.425734 
L 368.238329 312.385035 
L 369.761671 312.675114 
L 370.269451 312.80953 
L 370.777232 313.302812 
L 371.792793 313.822781 
L 372.300573 314.086284 
L 372.808354 314.13741 
L 373.316134 314.554848 
L 373.823915 315.164087 
L 374.839476 315.251482 
L 375.347256 315.736853 
L 376.362817 316.234574 
L 376.870598 316.305125 
L 377.378378 316.658734 
L 378.393939 316.733928 
L 378.90172 316.96185 
L 379.917281 316.976744 
L 380.425061 317.811936 
L 380.932842 317.877695 
L 381.440622 318.298681 
L 381.948403 318.535981 
L 382.963964 318.690714 
L 383.471744 319.192966 
L 383.979525 319.426384 
L 384.487305 319.794646 
L 385.502867 321.403022 
L 386.010647 321.408017 
L 386.518428 321.569863 
L 387.026208 322.164134 
L 387.533989 322.387562 
L 388.54955 322.488383 
L 389.565111 322.788843 
L 390.072891 323.976178 
L 390.580672 324.287409 
L 391.088452 324.752667 
L 392.104013 324.879952 
L 392.611794 325.072106 
L 393.119574 326.063201 
L 394.135135 326.226737 
L 395.658477 326.667166 
L 396.166257 326.7946 
L 396.674038 327.229644 
L 397.689599 327.353196 
L 398.197379 327.671503 
L 398.70516 329.197665 
L 399.21294 329.363448 
L 400.228501 330.853489 
L 401.751843 331.284558 
L 402.259623 332.024017 
L 403.275184 332.212178 
L 403.782965 333.218074 
L 404.290745 333.357598 
L 404.798526 333.364024 
L 405.306306 333.606189 
L 405.814087 333.66153 
L 406.321867 333.993338 
L 407.337428 334.165621 
L 407.845209 334.583449 
L 408.352989 334.641353 
L 408.86077 334.92703 
L 410.891892 335.319565 
L 411.907453 335.910939 
L 412.923014 336.077409 
L 413.430794 336.433303 
L 413.938575 336.474827 
L 414.446355 337.005901 
L 415.969697 337.368815 
L 416.477477 337.995102 
L 416.985258 338.045448 
L 417.493038 338.380766 
L 418.5086 338.747004 
L 419.01638 339.817638 
L 419.524161 340.284958 
L 420.031941 340.442496 
L 420.539722 340.995688 
L 421.047502 341.933633 
L 421.555283 341.960524 
L 422.063063 342.168054 
L 422.570844 342.633071 
L 423.078624 343.465867 
L 424.601966 344.564693 
L 425.109746 344.599476 
L 425.617527 344.818335 
L 426.125307 344.822421 
L 427.648649 345.662218 
L 428.66421 345.840574 
L 429.17199 346.391017 
L 429.679771 346.415382 
L 430.187551 347.560245 
L 430.695332 347.606728 
L 431.203112 348.062423 
L 431.710893 348.359855 
L 433.742015 348.848996 
L 434.249795 349.175734 
L 434.757576 349.197592 
L 435.773137 349.400665 
L 436.280917 350.100029 
L 437.804259 350.922389 
L 438.312039 350.927161 
L 438.81982 351.44284 
L 440.343161 351.706158 
L 440.850942 351.977721 
L 442.374283 352.388548 
L 442.882064 352.756439 
L 443.897625 352.865822 
L 444.405405 353.537459 
L 445.420966 354.335546 
L 446.436527 354.469889 
L 447.959869 354.729938 
L 448.97543 355.385567 
L 449.990991 357.203126 
L 451.006552 358.397054 
L 451.514333 358.670641 
L 452.022113 359.158129 
L 452.529894 359.441875 
L 454.053235 359.605931 
L 454.561016 359.933485 
L 455.068796 360.116781 
L 455.576577 360.15084 
L 456.084357 360.864374 
L 457.099918 360.969411 
L 457.607699 361.244168 
L 458.115479 361.676426 
L 460.654382 362.061551 
L 461.162162 362.231568 
L 461.669943 362.278905 
L 462.177723 362.636174 
L 462.685504 362.640036 
L 463.193284 363.057159 
L 463.701065 363.122677 
L 464.716626 363.517385 
L 465.732187 364.746392 
L 466.747748 364.753097 
L 467.763309 365.048264 
L 468.77887 365.43272 
L 469.28665 366.388642 
L 469.794431 366.394046 
L 470.302211 366.926772 
L 470.809992 367.032683 
L 471.317772 367.333458 
L 471.825553 368.313169 
L 472.333333 368.792746 
L 472.841114 369.470605 
L 473.856675 369.613471 
L 474.364455 370.109594 
L 475.380016 370.188781 
L 475.887797 370.724813 
L 476.903358 371.269648 
L 477.411138 372.035756 
L 477.918919 372.379041 
L 478.93448 372.630176 
L 480.457821 372.872341 
L 480.965602 373.580898 
L 481.473382 373.639935 
L 481.981163 374.378261 
L 482.488943 374.750293 
L 483.504505 375.078888 
L 484.520066 375.279547 
L 485.535627 375.330227 
L 486.043407 376.226703 
L 487.058968 376.568929 
L 488.074529 376.778577 
L 488.58231 376.872713 
L 489.597871 377.360907 
L 491.121212 377.431718 
L 491.628993 377.885351 
L 492.136773 378.119753 
L 493.660115 378.327637 
L 494.167895 379.451143 
L 497.214578 379.898332 
L 498.230139 379.995588 
L 499.2457 380.044894 
L 499.753481 380.400454 
L 500.261261 380.911935 
L 501.276822 380.973201 
L 502.800164 381.357285 
L 503.307944 382.214651 
L 505.339066 382.557768 
L 505.846847 383.311081 
L 506.862408 383.988977 
L 507.370188 384.206573 
L 507.877969 384.237271 
L 508.385749 384.442851 
L 508.89353 384.513458 
L 509.909091 385.06236 
L 511.940213 385.708425 
L 512.955774 386.838877 
L 513.971335 386.931082 
L 514.479115 388.541371 
L 514.986896 389.054839 
L 516.510238 389.351418 
L 517.525799 390.178364 
L 520.572482 390.764129 
L 521.588043 390.821458 
L 523.111384 391.764603 
L 524.126945 391.815302 
L 524.634726 392.178698 
L 525.142506 392.359264 
L 526.665848 392.52501 
L 527.681409 392.911564 
L 528.189189 393.012999 
L 528.69697 393.275648 
L 529.20475 393.322744 
L 529.712531 393.667421 
L 530.728092 393.705863 
L 531.235872 394.609861 
L 532.759214 395.045666 
L 533.266994 395.741835 
L 533.774775 396.081164 
L 534.282555 396.098881 
L 534.790336 396.345615 
L 535.805897 396.458099 
L 536.821458 396.880774 
L 537.329238 397.509903 
L 538.344799 397.664153 
L 539.36036 397.959153 
L 539.868141 398.012712 
L 540.375921 398.370685 
L 540.883702 398.439008 
L 541.391482 398.708417 
L 541.899263 398.77908 
L 542.407043 399.006871 
L 542.914824 399.428971 
L 543.422604 399.509513 
L 543.930385 399.905446 
L 544.438165 399.948103 
L 545.453726 400.231793 
L 545.961507 400.636288 
L 546.977068 400.856223 
L 547.484848 401.388783 
L 547.992629 401.58272 
L 549.00819 401.653902 
L 550.023751 402.290701 
L 552.054873 402.518808 
L 552.562654 402.927852 
L 553.070434 403.185357 
L 553.578215 403.744696 
L 554.085995 404.696959 
L 554.593776 404.745039 
L 555.101556 405.118501 
L 555.609337 405.304397 
L 556.117117 405.343377 
L 556.624898 406.126998 
L 558.65602 406.430392 
L 559.1638 406.445044 
L 559.671581 406.859158 
L 563.226044 407.546804 
L 563.733825 409.476921 
L 564.749386 409.636409 
L 565.257166 410.058285 
L 568.303849 410.622156 
L 568.81163 411.048972 
L 569.31941 411.277339 
L 569.827191 411.363267 
L 570.334971 411.66343 
L 570.842752 411.672344 
L 571.858313 412.6967 
L 574.397215 413.249947 
L 574.904996 413.75842 
L 575.412776 413.801932 
L 575.920557 414.070858 
L 577.951679 415.568421 
L 578.459459 415.833763 
L 579.47502 415.980659 
L 579.982801 416.327212 
L 580.490581 417.235462 
L 581.506143 418.084452 
L 582.521704 418.218349 
L 583.029484 418.2234 
L 584.045045 418.97298 
L 584.552826 419.319422 
L 585.060606 419.930778 
L 585.568387 420.113126 
L 586.076167 420.957529 
L 586.583948 421.052836 
L 587.091728 421.267479 
L 587.599509 421.630411 
L 588.107289 421.785869 
L 588.61507 422.46694 
L 589.630631 422.768811 
L 590.138411 423.120527 
L 590.646192 424.404022 
L 591.153972 424.467609 
L 591.661753 424.805526 
L 592.169533 424.848927 
L 592.677314 425.369044 
L 593.692875 425.558635 
L 594.200655 425.703934 
L 594.708436 426.020773 
L 595.216216 426.727324 
L 596.739558 427.280535 
L 597.247338 427.296078 
L 597.755119 427.44784 
L 598.262899 428.274118 
L 598.77068 428.687675 
L 600.294021 429.295521 
L 600.801802 430.075446 
L 601.309582 430.456708 
L 601.817363 430.515058 
L 602.325143 430.756648 
L 602.832924 431.25734 
L 604.356265 431.602351 
L 604.864046 432.411488 
L 605.371826 432.666653 
L 607.910729 433.006446 
L 608.418509 434.128281 
L 609.43407 434.262103 
L 609.941851 434.908503 
L 611.972973 436.092439 
L 612.480753 436.200764 
L 612.988534 436.610643 
L 614.004095 440.540705 
L 614.511876 441.43395 
L 615.527437 441.72895 
L 616.035217 442.952461 
L 616.542998 442.984626 
L 617.050778 443.335654 
L 617.558559 445.135979 
L 618.066339 445.214906 
L 618.57412 446.175517 
L 619.0819 448.970977 
L 620.097461 450.241147 
L 620.605242 451.490434 
L 621.113022 451.70946 
L 621.620803 456.031815 
L 622.128583 456.76327 
L 622.636364 476.810284 
L 622.636364 476.810284 
" clip-path="url(#p5fac39791e)" style="fill: none; stroke: #dd8452; stroke-width: 3; stroke-linecap: round"/>
   </g>
   <g id="patch_3">
    <path d="M 90 504 
L 90 69.12 
" style="fill: none; stroke: #cccccc; stroke-width: 1.25; stroke-linejoin: miter; stroke-linecap: square"/>
   </g>
   <g id="patch_4">
    <path d="M 648 504 
L 648 69.12 
" style="fill: none; stroke: #cccccc; stroke-width: 1.25; stroke-linejoin: miter; stroke-linecap: square"/>
   </g>
   <g id="patch_5">
    <path d="M 90 504 
L 648 504 
" style="fill: none; stroke: #cccccc; stroke-width: 1.25; stroke-linejoin: miter; stroke-linecap: square"/>
   </g>
   <g id="patch_6">
    <path d="M 90 69.12 
L 648 69.12 
" style="fill: none; stroke: #cccccc; stroke-width: 1.25; stroke-linejoin: miter; stroke-linecap: square"/>
   </g>
   <g id="legend_1">
    <g id="patch_7">
     <path d="M 283.71 156.525 
L 631.2 156.525 
Q 636 156.525 636 151.725 
L 636 85.92 
Q 636 81.12 631.2 81.12 
L 283.71 81.12 
Q 278.91 81.12 278.91 85.92 
L 278.91 151.725 
Q 278.91 156.525 283.71 156.525 
z
" style="fill: #ffffff; opacity: 0.8; stroke: #cccccc; stroke-linejoin: miter"/>
    </g>
    <g id="line2d_12">
     <path d="M 288.51 99.80625 
L 312.51 99.80625 
L 336.51 99.80625 
" style="fill: none; stroke: #4c72b0; stroke-width: 2; stroke-linecap: round"/>
    </g>
    <g id="text_11">
     <!-- OpenBox -->
     <g style="fill: #262626" transform="translate(355.71 108.20625)scale(0.24 -0.24)">
      <defs>
       <path id="ArialMT-4f" d="M 309 2231 
Q 309 3372 921 4017 
Q 1534 4663 2503 4663 
Q 3138 4663 3647 4359 
Q 4156 4056 4423 3514 
Q 4691 2972 4691 2284 
Q 4691 1588 4409 1038 
Q 4128 488 3612 205 
Q 3097 -78 2500 -78 
Q 1853 -78 1343 234 
Q 834 547 571 1087 
Q 309 1628 309 2231 
z
M 934 2222 
Q 934 1394 1379 917 
Q 1825 441 2497 441 
Q 3181 441 3623 922 
Q 4066 1403 4066 2288 
Q 4066 2847 3877 3264 
Q 3688 3681 3323 3911 
Q 2959 4141 2506 4141 
Q 1863 4141 1398 3698 
Q 934 3256 934 2222 
z
" transform="scale(0.015625)"/>
       <path id="ArialMT-70" d="M 422 -1272 
L 422 3319 
L 934 3319 
L 934 2888 
Q 1116 3141 1344 3267 
Q 1572 3394 1897 3394 
Q 2322 3394 2647 3175 
Q 2972 2956 3137 2557 
Q 3303 2159 3303 1684 
Q 3303 1175 3120 767 
Q 2938 359 2589 142 
Q 2241 -75 1856 -75 
Q 1575 -75 1351 44 
Q 1128 163 984 344 
L 984 -1272 
L 422 -1272 
z
M 931 1641 
Q 931 1000 1190 694 
Q 1450 388 1819 388 
Q 2194 388 2461 705 
Q 2728 1022 2728 1688 
Q 2728 2322 2467 2637 
Q 2206 2953 1844 2953 
Q 1484 2953 1207 2617 
Q 931 2281 931 1641 
z
" transform="scale(0.015625)"/>
       <path id="ArialMT-65" d="M 2694 1069 
L 3275 997 
Q 3138 488 2766 206 
Q 2394 -75 1816 -75 
Q 1088 -75 661 373 
Q 234 822 234 1631 
Q 234 2469 665 2931 
Q 1097 3394 1784 3394 
Q 2450 3394 2872 2941 
Q 3294 2488 3294 1666 
Q 3294 1616 3291 1516 
L 816 1516 
Q 847 969 1125 678 
Q 1403 388 1819 388 
Q 2128 388 2347 550 
Q 2566 713 2694 1069 
z
M 847 1978 
L 2700 1978 
Q 2663 2397 2488 2606 
Q 2219 2931 1791 2931 
Q 1403 2931 1139 2672 
Q 875 2413 847 1978 
z
" transform="scale(0.015625)"/>
       <path id="ArialMT-6e" d="M 422 0 
L 422 3319 
L 928 3319 
L 928 2847 
Q 1294 3394 1984 3394 
Q 2284 3394 2536 3286 
Q 2788 3178 2913 3003 
Q 3038 2828 3088 2588 
Q 3119 2431 3119 2041 
L 3119 0 
L 2556 0 
L 2556 2019 
Q 2556 2363 2490 2533 
Q 2425 2703 2258 2804 
Q 2091 2906 1866 2906 
Q 1506 2906 1245 2678 
Q 984 2450 984 1813 
L 984 0 
L 422 0 
z
" transform="scale(0.015625)"/>
       <path id="ArialMT-42" d="M 469 0 
L 469 4581 
L 2188 4581 
Q 2713 4581 3030 4442 
Q 3347 4303 3526 4014 
Q 3706 3725 3706 3409 
Q 3706 3116 3547 2856 
Q 3388 2597 3066 2438 
Q 3481 2316 3704 2022 
Q 3928 1728 3928 1328 
Q 3928 1006 3792 729 
Q 3656 453 3456 303 
Q 3256 153 2954 76 
Q 2653 0 2216 0 
L 469 0 
z
M 1075 2656 
L 2066 2656 
Q 2469 2656 2644 2709 
Q 2875 2778 2992 2937 
Q 3109 3097 3109 3338 
Q 3109 3566 3000 3739 
Q 2891 3913 2687 3977 
Q 2484 4041 1991 4041 
L 1075 4041 
L 1075 2656 
z
M 1075 541 
L 2216 541 
Q 2509 541 2628 563 
Q 2838 600 2978 687 
Q 3119 775 3209 942 
Q 3300 1109 3300 1328 
Q 3300 1584 3169 1773 
Q 3038 1963 2805 2039 
Q 2572 2116 2134 2116 
L 1075 2116 
L 1075 541 
z
" transform="scale(0.015625)"/>
       <path id="ArialMT-6f" d="M 213 1659 
Q 213 2581 725 3025 
Q 1153 3394 1769 3394 
Q 2453 3394 2887 2945 
Q 3322 2497 3322 1706 
Q 3322 1066 3130 698 
Q 2938 331 2570 128 
Q 2203 -75 1769 -75 
Q 1072 -75 642 372 
Q 213 819 213 1659 
z
M 791 1659 
Q 791 1022 1069 705 
Q 1347 388 1769 388 
Q 2188 388 2466 706 
Q 2744 1025 2744 1678 
Q 2744 2294 2464 2611 
Q 2184 2928 1769 2928 
Q 1347 2928 1069 2612 
Q 791 2297 791 1659 
z
" transform="scale(0.015625)"/>
       <path id="ArialMT-78" d="M 47 0 
L 1259 1725 
L 138 3319 
L 841 3319 
L 1350 2541 
Q 1494 2319 1581 2169 
Q 1719 2375 1834 2534 
L 2394 3319 
L 3066 3319 
L 1919 1756 
L 3153 0 
L 2463 0 
L 1781 1031 
L 1600 1309 
L 728 0 
L 47 0 
z
" transform="scale(0.015625)"/>
      </defs>
      <use xlink:href="#ArialMT-4f"/>
      <use xlink:href="#ArialMT-70" x="77.783203"/>
      <use xlink:href="#ArialMT-65" x="133.398438"/>
      <use xlink:href="#ArialMT-6e" x="189.013672"/>
      <use xlink:href="#ArialMT-42" x="244.628906"/>
      <use xlink:href="#ArialMT-6f" x="311.328125"/>
      <use xlink:href="#ArialMT-78" x="366.943359"/>
     </g>
    </g>
    <g id="line2d_13">
     <path d="M 288.51 133.755 
L 312.51 133.755 
L 336.51 133.755 
" style="fill: none; stroke: #dd8452; stroke-width: 3; stroke-linecap: round"/>
    </g>
    <g id="text_12">
     <!-- Истинные предсказания -->
     <g style="fill: #262626" transform="translate(355.71 142.155)scale(0.24 -0.24)">
      <defs>
       <path id="ArialMT-438" d="M 422 3319 
L 984 3319 
L 984 788 
L 2544 3319 
L 3150 3319 
L 3150 0 
L 2588 0 
L 2588 2516 
L 1028 0 
L 422 0 
L 422 3319 
z
" transform="scale(0.015625)"/>
       <path id="ArialMT-44b" d="M 3581 3319 
L 4144 3319 
L 4144 0 
L 3581 0 
L 3581 3319 
z
M 434 3319 
L 997 3319 
L 997 2022 
L 1709 2022 
Q 2406 2022 2782 1751 
Q 3159 1481 3159 1006 
Q 3159 591 2845 295 
Q 2531 0 1841 0 
L 434 0 
L 434 3319 
z
M 997 463 
L 1588 463 
Q 2122 463 2350 594 
Q 2578 725 2578 1003 
Q 2578 1219 2409 1387 
Q 2241 1556 1663 1556 
L 997 1556 
L 997 463 
z
" transform="scale(0.015625)"/>
       <path id="ArialMT-43f" d="M 425 3319 
L 3044 3319 
L 3044 0 
L 2481 0 
L 2481 2853 
L 988 2853 
L 988 0 
L 425 0 
L 425 3319 
z
" transform="scale(0.015625)"/>
       <path id="ArialMT-440" d="M 422 -1272 
L 422 3319 
L 934 3319 
L 934 2888 
Q 1116 3141 1344 3267 
Q 1572 3394 1897 3394 
Q 2322 3394 2647 3175 
Q 2972 2956 3137 2557 
Q 3303 2159 3303 1684 
Q 3303 1175 3120 767 
Q 2938 359 2589 142 
Q 2241 -75 1856 -75 
Q 1575 -75 1351 44 
Q 1128 163 984 344 
L 984 -1272 
L 422 -1272 
z
M 931 1641 
Q 931 1000 1190 694 
Q 1450 388 1819 388 
Q 2194 388 2461 705 
Q 2728 1022 2728 1688 
Q 2728 2322 2467 2637 
Q 2206 2953 1844 2953 
Q 1484 2953 1207 2617 
Q 931 2281 931 1641 
z
" transform="scale(0.015625)"/>
       <path id="ArialMT-437" d="M 1156 1500 
L 1156 1941 
Q 1513 1944 1642 1969 
Q 1772 1994 1887 2119 
Q 2003 2244 2003 2431 
Q 2003 2659 1851 2795 
Q 1700 2931 1459 2931 
Q 984 2931 794 2372 
L 259 2459 
Q 509 3394 1466 3394 
Q 1997 3394 2298 3103 
Q 2600 2813 2600 2409 
Q 2600 2003 2206 1763 
Q 2456 1628 2581 1420 
Q 2706 1213 2706 928 
Q 2706 481 2381 203 
Q 2056 -75 1472 -75 
Q 338 -75 156 934 
L 684 1047 
Q 756 728 976 553 
Q 1197 378 1481 378 
Q 1766 378 1955 539 
Q 2144 700 2144 950 
Q 2144 1144 2025 1287 
Q 1906 1431 1772 1467 
Q 1638 1503 1284 1503 
Q 1256 1503 1156 1500 
z
" transform="scale(0.015625)"/>
       <path id="ArialMT-44f" d="M 3034 3319 
L 3034 0 
L 2475 0 
L 2475 1294 
L 2150 1294 
Q 1853 1294 1708 1217 
Q 1563 1141 1284 725 
L 794 0 
L 97 0 
L 703 894 
Q 981 1303 1256 1356 
Q 775 1422 542 1703 
Q 309 1984 309 2350 
Q 309 2781 614 3050 
Q 919 3319 1497 3319 
L 3034 3319 
z
M 2475 2853 
L 1675 2853 
Q 1172 2853 1026 2697 
Q 881 2541 881 2331 
Q 881 2034 1095 1895 
Q 1309 1756 1853 1756 
L 2475 1756 
L 2475 2853 
z
" transform="scale(0.015625)"/>
      </defs>
      <use xlink:href="#ArialMT-418"/>
      <use xlink:href="#ArialMT-441" x="71.875"/>
      <use xlink:href="#ArialMT-442" x="121.875"/>
      <use xlink:href="#ArialMT-438" x="167.675781"/>
      <use xlink:href="#ArialMT-43d" x="223.535156"/>
      <use xlink:href="#ArialMT-43d" x="278.759766"/>
      <use xlink:href="#ArialMT-44b" x="333.984375"/>
      <use xlink:href="#ArialMT-435" x="405.859375"/>
      <use xlink:href="#ArialMT-20" x="461.474609"/>
      <use xlink:href="#ArialMT-43f" x="489.257812"/>
      <use xlink:href="#ArialMT-440" x="543.408203"/>
      <use xlink:href="#ArialMT-435" x="599.023438"/>
      <use xlink:href="#ArialMT-434" x="652.388672"/>
      <use xlink:href="#ArialMT-441" x="710.738281"/>
      <use xlink:href="#ArialMT-43a" x="760.738281"/>
      <use xlink:href="#ArialMT-430" x="806.738281"/>
      <use xlink:href="#ArialMT-437" x="861.228516"/>
      <use xlink:href="#ArialMT-430" x="907.078125"/>
      <use xlink:href="#ArialMT-43d" x="962.693359"/>
      <use xlink:href="#ArialMT-438" x="1017.917969"/>
      <use xlink:href="#ArialMT-44f" x="1073.777344"/>
     </g>
    </g>
   </g>
  </g>
 </g>
 <defs>
  <clipPath id="p5fac39791e">
   <rect x="90" y="69.12" width="558" height="434.88"/>
  </clipPath>
 </defs>
</svg>
